<svg version="1" xmlns="http://www.w3.org/2000/svg" width="70.2" height="271.6" viewBox="0 0 70.2 271.6"><path fill="#F4C9A1" d="M46.2 72.1c-5.9-3.7-13.1-3.8-18.9-1l25.2-40.9c5.7-9.3 2.8-21.5-6.5-27.3-6.6-4.1-14.7-3.7-20.9.1l.3 140.5 27.2-44.1c5.8-9.3 2.9-21.5-6.4-27.3z"/><path fill="#EFB481" d="M33.1 127.9c-1.1-1.4-6.8-6.7-6.8-16 0-7.7-.1-40.4-.1-40.4l1-1.2c-1.2.3-.8.3-1.9.9L32 60.1c-3.6-3.5-6.6-9.5-6.6-18.6 0-7.3-.1-26.9-.1-39.7 0 0-1 .4-2.3 1.2l.3 140.5 5.2-8.5 4.6-7.1z"/><path d="M42.7 1.9c9.3 5.7 12.2 18 6.5 27.3L25.2 68v1.6c1.2-.5 2.4-.8 3.6-1.1l23.6-38.3c5.7-9.3 2.8-21.5-6.5-27.3C44.1 1.8 42.1 1 40.1.5c1 .4 1.8.9 2.6 1.4zm3.5 70.2c-1.8-1.1-3.8-1.9-5.8-2.4.8.4 1.7.8 2.5 1.3 9.3 5.7 12.2 18 6.5 27.3l-23.9 38.8v6.4l27.2-44.1c5.7-9.3 2.8-21.5-6.5-27.3zM25.7 254.4s5.6-1.8 10.7-9.3l23.7-32.9s-.7 4.7-2.3 7.2c-1.5 2.5-32.1 52.1-32.1 52.1v-17.1z" fill="#EFB481"/><path d="M54.5 123.8c7.7 4.8 11.4 15.3 7.5 23.3-1.4 2.7-2.1 3.6-3.4 5.7l-18 29c1.2-1.6 3.7-3.2 6.4-3.8l14.9-24.1c1.2-2 2-2.9 3.4-5.7 3.9-8 .2-18.5-7.5-23.3-1.7-1-3.5-1.8-5.4-2.2.7.3 1.4.7 2.1 1.1zm-25.6 70.1c-4.4 2.8-10.8 2-12.9 1.6 1.9.8 5.2 2.4 9.6 1.3l3.3-2.9zm-6.5 59.5c-3 1-6.2 1.2-9.3.5 3 1.3 6.2 1.7 9.3 1.3v-1.8zm39.4-73.8c-1.7-1.1-3.6-1.8-5.5-2.2.8.3 1.5.7 2.2 1.1 8.2 5.1 10.8 15.9 5.7 24.1l-38.6 62.5v6.4l41.8-67.8c5.2-8.2 2.7-19-5.6-24.1z" fill="#EFB481"/><path d="M14.9 212.5l-12.3 19c-5.1 8.2-2.5 19.1 5.7 24.1 2.1 1.3 4.4 2.1 6.7 2.4l-.1-45.5zm-3.7-15.3c1.2.7 2.5 1.3 3.7 1.7l-.1-40.2L5.4 173c-5 8.3-2.5 19.1 5.8 24.2z" fill="#BFBFBA"/><path fill="#F4C9A1" d="M61.8 179.6c-4.6-2.8-10-3.3-14.8-1.7l14.9-24.1c1.2-2 2-2.9 3.4-5.7 3.9-8 .2-18.5-7.5-23.3-8.2-5-19.2-2.5-24.3 5.6 0 0-1.9 3.1-2.8 4.6l-5.2 8.2-17.5 27c-5.1 8.2-2.5 19.1 5.7 24.1 3.7 2.3 7.9 3 11.9 2.4v.4L5.1 228.6c-5.1 8.2-2.5 19.1 5.7 24.1 4.6 2.9 10.1 3.3 14.8 1.7v17.1l41.8-67.8c5.2-8.2 2.7-19-5.6-24.1z"/></svg>