<svg version="1" xmlns="http://www.w3.org/2000/svg" width="274.9" height="103.3" viewBox="0 0 274.9 103.3"><path fill="#E6B923" d="M272.7 11.8c-6.2-9.4-23.8-16.2-31.5-8.4-.9.9-1.6 1.8-2.3 2.7 2.3.5 4.2 1.6 5.3 3.9 1.2 2.5 1.4 9.2-.8 12.9.7.8 1.3 1.7 1.7 2.6.8 1.7 1.7 4 1.8 6.3 1.7.9 3.6 1.7 4.7 2 2.9.7 6.1.6 8.9.3 3.6-.4 6.9-1.9 9.5-4.3 4.7-4.2 6.9-11.6 2.7-18z"/><path fill="#61B9DF" d="M232 23.1c1.5-1.1 3.3-1.9 5.1-2.2-2.3-5.4-1.3-10.4 1.8-14.8-2.6-.5-5.5-.2-7.8.3-5.1 1.2-6.4 3.6-6.3 8.6.1 3.9 2 7.8 5.2 9.9.6-.6 1.2-1.3 2-1.8z"/><path fill="#DEBA29" d="M237.1 20.9c1.6-.2 3.2-.1 4.6.7.6.3 1.2.8 1.7 1.3 2.2-3.7 2-10.4.8-12.9-1.1-2.3-3.1-3.4-5.3-3.9-3.1 4.4-4.1 9.5-1.8 14.8z"/><path fill="#658439" d="M237.1 20.9c1.6-.2 3.2-.1 4.6.7.6.3 1.2.8 1.7 1.3 2.2-3.7 2-10.4.8-12.9-1.1-2.3-3.1-3.4-5.3-3.9-3.1 4.4-4.1 9.5-1.8 14.8z"/><path fill="#E8138B" d="M239.9 25.7c-1.6.7-2.6.7-4.2.8-2.2.2-4.1-.4-5.8-1.5-2.4 2.8-3.7 6.8-2.9 10.3 1.6-.1 3.3.3 4 1.8.4.7.6 2.3.3 3.7 4.7 2.6 9.2 1.5 14-4.3 1.2-1.4 1.6-3 1.5-4.7-1.6-.9-3.2-1.9-4-2.8-1-1.1-2-2.2-2.9-3.3z"/><path fill="#DEBA29" d="M243.4 22.9c-.5.8-1 1.4-1.7 1.8-.7.4-1.3.7-1.8.9.9 1.1 1.9 2.3 3.1 3.4.8.9 2.3 1.9 4 2.8-.1-2.3-1-4.6-1.8-6.3-.5-.9-1.1-1.8-1.8-2.6z"/><path fill="#C02629" d="M243.4 22.9c-.5.8-1 1.4-1.7 1.8-.7.4-1.3.7-1.8.9.9 1.1 1.9 2.3 3.1 3.4.8.9 2.3 1.9 4 2.8-.1-2.3-1-4.6-1.8-6.3-.5-.9-1.1-1.8-1.8-2.6z"/><path fill="#61B8DF" d="M235.7 26.5c1.6-.2 2.5-.1 4.2-.8-1.2-1.6-2.1-3.2-2.8-4.7-1.9.3-3.7 1.1-5.1 2.2-.7.5-1.4 1.2-2 1.9 1.6 1 3.6 1.6 5.7 1.4z"/><path fill="#6E2A77" d="M235.7 26.5c1.6-.2 2.5-.1 4.2-.8-1.2-1.6-2.1-3.2-2.8-4.7-1.9.3-3.7 1.1-5.1 2.2-.7.5-1.4 1.2-2 1.9 1.6 1 3.6 1.6 5.7 1.4z"/><path fill="#DEBA29" d="M241.8 21.6c-1.5-.8-3.1-.9-4.6-.7.7 1.5 1.6 3.1 2.8 4.7.5-.2 1.1-.5 1.8-.9s1.2-1.1 1.7-1.8c-.6-.5-1.1-.9-1.7-1.3z"/><path fill="#61B8DF" d="M241.8 21.6c-1.5-.8-3.1-.9-4.6-.7.7 1.5 1.6 3.1 2.8 4.7.5-.2 1.1-.5 1.8-.9s1.2-1.1 1.7-1.8c-.6-.5-1.1-.9-1.7-1.3z"/><path fill="#69262E" d="M241.8 21.6c-1.5-.8-3.1-.9-4.6-.7.7 1.5 1.6 3.1 2.8 4.7.5-.2 1.1-.5 1.8-.9s1.2-1.1 1.7-1.8c-.6-.5-1.1-.9-1.7-1.3z"/><path fill="#EE8127" d="M227.1 35.3s-.1 0 0 0c-.6 0-1.2.1-1.7.2-2.2.5-2.8 1.6-2.8 3.8.1 2.6 2 5.2 4.8 5 .9-.1 2-.2 2.6-.8 1-.8 1.3-1.4 1.4-2.7l-.6-.3c-2-1.3-3.2-3.2-3.7-5.2z"/><path fill="#E8168B" d="M231.1 37.1c-.7-1.5-2.4-1.9-4-1.8.5 2 1.7 3.9 3.8 5.2l.6.3c.2-1.4 0-3-.4-3.7z"/><path fill="#EF8029" d="M231.1 37.1c-.7-1.5-2.4-1.9-4-1.8.5 2 1.7 3.9 3.8 5.2l.6.3c.2-1.4 0-3-.4-3.7z"/><path fill="#CF1F42" d="M231.2 37.1c-.7-1.6-2.5-1.9-4.1-1.8.5 2 1.7 3.9 3.8 5.2l.6.3c.2-1.4 0-3-.3-3.7"/><path fill="#FFF" d="M258.6 52.8c-2.8-.8-6.3-1.2-7.9-1.2-10.7 0-16.2 6.9-16.2 18.3 0 9.3 3.8 15.5 11.7 15.5 5.3 0 8.2-2.8 10-6v3.1c0 1.5 1.1 2.7 2.6 2.7 1.6 0 2.6-1.2 2.6-2.7V57c-.1-2.3-.4-3.5-2.8-4.2zm-2.7 17.3c0 4.3-3 11.2-9.6 11.2-5 0-6.6-5.8-6.6-11.2 0-8 2.6-14.1 10-14.1 2.4 0 4.9.5 6.1 1v13.1zm-33.3-15.5c0-1.6 1.2-2.8 2.7-2.8 1.6 0 2.7 1.2 2.7 2.8v27.8c0 1.5-1.2 2.7-2.7 2.7-1.5 0-2.7-1.2-2.7-2.7V54.6zm-9 24.7c.8-.4 1.7-.9 2.6-.9 1.1 0 2 .7 2 2.1 0 .8-.4 1.5-1.2 2.1-2.2 1.5-5.8 2.9-9.9 2.9-9.2 0-14.1-5.9-14.1-16.9 0-13.1 8-16.9 14.1-16.9 3.4 0 6.8.8 10 3.4.6.4.9 1.2.9 1.9 0 1.3-.9 2.4-2.2 2.4-.7 0-1.6-.4-2.1-.9-2.1-1.8-3.9-2.3-6.5-2.3-5 0-8.7 3.8-8.7 12.2 0 7.4 2.6 12.6 9.2 12.6 1.8-.1 3.7-.5 5.9-1.7m-38.8-27.7c-6.4 0-14.7 3.3-14.7 16.7 0 11.6 5.4 17.1 13.6 17.1 8.1 0 14.7-5.2 14.7-17.8 0-14.6-9.1-16-13.6-16zm-.6 29.6c-7.1 0-8.7-7.3-8.7-13.5 0-6.8 3.1-11.7 8.9-11.7 6 0 8.5 5.2 8.5 12.7 0 6.8-2.9 12.5-8.7 12.5zm-38.6-2.6c.7 0 1.2.3 1.6.5 1.9 1.1 4.2 2.1 7.3 2.1 3.4 0 6.1-1.6 6.1-5.2s-3.3-4.7-6.9-5.9c-4.4-1.4-9.2-3.1-9.2-9.1 0-6.5 5.2-9.4 10.8-9.4 3.6 0 6.4.9 8.5 2.3.6.3 1.4 1.1 1.4 2.1 0 1.2-.8 2.2-2.1 2.2-.6 0-1.3-.3-1.8-.7-1.8-1.1-3.9-1.6-6.2-1.6-2.6 0-5.6 1-5.6 4.6 0 3.3 3.4 4.5 6.8 5.6 4.3 1.4 9.3 3.6 9.3 9.6 0 6.4-4.5 9.7-11.1 9.7-4.7 0-7.5-1.3-9.6-2.4-.8-.4-1.5-1.1-1.5-2.1.2-1.3 1-2.3 2.2-2.3M90.3 64.1c0-4.4-1.5-8.1-6.6-8.1-4.7 0-8.4 4.8-8.4 10.4v16c0 1.5-1.2 2.7-2.7 2.7-1.5 0-2.7-1.2-2.7-2.7V54.6c0-1.6 1.1-2.8 2.6-2.8 1.6 0 2.6 1.2 2.6 2.8v2.2c2.3-3.8 5.8-5.2 9.6-5.2 6.9 0 11.1 3.7 11.1 11.2v19.7c0 1.5-1.2 2.7-2.7 2.7-1.5 0-2.7-1.2-2.7-2.7V64.1zM45.2 53.5c.4-1 1.3-1.7 2.4-1.7 1.9 0 3.2 1.5 2.4 3.6L39.9 82.9c-.4 1.2-1.1 2.2-2.4 2.2-1.3 0-1.8-.9-2.3-2.2L25.1 55.7c-.8-2.1.2-3.8 2.3-3.8 1.2 0 2.1.7 2.4 1.7l7.7 21 7.7-21.1zM0 41.4c0-1.6 1.2-2.8 2.7-2.8 1.6 0 2.7 1.2 2.7 2.8v41.4c0 1.5-1.2 2.7-2.7 2.7-1.5 0-2.7-1.2-2.7-2.7V41.4zm269.5 0c0-1.6 1.2-2.8 2.7-2.8 1.6 0 2.7 1.2 2.7 2.8v41.4c0 1.5-1.2 2.7-2.7 2.7-1.5 0-2.7-1.2-2.7-2.7V41.4zM125.1 52.6c-2.5-.6-5-1.1-7.3-1.1-8.1 0-15.4 5.6-15.4 16.2 0 11.4 4.9 15.5 10.7 16.1l-1.2.8c-3.4 2.3-7.1 4.9-7.1 9.9 0 5.2 3.5 8.9 10.2 8.9 12.8 0 13.3-12 13.3-19V57.1c.1-3.5-.9-4-3.2-4.5zm-1.7 34.2c0 7.2-1.7 12.6-7.8 12.6-3.3 0-5.7-1.5-5.7-4.9 0-2.9 3-5.5 6.3-8.3l7.2-6.2v6.8zm0-16.6c0 4.9-3.1 9.9-7.6 9.9-7.8 0-8.1-7.8-8.1-11.8 0-8.1 3.8-12.3 9.4-12.3 2.9 0 4.6.4 6.3.9v13.3zM56.3 54.5c0-1.6 1.2-2.8 2.7-2.8 1.6 0 2.7 1.2 2.7 2.8v27.8c0 1.5-1.2 2.7-2.7 2.7-1.5 0-2.7-1.2-2.7-2.7V54.5zm-41.9 0c0-1.6 1.2-2.8 2.7-2.8 1.6 0 2.7 1.2 2.7 2.8v27.8c0 1.5-1.2 2.7-2.7 2.7-1.5 0-2.7-1.2-2.7-2.7V54.5z"/></svg>