<svg width="407" height="121" viewBox="0 0 407 121" xmlns="http://www.w3.org/2000/svg" xmlns:xlink="http://www.w3.org/1999/xlink"><title>Imported Layers + Imported Layers + Imported Layers + Imported Layers</title><defs><path id="a" d="M22.754 3.086l.05 56.51-.062.127c-1.563 3.293-2.975.486-3.204-.013L18.93 3.07s-.19-2.06-.926-2.062c-.637-.004-.84 2.055-.84 2.055l-1.65 56.956c-1.494 2.77-2.817.143-3.036-.34l-.61-56.638S11.75.982 10.993.98c-.64-.003-.893 2.054-.893 2.054L8.473 59.516l-.074.147c-1.623 3.423-3.083.258-3.223-.058l.513-56.588S5.598.957 4.815.954C4.03.95 3.63 3.01 3.63 3.01S.494 50.215.45 60.807C.408 71.4 9.783 80.852 9.783 80.852L6.89 213.027s1.746 4.422 6.453 4.44c4.71.02 6.492-4.386 6.492-4.386L18.02 80.888s9.454-9.377 9.5-19.97c.04-10.59-2.707-57.823-2.707-57.823s-.188-2.06-.973-2.063c-1.178-.003-1.086 2.056-1.086 2.056"/><path id="c" d="M13.757 2.868C5.087 10.415-2.69 85.008 2.66 104.85c0 0 12.454 2.918 12.423 14.092l-1.91 98.666s1.756 4.417 6.462 4.43c4.707.014 6.485-4.394 6.485-4.394l-1.34-105.65 1.23-106.93S22.43-4.677 13.756 2.87"/><path id="e" d="M43.778 127.78l-29.484 3.132L.72 3.142 30.204.01l13.574 127.77"/></defs><g fill="none" fill-rule="evenodd"><g id="Imported-Layers"><path d="M7.28 11.702c-.786-.002-1.185 2.055-1.185 2.055s-3.136 47.21-3.18 57.8C2.872 82.15 12.25 91.602 12.25 91.602L9.354 223.777s1.745 4.42 6.454 4.44h.03c4.685 0 6.46-4.388 6.46-4.388L20.487 91.634s9.453-9.376 9.496-19.967c.042-10.592-2.705-57.824-2.705-57.824s-.19-2.06-.972-2.063H26.3c-1.17 0-1.083 2.056-1.083 2.056l.05 56.51-.06.125c-.56 1.18-1.1 1.578-1.575 1.578-.848 0-1.483-1.27-1.63-1.59l-.608-56.64s-.19-2.058-.924-2.062c-.637-.002-.843 2.057-.843 2.057L17.98 70.77c-.5.927-.982 1.25-1.41 1.25-.847 0-1.48-1.27-1.627-1.59l-.612-56.64s-.113-2.06-.872-2.06c-.638-.005-.89 2.054-.89 2.054l-1.63 56.482-.074.147c-.56 1.18-1.1 1.577-1.575 1.577-.9 0-1.56-1.43-1.65-1.637l.514-56.59s-.09-2.058-.873-2.06" id="Fill-1" fill="#DEDEDE"/><path d="M24.073 13.703l.05 56.51-.06.126c-1.563 3.292-2.976.485-3.205-.013l-.61-56.64s-.188-2.06-.923-2.063c-.637-.003-.842 2.056-.842 2.056l-1.647 56.957c-1.496 2.77-2.818.142-3.037-.34l-.613-56.638s-.114-2.06-.873-2.064c-.638-.003-.892 2.055-.892 2.055l-1.63 56.483-.073.148c-1.624 3.422-3.086.258-3.225-.06l.514-56.587s-.09-2.06-.875-2.063c-.785-.003-1.185 2.055-1.185 2.055s-3.135 47.208-3.18 57.8c-.042 10.59 9.334 20.044 9.334 20.044L8.21 223.643s1.746 4.42 6.454 4.44c4.708.02 6.49-4.387 6.49-4.387L19.343 91.503s9.452-9.376 9.496-19.967c.044-10.592-2.705-57.825-2.705-57.825s-.188-2.06-.972-2.062c-1.176-.005-1.087 2.055-1.087 2.055" id="Fill-2" fill="#A7A9AC"/><g transform="translate(0 10)"><mask id="b" fill="#fff"><use xlink:href="#a"/></mask><path d="M27.56 87.17L.408 80.092V6.92L1.963.95H27.56v86.22" id="Fill-3" fill="#CBDADF" mask="url(#b)"/><path d="M27.56 88.19L.408 81.114v-1.02l27.154 7.075v1.02" id="Fill-5" fill="#CBDADF" mask="url(#b)"/><path d="M27.56 89.21L.408 82.134v-1.02L27.56 88.19v1.02" id="Fill-6" fill="#CCDBE0" mask="url(#b)"/><path d="M27.56 90.23L.408 83.154v-1.02L27.56 89.21v1.02" id="Fill-7" fill="#CCDCE1" mask="url(#b)"/><path d="M27.56 91.25L.408 84.174v-1.02L27.56 90.23v1.02" id="Fill-8" fill="#CDDDE2" mask="url(#b)"/><path d="M27.56 92.27L.408 85.196v-1.02L27.56 91.25v1.02" id="Fill-9" fill="#CEDEE3" mask="url(#b)"/><path d="M27.56 93.29L.408 86.216v-1.02L27.56 92.27v1.02" id="Fill-10" fill="#CFDFE4" mask="url(#b)"/><path d="M27.56 94.31L.408 87.236v-1.02L27.56 93.29v1.02" id="Fill-11" fill="#CFE0E5" mask="url(#b)"/><path d="M27.56 95.33L.408 88.256v-1.02L27.56 94.31v1.02" id="Fill-12" fill="#D0E1E6" mask="url(#b)"/><path d="M27.56 96.352L.408 89.276v-1.02L27.56 95.33v1.022" id="Fill-13" fill="#D1E1E7" mask="url(#b)"/><path d="M27.56 97.372L.408 90.296v-1.02l27.154 7.076v1.02" id="Fill-14" fill="#D2E2E8" mask="url(#b)"/><path d="M27.56 98.392L.408 91.316v-1.02l27.154 7.076v1.02" id="Fill-15" fill="#D2E3E9" mask="url(#b)"/><path d="M27.56 99.412L.408 92.336v-1.02l27.154 7.076v1.02" id="Fill-16" fill="#D3E4EB" mask="url(#b)"/><path d="M27.56 100.432L.408 93.356v-1.02l27.154 7.076v1.02" id="Fill-17" fill="#D4E5EC" mask="url(#b)"/><path d="M27.56 101.452L.408 94.376v-1.02l27.154 7.076v1.02" id="Fill-18" fill="#D4E6EC" mask="url(#b)"/><path d="M27.56 102.473L.408 95.397v-1.02l27.154 7.075v1.02" id="Fill-19" fill="#D5E7ED" mask="url(#b)"/><path d="M27.56 103.493L.408 96.417v-1.02l27.154 7.076v1.02" id="Fill-20" fill="#D6E8EF" mask="url(#b)"/><path d="M27.56 104.513L.408 97.437v-1.02l27.154 7.076v1.02" id="Fill-21" fill="#D7E9F0" mask="url(#b)"/><path d="M27.56 105.533L.408 98.457v-1.02l27.154 7.076v1.02" id="Fill-22" fill="#D7EBF1" mask="url(#b)"/><path d="M27.56 106.554L.408 99.478v-1.02l27.154 7.075v1.02" id="Fill-23" fill="#D8ECF2" mask="url(#b)"/><path d="M27.56 107.574L.408 100.498v-1.02l27.154 7.076v1.02" id="Fill-24" fill="#D9ECF3" mask="url(#b)"/><path d="M27.56 108.594L.408 101.518v-1.02l27.154 7.076v1.02" id="Fill-25" fill="#D9EDF4" mask="url(#b)"/><path d="M27.56 109.614L.408 102.538v-1.02l27.154 7.076v1.02" id="Fill-26" fill="#DAEEF6" mask="url(#b)"/><path d="M27.56 110.634L.408 103.56v-1.022l27.154 7.076v1.02" id="Fill-27" fill="#DBEEF7" mask="url(#b)"/><path d="M27.56 111.655L.408 104.58v-1.02l27.154 7.074v1.02" id="Fill-28" fill="#DCEFF8" mask="url(#b)"/><path d="M27.56 112.675L.408 105.6v-1.02l27.154 7.075v1.02" id="Fill-29" fill="#DCF0F9" mask="url(#b)"/><path d="M27.56 113.695L.408 106.62v-1.02l27.154 7.075v1.02" id="Fill-30" fill="#DDF1F9" mask="url(#b)"/><path d="M27.56 114.715L.408 107.64v-1.02l27.154 7.075v1.02" id="Fill-31" fill="#DEF2FA" mask="url(#b)"/><path d="M27.56 115.736L.408 108.66v-1.02l27.154 7.075v1.02" id="Fill-32" fill="#DFF3FB" mask="url(#b)"/><path d="M27.56 116.756L.408 109.68v-1.02l27.154 7.076v1.02" id="Fill-33" fill="#DFF4FC" mask="url(#b)"/><path d="M27.56 117.776L.408 110.7v-1.02l27.154 7.076v1.02" id="Fill-34" fill="#E0F6FD" mask="url(#b)"/><path d="M27.56 191.362l-6.807 26.126H.407V110.7l27.154 7.076v73.586" id="Fill-35" fill="#E0F6FD" mask="url(#b)"/></g></g><g id="Imported-Layers"><path d="M392.67 11.005c-8.673 7.544-16.45 82.14-11.098 101.98 0 0 12.455 2.92 12.422 14.094l-1.907 98.664s1.753 4.418 6.46 4.43c4.706.015 6.484-4.393 6.484-4.393l-1.336-105.652L404.92 13.2s-3.578-9.74-12.25-2.195" id="Fill-1" fill="#A7A9AC"/><path d="M382.788 113.352c.067.284.136.56.208.825 0 0 3.533.83 6.832 3.292-2.468-2.32-5.42-3.564-7.04-4.118m20.218-103.206c1.31 1.413 1.913 3.055 1.913 3.055l-1.226 106.928 1.337 105.653s-1.77 4.396-6.462 4.396h-.02c-1.46-.005-2.637-.433-3.565-1.02 1.027 1.102 2.64 2.205 4.99 2.212h.02c4.69 0 6.464-4.395 6.464-4.395l-1.34-105.653 1.228-106.926s-1.034-2.817-3.34-4.248" id="Fill-2" fill="#DEDEDE"/><path d="M400.2 9.332c-1.66 0-3.684.76-6.105 2.865-8.556 7.444-16.24 80.158-11.307 101.155 1.62.554 4.572 1.797 7.04 4.117 2.894 2.16 5.606 5.58 5.592 10.8l-1.91 98.667s.44 1.11 1.473 2.218c.928.588 2.104 1.016 3.564 1.02h.02c4.692 0 6.464-4.394 6.464-4.394l-1.336-105.652L404.92 13.2s-.603-1.64-1.914-3.054c-.785-.487-1.717-.814-2.806-.814" id="Fill-3" fill="#939497"/><g transform="translate(378 7)"><mask id="d" fill="#fff"><use xlink:href="#c"/></mask><path d="M-2.692 107.945l28.81 14.845v99.263H-2.69V107.945" id="Fill-4" fill="#CBDADF" mask="url(#d)"/><path d="M-2.692 106.675l28.81 14.844v1.27l-28.81-14.845v-1.27" id="Fill-6" fill="#CBDADF" mask="url(#d)"/><path d="M-2.692 105.404l28.81 14.844v1.27l-28.81-14.843v-1.27" id="Fill-7" fill="#CCDBE0" mask="url(#d)"/><path d="M-2.692 104.133l28.81 14.845v1.27l-28.81-14.844v-1.27" id="Fill-8" fill="#CCDCE1" mask="url(#d)"/><path d="M-2.692 102.862l28.81 14.845v1.27l-28.81-14.844v-1.27" id="Fill-9" fill="#CDDDE2" mask="url(#d)"/><path d="M-2.692 101.59l28.81 14.846v1.27l-28.81-14.844v-1.27" id="Fill-10" fill="#CEDEE3" mask="url(#d)"/><path d="M-2.692 100.32l28.81 14.846v1.27L-2.69 101.59v-1.27" id="Fill-11" fill="#CFDFE4" mask="url(#d)"/><path d="M-2.692 99.05l28.81 14.845v1.27l-28.81-14.844v-1.27" id="Fill-12" fill="#CFE0E5" mask="url(#d)"/><path d="M-2.692 97.78l28.81 14.844v1.27L-2.69 99.05v-1.27" id="Fill-13" fill="#D0E1E6" mask="url(#d)"/><path d="M-2.692 96.51l28.81 14.843v1.27L-2.69 97.78v-1.27" id="Fill-14" fill="#D1E1E7" mask="url(#d)"/><path d="M-2.692 95.238l28.81 14.845v1.27L-2.69 96.51v-1.272" id="Fill-15" fill="#D2E2E8" mask="url(#d)"/><path d="M-2.692 93.967l28.81 14.845v1.27L-2.69 95.24v-1.27" id="Fill-16" fill="#D2E3E9" mask="url(#d)"/><path d="M-2.692 92.696l28.81 14.845v1.272L-2.69 93.967v-1.27" id="Fill-17" fill="#D3E4EB" mask="url(#d)"/><path d="M-2.692 91.425l28.81 14.845v1.27L-2.69 92.697v-1.27" id="Fill-18" fill="#D4E5EC" mask="url(#d)"/><path d="M-2.692 90.155L26.118 105v1.27L-2.69 91.425v-1.27" id="Fill-19" fill="#D4E6EC" mask="url(#d)"/><path d="M-2.692 88.884l28.81 14.845V105L-2.69 90.155v-1.27" id="Fill-20" fill="#D5E7ED" mask="url(#d)"/><path d="M-2.692 87.613l28.81 14.845v1.27L-2.69 88.885v-1.27" fill="#D6E8EF" mask="url(#d)"/><path d="M-2.692 86.343l28.81 14.844v1.27L-2.69 87.614v-1.27" fill="#D7E9F0" mask="url(#d)"/><path d="M-2.692 85.072l28.81 14.845v1.27L-2.69 86.343v-1.27" fill="#D7EBF1" mask="url(#d)"/><path d="M-2.692 83.8l28.81 14.846v1.27L-2.69 85.073v-1.27" fill="#D8ECF2" mask="url(#d)"/><path d="M-2.692 82.53l28.81 14.845v1.27L-2.69 83.802v-1.27" fill="#D9ECF3" mask="url(#d)"/><path d="M-2.692 81.26l28.81 14.844v1.27L-2.69 82.53v-1.27" fill="#D9EDF4" mask="url(#d)"/><path d="M-2.692 79.99l28.81 14.844v1.27L-2.69 81.26v-1.27" fill="#DAEEF6" mask="url(#d)"/><path d="M-2.692 78.718l28.81 14.845v1.27L-2.69 79.99v-1.272" fill="#DBEEF7" mask="url(#d)"/><path d="M-2.692 77.447l28.81 14.845v1.27L-2.69 78.72v-1.27" fill="#DCEFF8" mask="url(#d)"/><path d="M-2.692 76.177l28.81 14.844v1.272L-2.69 77.447v-1.27" fill="#DCF0F9" mask="url(#d)"/><path d="M-2.692 74.906l28.81 14.845v1.27L-2.69 76.178v-1.27" id="Fill-31" fill="#DDF1F9" mask="url(#d)"/><path d="M-2.692 73.635l28.81 14.845v1.27L-2.69 74.907v-1.27" id="Fill-32" fill="#DEF2FA" mask="url(#d)"/><path d="M-2.692 72.364l28.81 14.845v1.27L-2.69 73.635v-1.27" fill="#DFF3FB" mask="url(#d)"/><path d="M-2.692 71.093l28.81 14.845v1.27L-2.69 72.365v-1.27" fill="#DFF4FC" mask="url(#d)"/><path d="M-2.692 69.823l28.81 14.844v1.27L-2.69 71.094v-1.27" fill="#E0F6FD" mask="url(#d)"/><path d="M-2.692 21.143L10.61-4.677h15.51v89.344L-2.693 69.823v-48.68" fill="#E0F6FD" mask="url(#d)"/></g></g><g id="Imported-Layers"><path d="M213.525 3.365c-73.12 0-132.39 59.272-132.39 132.39s59.27 132.392 132.39 132.392c73.12 0 132.392-59.274 132.392-132.392S286.645 3.365 213.525 3.365" fill="#D2D2D1"/><path d="M338.913 131.77c0 72.49-58.764 131.252-131.252 131.252-72.487 0-131.25-58.763-131.25-131.25C76.41 59.28 135.173.518 207.66.518c72.49 0 131.253 58.762 131.253 131.25" id="Fill-2" fill="#F2F2F2"/><path d="M311 131.77c0 56.706-45.97 102.676-102.675 102.676-56.706 0-102.674-45.97-102.674-102.675S151.62 29.096 208.326 29.096C265.03 29.095 311 75.065 311 131.77" id="Fill-3" fill="#E5E5E5"/></g><path d="M96.527 147.46c-.83-.056-1.457-.776-1.4-1.605l6.45-94.488c.056-.83.776-1.457 1.605-1.4l223.983 15.288c.83.057 1.458.777 1.4 1.606l-6.45 94.49c-.055.828-.775 1.456-1.603 1.4L96.527 147.46" fill="#F4FFCC"/><path d="M321.365 161.298c-.028.413-.39.728-.802.7l-223.985-15.29c-.413-.027-.728-.388-.7-.802l6.45-94.488c.028-.414.39-.728.803-.7l223.985 15.29c.413.027.728.388.7.802l-6.45 94.488" fill="#E8F2BD"/><path d="M104.624 140.07c-.413-.028-.728-.39-.7-.802l5.63-82.467c.027-.413.388-.728.8-.7L322.32 70.568c.412.03.728.39.7.803l-5.63 82.47c-.028.412-.39.727-.803.698L104.624 140.07" fill="#8EA848"/><path d="M105.427 139.37c-.414-.028-.728-.39-.7-.802l5.525-80.965c.03-.413.39-.728.803-.7l210.46 14.366c.415.027.73.388.7.8l-5.525 80.966c-.028.413-.39.728-.803.7l-210.46-14.366" fill="#AAC56A"/><path d="M115.113 136.648c-3.867-.263-6.815-3.643-6.55-7.51l4.107-60.17c.263-3.865 3.643-6.814 7.51-6.55l191.547 13.075c3.867.264 6.814 3.644 6.55 7.51l-4.106 60.17c-.263 3.866-3.642 6.815-7.51 6.55l-191.547-13.075" fill="#F4FFCC"/><path d="M115.164 135.897c-3.462-.236-6.087-3.245-5.85-6.708l4.107-60.17c.237-3.462 3.246-6.087 6.708-5.85l191.548 13.074c3.462.237 6.087 3.246 5.85 6.708l-4.107 60.17c-.237 3.462-3.246 6.087-6.708 5.85l-191.548-13.075" fill="#E8F2BD"/><path d="M178.988 102.965c-1.16 16.984 7.144 32.107 19.818 38.642l24.264 1.656c13.444-4.752 23.726-18.606 24.885-35.59 1.068-15.64-5.89-29.7-16.895-36.93l-30.316-2.07c-11.886 5.667-20.69 18.653-21.756 34.292" fill="#8EA848"/><path d="M180.526 103.07c-1.25 18.328 9.032 34.387 23.838 38.916l13.148.897c15.284-2.475 27.654-16.988 28.904-35.315 1.118-16.382-6.98-30.952-19.286-37.095l-22.456-1.532c-13.027 4.414-23.03 17.75-24.148 34.13" fill="#AAC56A"/><path d="M197.887 85.996c-.414 6.053 2.28 11.6 6.722 15.08-8.22 3.55-15.4 12.004-20.033 23.287 4.183 8.536 11.23 15.006 19.79 17.623l13.145.897c9.427-1.526 17.745-7.632 23.03-16.388-3.176-10.994-8.928-19.666-16.212-24.073 4.873-2.845 8.297-7.973 8.71-14.026.61-8.956-5.582-16.804-14.167-18.486l-4.44-.303c-8.733.5-15.936 7.434-16.546 16.39" fill="#8EA848"/><path d="M223.528 103.12c4.872-2.842 8.297-7.97 8.71-14.024.662-9.707-6.67-18.114-16.378-18.777-9.707-.663-18.114 6.67-18.776 16.376-.413 6.053 2.282 11.6 6.723 15.08-7.91 3.417-14.858 11.375-19.5 22.027 4.146 8.812 11.314 15.51 20.06 18.183l13.14.897c9.03-1.46 17.04-7.122 22.346-15.29-3.15-11.182-8.954-20.01-16.325-24.472" fill="#C5D882"/><path d="M146.854 88.816c-6.573-.448-12.265 4.516-12.713 11.088-.448 6.573 4.516 12.265 11.09 12.714 6.57.448 12.263-4.517 12.712-11.09.448-6.57-4.516-12.263-11.088-12.712zm-1.43 20.923c-4.98-.342-8.744-4.656-8.405-9.64.34-4.982 4.655-8.745 9.637-8.405 4.982.34 8.746 4.655 8.406 9.638-.34 4.982-4.655 8.746-9.638 8.406z" fill="#AAC56A"/><path d="M146.54 93.396c-4.042-.276-7.543 2.778-7.82 6.82-.275 4.044 2.78 7.545 6.822 7.82 4.043.277 7.544-2.777 7.82-6.82.276-4.042-2.778-7.544-6.82-7.82" fill="#AAC56A"/><path d="M145.117 114.27c-7.474-.51-13.14-7.005-12.63-14.478.51-7.473 7.006-13.137 14.48-12.627 7.472.51 13.136 7.004 12.627 14.477-.51 7.473-7.005 13.138-14.477 12.628zm1.812-26.565c-7.175-.49-13.41 4.95-13.9 12.124-.49 7.173 4.948 13.41 12.124 13.898 7.174.49 13.41-4.948 13.9-12.123.49-7.174-4.95-13.41-12.125-13.9zM280.026 103.795c-.304.36-.47.77-.5 1.228-.03.42.07.816.3 1.193.226.377.59.694 1.088.95l.28-4.102c-.476.127-.867.37-1.168.73M282.368 111.172l-.315 4.623c.6-.07 1.1-.312 1.502-.726.4-.414.622-.916.663-1.51.036-.53-.09-.996-.374-1.4-.287-.405-.78-.734-1.476-.988" fill="#AAC56A"/><path d="M293.62 111.91l2.62-2.64-2.806-2.442 1.318-3.478-3.556-1.09-.21-3.715-3.692.45-1.702-3.307-3.19 1.913-2.9-2.328-2.137 3.045-3.598-.947-.712 3.65-3.67.598.833 3.625-3.112 2.038 2.236 2.974-2.013 3.128 3.252 1.806-.567 3.676 3.705.327.977 3.59 3.518-1.208 2.353 2.882 2.722-2.535 3.322 1.674 1.456-3.423 3.716.18-.063-3.72 3.47-1.347-1.57-3.372zm-8.013 4.95c-.933.92-2.177 1.44-3.734 1.555l-.15 2.216-1.72-.116.148-2.157c-1.355-.26-2.43-.845-3.226-1.757-.796-.912-1.258-2.154-1.39-3.727l3.117-.12c.085.64.285 1.202.602 1.683.316.483.68.84 1.093 1.076l.34-4.968c-1.52-.548-2.61-1.295-3.272-2.242-.662-.946-.95-2.06-.862-3.34.09-1.295.573-2.356 1.45-3.182.88-.825 2.003-1.258 3.37-1.3l.08-1.173 1.72.117-.08 1.173c1.247.237 2.217.733 2.91 1.49.695.76 1.106 1.738 1.23 2.938l-3.026.186c-.118-.944-.55-1.61-1.293-1.993l-.315 4.635c1.86.643 3.108 1.397 3.74 2.263.63.864.904 1.937.817 3.217-.098 1.43-.613 2.607-1.545 3.527zM311.182 93.567c-.03.414-.39.728-.803.7l-55.244-3.77c-.413-.03-.728-.39-.7-.803l.01-.15c.028-.413.39-.728.803-.7l55.242 3.77c.413.03.728.39.7.803l-.01.15M311.43 89.935c-.03.413-.39.728-.803.7l-55.243-3.77c-.413-.03-.73-.39-.7-.803l.01-.15c.03-.413.39-.728.803-.7l55.243 3.77c.413.03.728.39.7.803l-.01.15M311.678 86.302c-.03.413-.39.728-.803.7l-55.243-3.77c-.414-.03-.728-.39-.7-.803l.01-.15c.028-.414.39-.73.803-.7l55.243 3.77c.413.028.728.39.7.802l-.01.15M173.287 119.158c-.028.413-.39.728-.802.7l-55.243-3.77c-.413-.03-.728-.39-.7-.804l.01-.15c.028-.413.39-.727.803-.7l55.243 3.772c.413.028.728.39.7.802l-.01.15M173.03 122.914c-.027.413-.39.728-.802.7l-55.243-3.77c-.412-.03-.728-.39-.7-.803l.01-.15c.03-.412.39-.727.803-.698l55.243 3.77c.414.028.73.39.7.803l-.01.15" fill="#AAC56A"/><path d="M292.992 71.58c-3.486-.238-6.388.67-6.587 3.585-.2 2.917 2.552 4.21 6.04 4.448 3.485.238 6.387-.67 6.587-3.586.198-2.917-2.553-4.21-6.04-4.447zm-.507 7.43c-.596-.042-.975-1.576-.85-3.427.127-1.852.712-3.32 1.308-3.28.595.04.975 1.575.85 3.427-.127 1.85-.712 3.32-1.308 3.28zM305.908 72.46c-3.486-.236-6.388.67-6.587 3.587-.198 2.917 2.554 4.21 6.04 4.447 3.486.238 6.388-.668 6.588-3.585.2-2.918-2.553-4.21-6.04-4.45zm-.507 7.43c-.595-.04-.975-1.574-.848-3.426.126-1.85.71-3.32 1.307-3.28.595.042.974 1.576.848 3.428-.125 1.85-.71 3.32-1.307 3.278z" fill="#667730"/><path d="M286.313 71.124l-.345 5.068s-.204 2.462 2.092 2.6l-.036.52-9.976-.682.035-.5s2.613-.074 2.74-1.934c.07-1.03.588-2.883-2.398-3.087l.033-.48s3.398.257 3.713-1.79l4.143.284M134.44 60.757c-3.488-.238-6.39.67-6.588 3.586-.2 2.917 2.552 4.21 6.04 4.447 3.485.238 6.387-.668 6.586-3.585.2-2.917-2.553-4.21-6.04-4.448zm-.508 7.43c-.596-.04-.976-1.575-.85-3.427.126-1.85.712-3.32 1.307-3.28.595.042.975 1.576.85 3.427-.127 1.852-.712 3.32-1.308 3.28zM147.355 61.64c-3.487-.24-6.388.668-6.587 3.584-.2 2.917 2.552 4.21 6.04 4.448 3.485.238 6.387-.67 6.586-3.586.2-2.916-2.552-4.21-6.04-4.447zm-.507 7.428c-.596-.04-.976-1.575-.85-3.426.127-1.852.712-3.32 1.307-3.28.596.04.977 1.575.85 3.427-.126 1.85-.712 3.32-1.307 3.278z" fill="#667730"/><path d="M127.76 60.3l-.345 5.07s-.204 2.462 2.09 2.6l-.034.52-9.975-.682.034-.5s2.613-.074 2.74-1.935c.07-1.03.588-2.883-2.398-3.087l.033-.48s3.397.258 3.712-1.787l4.143.28" fill="#667730"/><path d="M112.567 194.444c-.8.224-1.633-.244-1.856-1.044l-25.536-91.2c-.224-.8.244-1.633 1.045-1.857l216.19-60.535c.8-.224 1.63.245 1.855 1.044l25.537 91.2c.224.8-.245 1.634-1.044 1.858l-216.19 60.534" fill="#F4FFCC"/><path d="M329.077 132.256c.11.4-.124.817-.523.93l-216.19 60.533c-.4.11-.817-.124-.93-.523l-25.535-91.2c-.113-.4.122-.817.52-.93l216.192-60.534c.4-.112.816.124.928.523l25.537 91.2" fill="#E8F2BD"/><path d="M109.59 186.36c-.79.254-1.64-.184-1.893-.975L78.81 95.19c-.254-.79.183-1.64.974-1.894l213.806-68.48c.792-.252 1.64.185 1.895.976l28.888 90.195c.253.79-.185 1.64-.975 1.894L109.59 186.36" fill="#F4FFCC"/><path d="M323.656 116.217c.126.394-.094.82-.488.947l-213.807 68.48c-.393.125-.82-.094-.946-.49L79.526 94.96c-.126-.394.093-.82.488-.946l213.807-68.48c.395-.126.82.093.948.488l28.888 90.195" fill="#E8F2BD"/><path d="M114.387 176.503c-.394.126-.82-.093-.946-.487L88.23 97.296c-.126-.395.093-.82.487-.947l202.332-64.805c.395-.127.82.093.947.487l25.214 78.72c.125.395-.094.82-.488.947l-202.333 64.803" fill="#8EA848"/><path d="M114.875 175.556c-.395.126-.82-.093-.947-.487L89.175 97.782c-.127-.394.093-.82.487-.947L290.56 32.49c.395-.125.82.095.946.49l24.754 77.285c.127.394-.093.82-.487.947l-200.898 64.344" fill="#AAC56A"/><path d="M122.873 169.45c-3.692 1.183-7.68-.87-8.86-4.56l-18.396-57.436c-1.183-3.69.87-7.68 4.56-8.86L283.022 40.03c3.692-1.18 7.68.872 8.863 4.563l18.395 57.434c1.182 3.692-.87 7.68-4.562 8.862l-182.843 58.56" fill="#F4FFCC"/><path d="M122.643 168.734c-3.305 1.058-6.855-.77-7.914-4.075l-18.396-57.436c-1.06-3.305.77-6.855 4.074-7.913L283.25 40.75c3.306-1.058 6.857.77 7.915 4.075l18.396 57.435c1.06 3.305-.77 6.855-4.074 7.913l-182.843 58.564" fill="#E8F2BD"/><path d="M169.8 114.566c5.193 16.212 18.493 27.202 32.684 28.596l23.16-7.42c10.742-9.378 15.183-26.05 9.99-42.26-4.78-14.93-16.438-25.43-29.335-28.086l-28.94 9.268c-8.953 9.655-12.34 24.973-7.56 39.902" fill="#8EA848"/><path d="M171.27 114.096c5.603 17.495 21.088 28.623 36.52 27.366l12.55-4.02c13.29-7.942 19.428-25.996 13.825-43.49-5.008-15.64-17.912-26.19-31.617-27.355l-21.437 6.865c-10.476 8.91-14.85 24.996-9.84 40.634" fill="#AAC56A"/><path d="M181.1 91.82c1.85 5.777 6.403 9.937 11.815 11.53-6.327 6.335-9.88 16.843-10.02 29.04 7.037 6.388 15.977 9.8 24.898 9.07l12.547-4.017c8.197-4.9 13.674-13.644 15.353-23.733-7.01-9.045-15.557-14.98-23.953-16.388 3.478-4.442 4.766-10.472 2.917-16.25-2.74-8.55-11.392-13.557-19.992-11.95l-4.237 1.356c-7.933 3.69-12.067 12.792-9.328 21.34" fill="#8EA848"/><path d="M211.252 98.27c3.48-4.443 4.767-10.474 2.917-16.25-2.97-9.268-12.887-14.374-22.153-11.406-9.267 2.968-14.373 12.886-11.404 22.152 1.85 5.778 6.403 9.938 11.815 11.532-6.09 6.096-9.61 16.057-9.99 27.67 7.105 6.66 16.24 10.237 25.355 9.493l12.543-4.017c7.852-4.69 13.208-12.91 15.123-22.457-7.06-9.23-15.71-15.293-24.208-16.717" fill="#C5D882"/><path d="M134.713 113.28c-6.274 2.01-9.73 8.724-7.722 14.998 2.01 6.273 8.726 9.73 15 7.72 6.273-2.008 9.73-8.723 7.72-14.997-2.01-6.273-8.724-9.73-14.997-7.72zm6.397 19.97c-4.757 1.524-9.847-1.096-11.37-5.852-1.524-4.757 1.097-9.847 5.853-11.37 4.756-1.524 9.847 1.097 11.37 5.853 1.524 4.757-1.097 9.848-5.853 11.37z" fill="#AAC56A"/><path d="M136.113 117.652c-3.86 1.236-5.986 5.366-4.75 9.225 1.237 3.86 5.367 5.986 9.226 4.75 3.86-1.236 5.985-5.367 4.75-9.226-1.237-3.858-5.367-5.984-9.227-4.748" fill="#AAC56A"/><path d="M142.495 137.576c-7.134 2.285-14.796-1.66-17.08-8.793-2.285-7.133 1.66-14.795 8.793-17.08 7.133-2.285 14.795 1.66 17.08 8.793 2.285 7.133-1.66 14.795-8.793 17.08zm-8.122-25.357c-6.85 2.193-10.636 9.55-8.442 16.397 2.194 6.85 9.55 10.636 16.4 8.442 6.848-2.194 10.635-9.55 8.442-16.4-2.194-6.847-9.55-10.635-16.4-8.44zM264.008 78.037c-.15.447-.153.89-.013 1.326.128.4.368.733.72 1 .35.265.805.425 1.363.48l-1.253-3.916c-.397.293-.67.663-.817 1.11M268.908 84.028l1.414 4.413c.53-.285.908-.695 1.128-1.227.22-.533.24-1.082.06-1.648-.163-.505-.452-.893-.866-1.164-.416-.27-.994-.393-1.736-.372" fill="#AAC56A"/><path d="M279.638 80.56l1.46-3.42-3.51-1.234-.058-3.72-3.708.3-1.566-3.374-3.266 1.78-2.802-2.444-2.26 2.956-3.554-1.094-.86 3.62-3.694.447.686 3.655-3.193 1.91 2.114 3.062-2.14 3.043 3.176 1.937-.716 3.65 3.69.478.83 3.626 3.564-1.064 2.235 2.975 2.823-2.423 3.25 1.81 1.595-3.362 3.705.33.09-3.718 3.52-1.205-1.432-3.433 2.726-2.534-2.704-2.555zm-5.62 7.558c-.527 1.2-1.492 2.142-2.895 2.824l.677 2.116-1.64.526-.66-2.06c-1.356.26-2.572.112-3.647-.44-1.077-.555-1.965-1.54-2.667-2.952l2.85-1.263c.316.564.708 1.012 1.18 1.343.473.33.943.53 1.414.595l-1.52-4.74c-1.612.05-2.902-.242-3.866-.877-.965-.634-1.643-1.563-2.034-2.785-.397-1.237-.34-2.4.173-3.493.51-1.09 1.395-1.908 2.65-2.452l-.357-1.12 1.64-.526.36 1.12c1.244-.24 2.33-.137 3.255.31.926.45 1.67 1.208 2.227 2.276l-2.743 1.29c-.46-.834-1.105-1.292-1.938-1.375l1.417 4.425c1.967-.09 3.405.15 4.31.72.908.572 1.556 1.468 1.948 2.69.44 1.366.394 2.648-.133 3.848zM289.187 57.03c.126.395-.092.82-.488.947l-52.733 16.89c-.395.126-.82-.093-.947-.488l-.046-.144c-.126-.394.093-.82.488-.946l52.733-16.89c.394-.126.82.093.946.487l.047.143M288.076 53.563c.127.394-.092.82-.487.947L234.855 71.4c-.394.126-.82-.094-.947-.488l-.046-.143c-.126-.396.093-.82.487-.948l52.734-16.89c.395-.126.82.093.947.488l.046.143M286.966 50.095c.127.395-.093.82-.487.947l-52.734 16.89c-.395.126-.82-.094-.947-.488l-.047-.143c-.126-.393.093-.82.488-.945l52.734-16.89c.394-.126.82.093.946.488l.046.142M266.07 112.243l-26.475 8.48-.158-.49 26.476-8.48.158.49M266.588 113.86l-26.475 8.48-.158-.49 26.476-8.48.158.49M267.106 115.48l-26.475 8.48-.157-.49 26.477-8.48.156.49M267.625 117.097l-26.476 8.48-.16-.49 26.478-8.48.157.49M268.143 118.715l-26.477 8.48-.156-.49 26.476-8.48.157.49" fill="#AAC56A"/><path d="M284.097 105.54c-3.328 1.066-5.69 2.98-4.798 5.764.89 2.784 3.925 2.97 7.253 1.904 3.328-1.066 5.69-2.98 4.798-5.764-.89-2.785-3.926-2.97-7.253-1.904zm2.27 7.09c-.568.184-1.487-1.102-2.053-2.87-.566-1.767-.565-3.347.004-3.53.57-.18 1.488 1.104 2.054 2.872.566 1.767.564 3.348-.004 3.53zM296.426 101.59c-3.328 1.067-5.69 2.98-4.798 5.765.892 2.784 3.926 2.97 7.254 1.904 3.328-1.067 5.69-2.98 4.798-5.765-.892-2.785-3.927-2.97-7.254-1.904zm2.27 7.092c-.567.182-1.487-1.103-2.053-2.87-.566-1.768-.564-3.348.004-3.53.57-.182 1.488 1.103 2.055 2.87.565 1.768.564 3.35-.005 3.53z" fill="#667730"/><path d="M277.72 107.582l1.55 4.837s.72 2.363 2.905 1.645l.16.494-9.524 3.05-.152-.478s2.402-1.033 1.833-2.81c-.314-.984-.517-2.896-3.367-1.983l-.147-.46s3.253-1.015 2.79-3.032l3.955-1.266M264.165 43.31c-3.328 1.067-5.69 2.98-4.797 5.765.89 2.784 3.925 2.97 7.254 1.904 3.328-1.067 5.69-2.98 4.798-5.765-.892-2.784-3.926-2.97-7.255-1.904zm2.272 7.093c-.57.18-1.488-1.104-2.054-2.87-.567-1.77-.564-3.35.004-3.53.568-.184 1.488 1.102 2.055 2.87.566 1.767.564 3.347-.005 3.53zM276.495 39.362c-3.328 1.066-5.69 2.98-4.798 5.764.89 2.784 3.926 2.97 7.254 1.904 3.33-1.066 5.69-2.98 4.8-5.764-.893-2.784-3.927-2.97-7.255-1.904zm2.27 7.092c-.567.182-1.487-1.104-2.053-2.87-.566-1.768-.564-3.35.004-3.53.57-.183 1.488 1.102 2.055 2.87.567 1.767.565 3.348-.004 3.53z" fill="#667730"/><path d="M257.79 45.353l1.55 4.837s.72 2.364 2.904 1.646l.16.494-9.524 3.05-.153-.477s2.402-1.034 1.833-2.81c-.316-.984-.517-2.896-3.368-1.983l-.147-.458s3.253-1.015 2.79-3.033l3.955-1.267M112.816 91.785c-3.327 1.066-5.69 2.98-4.797 5.765.89 2.784 3.925 2.97 7.253 1.903 3.328-1.066 5.69-2.98 4.798-5.764-.89-2.785-3.925-2.97-7.254-1.905zm2.272 7.092c-.568.182-1.488-1.103-2.054-2.87-.566-1.768-.564-3.348.004-3.53.57-.183 1.488 1.103 2.054 2.87.567 1.767.565 3.348-.004 3.53zM125.146 87.837c-3.328 1.066-5.69 2.98-4.798 5.764.89 2.785 3.926 2.97 7.254 1.905 3.328-1.066 5.69-2.98 4.798-5.764-.89-2.784-3.926-2.97-7.254-1.903zm2.272 7.09c-.57.184-1.49-1.102-2.055-2.87-.566-1.767-.564-3.347.004-3.53.57-.182 1.488 1.104 2.055 2.87.566 1.77.564 3.35-.004 3.53z" fill="#667730"/><path d="M106.44 93.828l1.552 4.837s.72 2.364 2.903 1.645l.16.495-9.524 3.05-.152-.478s2.402-1.033 1.833-2.81c-.314-.984-.516-2.896-3.367-1.983l-.146-.458s3.252-1.015 2.79-3.032l3.954-1.266" fill="#667730"/><path d="M111.44 193.04c-.804.21-1.63-.27-1.842-1.073L85.408 100.4c-.213-.802.267-1.628 1.07-1.84l217.058-57.346c.804-.212 1.63.268 1.842 1.07l24.19 91.568c.213.803-.268 1.63-1.07 1.84l-217.06 57.347" fill="#F4FFCC"/><path d="M328.84 134.044c.107.4-.135.815-.535.92l-217.058 57.347c-.4.107-.815-.134-.92-.535l-24.192-91.567c-.106-.4.135-.814.535-.92l217.058-57.346c.4-.106.816.135.92.535l24.193 91.567" fill="#E8F2BD"/><path d="M95.474 168.367c-.83.002-1.506-.673-1.507-1.503l-.125-94.71c0-.83.674-1.506 1.505-1.507l224.505-.293c.83 0 1.507.674 1.51 1.505l.122 94.707c0 .83-.674 1.507-1.504 1.507l-224.506.293" fill="#F4FFCC"/><path d="M320.73 166.568c0 .414-.337.753-.75.754l-224.507.293c-.414 0-.754-.338-.754-.752l-.124-94.71c0-.413.338-.752.752-.753l224.505-.293c.414 0 .754.338.755.753l.123 94.708" fill="#E8F2BD"/><path d="M103.04 160.434c-.415 0-.755-.338-.755-.752l-.108-82.66c0-.414.338-.753.752-.754l212.455-.277c.415 0 .754.34.755.753l.107 82.66c0 .414-.338.753-.752.753l-212.456.278" fill="#8EA848"/><path d="M103.79 159.68c-.413 0-.753-.34-.753-.752l-.106-81.153c0-.415.34-.754.753-.754l210.95-.275c.414 0 .754.338.754.752l.106 81.154c0 .414-.338.754-.752.755l-210.95.274" fill="#AAC56A"/><path d="M99.105 165.767c-.83.017-1.52-.644-1.537-1.474L95.58 69.605c-.016-.83.644-1.52 1.475-1.537l224.456-4.71c.832-.017 1.522.644 1.54 1.474l1.985 94.687c.018.83-.643 1.52-1.473 1.537l-224.457 4.71" fill="#F4FFCC"/><path d="M324.283 159.536c.01.414-.323.76-.738.768l-224.456 4.71c-.415.01-.76-.323-.77-.738L96.334 69.59c-.01-.415.323-.76.737-.77l224.457-4.71c.414-.008.76.324.77.738l1.986 94.688" fill="#E8F2BD"/><path d="M106.512 157.685c-.414.01-.76-.323-.77-.736l-1.732-82.643c-.01-.414.322-.76.736-.77l212.41-4.455c.415-.01.76.323.77.737l1.733 82.64c.008.414-.324.76-.738.77l-212.41 4.455" fill="#8EA848"/><path d="M107.25 156.917c-.415.008-.76-.323-.77-.737l-1.703-81.136c-.008-.414.324-.76.738-.768L316.42 69.85c.413-.01.76.324.768.737l1.702 81.136c.01.414-.323.76-.737.77l-210.904 4.424" fill="#AAC56A"/><path d="M116.655 153.343c-3.875.082-7.112-3.022-7.193-6.897l-1.265-60.296c-.082-3.875 3.022-7.112 6.898-7.193l191.95-4.028c3.875-.082 7.112 3.022 7.193 6.897l1.265 60.295c.082 3.876-3.022 7.113-6.897 7.194l-191.95 4.027" fill="#F4FFCC"/><path d="M116.64 152.59c-3.47.073-6.353-2.69-6.426-6.16l-1.265-60.296c-.073-3.47 2.69-6.35 6.16-6.424l191.95-4.028c3.47-.072 6.352 2.69 6.425 6.16l1.265 60.297c.073 3.468-2.69 6.35-6.16 6.423l-191.95 4.028" fill="#E8F2BD"/><path d="M177.278 114.108c.357 17.02 9.974 31.343 23.18 36.724l24.314-.51c12.968-5.93 21.976-20.644 21.618-37.664-.328-15.672-8.51-29.06-20.115-35.28l-30.38.637c-11.333 6.703-18.946 20.42-18.617 36.093" fill="#8EA848"/><path d="M178.82 114.077c.385 18.365 12.056 33.445 27.207 36.638l13.175-.276c15.003-3.827 26.032-19.383 25.646-37.75-.344-16.416-9.706-30.207-22.51-35.23l-22.505.472c-12.582 5.555-21.358 19.727-21.013 36.145" fill="#AAC56A"/><path d="M194.59 95.525c.128 6.065 3.306 11.35 8.04 14.42-7.87 4.27-14.27 13.328-17.88 24.98 4.925 8.128 12.522 13.945 21.28 15.79l13.172-.276c9.254-2.36 16.996-9.183 21.48-18.375-4.142-10.668-10.643-18.793-18.29-22.535 4.6-3.266 7.554-8.68 7.426-14.745-.188-8.974-7.055-16.24-15.756-17.152l-4.448.094c-8.655 1.275-15.212 8.823-15.023 17.798" fill="#8EA848"/><path d="M221.655 110.3c4.6-3.267 7.553-8.68 7.427-14.746-.204-9.728-8.256-17.45-17.984-17.244-9.728.204-17.448 8.255-17.245 17.983.128 6.066 3.306 11.35 8.04 14.42-7.575 4.11-13.787 12.654-17.46 23.677 4.912 8.407 12.648 14.44 21.597 16.325l13.17-.276c8.86-2.26 16.337-8.61 20.894-17.22-4.135-10.857-10.7-19.134-18.44-22.92" fill="#C5D882"/><path d="M144.012 102.876c-6.587.138-11.814 5.59-11.676 12.176.14 6.586 5.59 11.813 12.176 11.675 6.586-.138 11.814-5.59 11.676-12.176-.14-6.585-5.59-11.812-12.176-11.674zm.44 20.966c-4.993.105-9.126-3.858-9.23-8.85-.106-4.994 3.857-9.127 8.85-9.232 4.993-.104 9.126 3.858 9.23 8.852.106 4.993-3.857 9.126-8.85 9.23z" fill="#AAC56A"/><path d="M144.108 107.465c-4.05.085-7.267 3.44-7.182 7.49.085 4.052 3.438 7.267 7.49 7.182 4.05-.085 7.267-3.438 7.182-7.49-.085-4.05-3.44-7.266-7.49-7.182" fill="#AAC56A"/><path d="M144.547 128.382c-7.49.158-13.71-5.807-13.866-13.295-.157-7.49 5.808-13.71 13.297-13.867 7.49-.157 13.71 5.808 13.866 13.296.157 7.49-5.807 13.71-13.296 13.866zm-.56-26.62c-7.188.152-12.915 6.123-12.764 13.313.15 7.19 6.123 12.916 13.313 12.765 7.19-.15 12.916-6.123 12.765-13.312-.15-7.19-6.122-12.917-13.312-12.766zM277.988 105.94c-.27.386-.4.81-.39 1.268.01.42.144.807.405 1.162.26.356.652.64 1.17.85l-.085-4.11c-.464.167-.83.444-1.1.83M280.978 113.08l.097 4.632c.592-.123 1.07-.408 1.433-.856.362-.447.537-.967.525-1.56-.01-.532-.178-.986-.497-1.364-.32-.377-.84-.66-1.558-.852" fill="#AAC56A"/><path d="M292.25 112.814l2.375-2.863-3.01-2.182 1.002-3.582-3.64-.77-.54-3.68-3.637.777-1.99-3.142-3.007 2.19-3.096-2.06-1.856 3.222-3.667-.623-.385 3.698-3.603.922 1.153 3.536-2.917 2.307 2.493 2.762-1.727 3.295 3.4 1.51-.238 3.71 3.72-.003 1.294 3.49 3.396-1.52 2.6 2.662 2.486-2.768 3.457 1.373 1.147-3.54 3.717-.15-.394-3.7 3.335-1.65-1.864-3.22zm-7.54 5.642c-.847 1-2.04 1.628-3.58 1.882l.047 2.22-1.722.038-.046-2.162c-1.374-.138-2.498-.625-3.37-1.463-.874-.837-1.446-2.032-1.716-3.588l3.093-.398c.14.632.39 1.173.748 1.625.357.45.752.775 1.184.972l-.105-4.977c-1.56-.41-2.714-1.058-3.458-1.942-.743-.884-1.128-1.967-1.155-3.25-.027-1.3.36-2.398 1.16-3.298.802-.9 1.882-1.433 3.24-1.596l-.024-1.177 1.723-.036.026 1.176c1.263.124 2.273.533 3.032 1.226.76.692 1.255 1.63 1.486 2.814l-2.997.455c-.202-.93-.69-1.555-1.466-1.87l.098 4.643c1.912.475 3.22 1.115 3.927 1.92.706.806 1.073 1.85 1.1 3.133.03 1.433-.378 2.65-1.225 3.65zM308.11 92.98c.01.414-.322.76-.737.77l-55.36 1.16c-.413.01-.76-.322-.768-.736l-.003-.15c-.01-.414.323-.76.737-.77l55.358-1.16c.415-.01.76.322.77.736l.002.15M308.034 89.34c.01.414-.323.76-.737.77l-55.36 1.16c-.413.01-.76-.323-.77-.737v-.15c-.01-.414.322-.76.736-.768l55.36-1.162c.413-.008.76.323.768.737l.004.15M307.958 85.7c.008.414-.323.76-.737.77l-55.36 1.16c-.413.01-.76-.323-.768-.737l-.003-.15c-.01-.414.322-.76.737-.768l55.36-1.162c.413-.01.76.323.767.737l.004.15" fill="#AAC56A"/><path d="M288.036 72.7c-3.493.073-6.303 1.234-6.242 4.157.06 2.923 2.917 3.965 6.41 3.892 3.495-.074 6.305-1.236 6.243-4.158-.062-2.923-2.917-3.966-6.41-3.893zm.157 7.444c-.598.013-1.113-1.48-1.152-3.337-.038-1.856.414-3.37 1.012-3.382.595-.013 1.112 1.48 1.15 3.337.04 1.855-.413 3.37-1.01 3.382zM300.98 72.428c-3.494.073-6.304 1.234-6.243 4.157.062 2.923 2.917 3.966 6.41 3.893 3.495-.074 6.305-1.235 6.243-4.158-.06-2.923-2.916-3.966-6.41-3.892zm.155 7.444c-.596.013-1.112-1.48-1.15-3.337-.04-1.855.413-3.37 1.01-3.382.596-.013 1.112 1.48 1.15 3.337.04 1.856-.412 3.37-1.01 3.382zM281.343 72.84l.107 5.078s.017 2.47 2.315 2.405l.01.52-9.996.21-.01-.502s2.595-.305 2.556-2.17c-.022-1.033.33-2.924-2.663-2.86l-.01-.482s3.407-.046 3.54-2.11l4.15-.088M129.15 76.033c-3.495.073-6.305 1.235-6.243 4.158.062 2.924 2.917 3.966 6.41 3.893 3.495-.074 6.304-1.235 6.243-4.158-.062-2.923-2.917-3.965-6.41-3.892zm.155 7.445c-.597.012-1.112-1.482-1.15-3.337-.04-1.855.412-3.37 1.01-3.38.596-.014 1.11 1.48 1.15 3.335.04 1.856-.413 3.37-1.01 3.383zM142.092 75.762c-3.494.073-6.303 1.234-6.242 4.157.062 2.922 2.917 3.965 6.41 3.89 3.495-.072 6.304-1.233 6.243-4.156-.06-2.923-2.917-3.966-6.41-3.892zm.156 7.444c-.596.013-1.112-1.48-1.15-3.337-.04-1.856.412-3.37 1.01-3.383.596-.013 1.112 1.48 1.15 3.337.04 1.856-.413 3.37-1.01 3.382zM122.456 76.174l.107 5.078s.016 2.47 2.314 2.405l.01.52-9.995.21-.01-.503s2.596-.305 2.557-2.17c-.023-1.034.328-2.924-2.665-2.86l-.01-.483s3.407-.044 3.54-2.11l4.15-.086" fill="#667730"/><path d="M90.365 180.59c-.83.016-1.52-.646-1.537-1.476l-1.945-94.69c-.017-.83.644-1.52 1.475-1.536l224.458-4.61c.83-.017 1.52.644 1.537 1.474l1.945 94.69c.017.83-.644 1.52-1.474 1.536l-224.46 4.61" fill="#F4FFCC"/><path d="M315.546 174.457c.01.413-.324.76-.738.768l-224.458 4.61c-.415.01-.76-.323-.768-.737L87.637 84.41c-.01-.414.323-.76.736-.768l224.46-4.61c.413-.01.76.322.768.736l1.946 94.69" fill="#E8F2BD"/><path d="M97.776 172.51c-.415.01-.76-.323-.77-.737L95.31 89.13c-.008-.413.323-.76.737-.767L308.46 84c.413-.01.76.323.768.737l1.698 82.642c.008.413-.324.758-.738.767L97.776 172.51" fill="#8EA848"/><path d="M98.513 171.742c-.414.008-.76-.323-.768-.737L96.078 89.87c-.01-.415.324-.76.738-.77l210.906-4.332c.414-.01.76.323.768.737l1.667 81.136c.008.415-.324.76-.738.77l-210.907 4.332" fill="#AAC56A"/><path d="M107.92 168.173c-3.874.08-7.11-3.026-7.19-6.9l-1.238-60.297c-.08-3.875 3.026-7.11 6.9-7.19l191.953-3.944c3.875-.08 7.11 3.026 7.19 6.902l1.24 60.295c.08 3.875-3.027 7.11-6.902 7.19l-191.953 3.943" fill="#F4FFCC"/><path d="M107.905 167.42c-3.47.07-6.35-2.694-6.422-6.164l-1.24-60.295c-.07-3.47 2.695-6.35 6.165-6.422l191.952-3.943c3.47-.07 6.35 2.694 6.422 6.164l1.24 60.295c.07 3.47-2.695 6.35-6.164 6.422l-191.953 3.943" fill="#E8F2BD"/><path d="M168.56 128.965c.35 17.02 9.96 31.347 23.164 36.733l24.315-.5c12.97-5.923 21.984-20.633 21.634-37.653-.322-15.673-8.497-29.063-20.1-35.29l-30.38.624c-11.336 6.697-18.955 20.41-18.633 36.085" fill="#8EA848"/><path d="M170.102 128.933c.378 18.366 12.043 33.45 27.192 36.65l13.175-.27c15.004-3.82 26.04-19.37 25.662-37.736-.338-16.417-9.694-30.213-22.495-35.24l-22.505.46c-12.585 5.55-21.366 19.72-21.03 36.136" fill="#AAC56A"/><path d="M185.882 110.388c.125 6.066 3.3 11.352 8.032 14.424-7.87 4.266-14.275 13.322-17.89 24.97 4.92 8.132 12.515 13.953 21.273 15.802l13.172-.27c9.254-2.357 16.998-9.175 21.487-18.365-4.137-10.67-10.635-18.8-18.28-22.544 4.602-3.264 7.558-8.676 7.433-14.74-.184-8.976-7.05-16.245-15.75-17.16l-4.447.09c-8.656 1.273-15.216 8.818-15.03 17.792" fill="#8EA848"/><path d="M212.94 125.175c4.6-3.264 7.557-8.677 7.433-14.742-.2-9.728-8.248-17.452-17.977-17.252-9.728.2-17.452 8.25-17.252 17.976.125 6.066 3.3 11.353 8.033 14.424-7.576 4.106-13.792 12.648-17.47 23.67 4.908 8.41 12.64 14.445 21.59 16.334l13.17-.27c8.862-2.256 16.34-8.604 20.9-17.21-4.128-10.86-10.69-19.14-18.427-22.93" fill="#C5D882"/><path d="M135.3 117.717c-6.587.136-11.816 5.585-11.68 12.17.134 6.587 5.583 11.817 12.17 11.682 6.586-.137 11.816-5.586 11.68-12.172-.135-6.586-5.584-11.816-12.17-11.68zm.43 20.967c-4.993.102-9.124-3.862-9.227-8.855-.102-4.995 3.863-9.125 8.856-9.228 4.992-.103 9.123 3.862 9.225 8.855.103 4.993-3.862 9.124-8.855 9.227z" fill="#AAC56A"/><path d="M135.824 143.224c-7.49.154-13.707-5.814-13.86-13.302-.155-7.49 5.813-13.706 13.3-13.86 7.49-.154 13.708 5.813 13.862 13.302.154 7.49-5.814 13.706-13.302 13.86zm-.547-26.62c-7.19.148-12.92 6.117-12.772 13.307.148 7.19 6.118 12.92 13.308 12.772 7.19-.148 12.92-6.117 12.77-13.307-.147-7.19-6.117-12.92-13.306-12.77zM269.274 120.84c-.27.387-.4.81-.39 1.27.01.418.144.806.405 1.16.26.356.65.64 1.17.85l-.085-4.11c-.464.168-.832.445-1.1.83" fill="#AAC56A"/><path d="M283.534 127.72l2.376-2.862-3.01-2.184 1.005-3.58-3.64-.772-.537-3.68-3.638.774-1.99-3.143-3.008 2.188-3.095-2.06-1.858 3.22-3.668-.624-.386 3.7-3.605.92 1.154 3.537-2.92 2.305 2.492 2.763-1.73 3.295 3.4 1.51-.238 3.713 3.72-.002 1.292 3.49 3.397-1.517 2.598 2.66 2.488-2.766 3.456 1.376 1.147-3.54 3.717-.15-.393-3.7 3.337-1.648-1.863-3.22zm-7.543 5.64c-.846 1-2.04 1.626-3.58 1.88l.046 2.22-1.722.037-.044-2.163c-1.374-.138-2.497-.626-3.37-1.463-.873-.837-1.445-2.033-1.714-3.59l3.094-.395c.14.63.388 1.173.746 1.624.358.452.753.776 1.185.974l-.102-4.978c-1.56-.412-2.713-1.06-3.456-1.944-.743-.883-1.128-1.967-1.154-3.25-.027-1.3.36-2.398 1.162-3.298.8-.9 1.882-1.43 3.242-1.594l-.025-1.176 1.723-.035.024 1.175c1.262.125 2.273.534 3.032 1.227.76.693 1.254 1.632 1.484 2.816l-2.997.454c-.202-.93-.69-1.555-1.465-1.872l.095 4.645c1.91.476 3.22 1.116 3.926 1.922.705.806 1.07 1.85 1.097 3.133.03 1.433-.378 2.65-1.226 3.65zM299.402 107.894c.01.414-.323.76-.737.768l-55.36 1.138c-.414.008-.76-.323-.768-.738l-.003-.15c-.01-.414.324-.76.737-.768l55.36-1.137c.415-.008.76.323.77.737l.002.15M299.328 104.254c.008.414-.324.76-.738.768l-55.36 1.137c-.413.008-.76-.324-.768-.738l-.003-.15c-.01-.414.323-.76.736-.768l55.36-1.137c.415-.01.76.323.77.737l.002.15M299.253 100.613c.01.415-.323.76-.737.77l-55.36 1.136c-.415.008-.76-.324-.77-.738l-.002-.15c-.008-.414.323-.76.738-.768l55.36-1.137c.414-.01.76.323.768.737l.003.15" fill="#AAC56A"/><path d="M279.337 87.604c-3.494.072-6.304 1.232-6.244 4.155.06 2.922 2.915 3.966 6.41 3.894 3.493-.072 6.303-1.232 6.243-4.154-.06-2.924-2.915-3.968-6.41-3.896zm.153 7.445c-.597.01-1.112-1.483-1.15-3.338-.038-1.856.415-3.37 1.012-3.382.597-.013 1.11 1.482 1.15 3.337.038 1.855-.415 3.37-1.012 3.382zM292.28 87.338c-3.493.072-6.303 1.232-6.243 4.155.06 2.923 2.915 3.967 6.41 3.895 3.493-.072 6.303-1.232 6.242-4.155-.06-2.923-2.915-3.967-6.41-3.895zm.153 7.445c-.596.012-1.11-1.482-1.15-3.338-.037-1.855.415-3.37 1.013-3.38.596-.014 1.11 1.48 1.15 3.336.037 1.857-.416 3.37-1.013 3.383zM272.644 87.742l.105 5.078s.014 2.47 2.313 2.406l.01.52-9.996.205-.01-.5s2.596-.305 2.558-2.17c-.022-1.034.33-2.924-2.662-2.862l-.01-.482s3.407-.044 3.54-2.11l4.15-.084M120.45 90.868c-3.495.072-6.305 1.232-6.245 4.155.06 2.923 2.915 3.967 6.41 3.895 3.493-.072 6.303-1.232 6.242-4.155-.06-2.923-2.914-3.967-6.408-3.895zm.15 7.445c-.595.012-1.11-1.482-1.148-3.337-.038-1.856.414-3.37 1.012-3.382.596-.013 1.11 1.48 1.15 3.337.037 1.857-.415 3.37-1.013 3.383zM133.392 90.602c-3.494.072-6.304 1.232-6.244 4.155.06 2.923 2.916 3.967 6.41 3.895 3.493-.072 6.303-1.232 6.243-4.155-.06-2.923-2.914-3.967-6.408-3.895zm.153 7.445c-.597.012-1.112-1.482-1.15-3.338-.038-1.856.415-3.37 1.012-3.383.596-.012 1.11 1.482 1.15 3.338.038 1.856-.415 3.37-1.012 3.382zM113.755 91.005l.105 5.08s.016 2.47 2.314 2.405l.01.52-9.996.204-.01-.5s2.596-.305 2.557-2.17c-.02-1.034.33-2.924-2.66-2.863l-.01-.48s3.406-.044 3.54-2.11l4.15-.085" fill="#667730"/><path d="M97.837 183.722c-.82.136-1.597-.42-1.733-1.24l-15.52-93.427c-.136-.82.42-1.597 1.24-1.733l221.47-36.79c.82-.137 1.596.418 1.732 1.238l15.52 93.427c.137.82-.42 1.597-1.238 1.733l-221.47 36.792" fill="#F4FFCC"/><path d="M319.804 145.32c.068.41-.212.8-.62.867L97.714 182.98c-.41.067-.8-.212-.866-.62l-15.52-93.43c-.07-.407.21-.797.618-.865l221.47-36.79c.41-.07.8.21.867.618l15.52 93.428" fill="#E8F2BD"/><path d="M104.01 174.663c-.408.068-.797-.21-.865-.62L89.6 92.504c-.07-.41.21-.8.618-.867L299.802 56.82c.41-.07.8.21.867.62l13.545 81.54c.068.41-.21.8-.62.867L104.01 174.663" fill="#8EA848"/><path d="M104.63 173.797c-.408.068-.798-.21-.866-.62l-13.3-80.056c-.067-.407.212-.797.62-.865l208.1-34.57c.408-.068.798.21.865.62l13.3 80.056c.067.41-.213.8-.622.867l-208.097 34.57" fill="#AAC56A"/><path d="M113.428 168.914c-3.824.636-7.472-1.973-8.106-5.797l-9.884-59.493c-.635-3.824 1.974-7.472 5.797-8.107l189.398-31.463c3.823-.635 7.47 1.973 8.106 5.797l9.882 59.494c.635 3.824-1.973 7.472-5.797 8.107l-189.397 31.464" fill="#F4FFCC"/><path d="M113.304 168.17c-3.423.57-6.67-1.753-7.24-5.176L96.18 103.5c-.568-3.424 1.755-6.67 5.18-7.24l189.395-31.464c3.425-.568 6.673 1.755 7.24 5.178l9.884 59.494c.568 3.424-1.755 6.672-5.178 7.24L113.304 168.17" fill="#E8F2BD"/><path d="M167.81 121.405c2.79 16.794 14.358 29.593 28.197 33.027L220 150.447c11.985-7.725 18.793-23.577 16.003-40.37-2.568-15.465-12.582-27.542-24.958-32.038l-29.975 4.978c-10.258 8.257-15.83 22.923-13.26 38.387" fill="#8EA848"/><path d="M169.33 121.153c3.012 18.12 16.722 31.375 32.173 32.366l13-2.16c14.3-5.934 22.99-22.91 19.98-41.03-2.692-16.2-13.932-28.508-27.324-31.646l-22.205 3.69c-11.658 7.298-18.314 22.58-15.624 38.78" fill="#AAC56A"/><path d="M182.285 100.534c.994 5.985 4.896 10.76 10.02 13.12-7.178 5.353-12.215 15.235-14.12 27.282 6.038 7.34 14.39 12.01 23.322 12.583l12.996-2.16c8.82-3.66 15.507-11.52 18.628-21.26-5.625-9.964-13.222-17.075-21.326-19.684 4.085-3.89 6.234-9.67 5.24-15.656-1.47-8.855-9.308-15.063-18.05-14.72l-4.388.73c-8.384 2.5-13.792 10.91-12.32 19.764" fill="#8EA848"/><path d="M211.185 111.283c4.085-3.89 6.233-9.672 5.24-15.657-1.595-9.598-10.67-16.087-20.267-14.492-9.6 1.595-16.088 10.668-14.493 20.266.994 5.985 4.897 10.76 10.02 13.122-6.907 5.15-11.833 14.497-13.89 25.93 6.065 7.62 14.584 12.483 23.71 13.067l12.995-2.16c8.448-3.504 14.938-10.86 18.215-20.03-5.646-10.156-13.33-17.408-21.53-20.047" fill="#C5D882"/><path d="M133.28 115.05c-6.5 1.08-10.893 7.223-9.814 13.722 1.08 6.498 7.223 10.892 13.722 9.812 6.5-1.08 10.892-7.223 9.812-13.72-1.08-6.5-7.223-10.893-13.72-9.814zm3.436 20.688c-4.927.818-9.584-2.512-10.403-7.44-.82-4.926 2.512-9.583 7.44-10.402 4.925-.818 9.583 2.512 10.4 7.44.82 4.926-2.51 9.583-7.437 10.402z" fill="#AAC56A"/><path d="M134.03 119.58c-3.997.663-6.7 4.442-6.035 8.44.664 3.997 4.443 6.7 8.44 6.036 3.998-.665 6.7-4.444 6.037-8.44-.664-4-4.443-6.7-8.44-6.037" fill="#AAC56A"/><path d="M137.46 140.218c-7.39 1.227-14.4-3.786-15.627-11.175-1.227-7.39 3.785-14.398 11.174-15.626 7.39-1.228 14.4 3.785 15.627 11.174 1.227 7.39-3.785 14.4-11.174 15.628zm-4.364-26.267c-7.094 1.18-11.907 7.91-10.728 15.005 1.178 7.094 7.908 11.906 15.003 10.728 7.095-1.18 11.908-7.91 10.73-15.003-1.18-7.094-7.91-11.907-15.004-10.73zM266.314 98.905c-.212.42-.28.857-.204 1.31.07.415.258.78.567 1.093.31.314.736.538 1.28.672l-.674-4.055c-.435.233-.758.56-.97.98M270.295 105.543l.76 4.57c.568-.206 1-.557 1.295-1.05.295-.496.394-1.036.296-1.622-.087-.523-.316-.95-.688-1.277-.37-.327-.926-.534-1.663-.62" fill="#AAC56A"/><path d="M281.414 103.666l1.94-3.174-3.293-1.73.482-3.687-3.712-.24-1.062-3.566-3.488 1.288-2.42-2.825-2.663 2.598-3.36-1.596-1.375 3.455-3.72-.093.15 3.717-3.435 1.428 1.648 3.335-2.557 2.7 2.86 2.377-1.237 3.508 3.583 1.008.296 3.707 3.68-.536 1.78 3.268 3.144-1.988 2.954 2.262 2.064-3.095 3.618.864.628-3.666 3.657-.683-.92-3.603 3.064-2.11-2.306-2.92zm-6.656 6.664c-.694 1.11-1.786 1.903-3.273 2.374l.364 2.192-1.7.283-.354-2.135c-1.38.06-2.562-.26-3.546-.965-.984-.703-1.72-1.805-2.21-3.306l3.004-.837c.228.605.552 1.105.972 1.5.42.397.856.662 1.312.795l-.816-4.91c-1.604-.184-2.838-.66-3.7-1.428-.862-.768-1.4-1.785-1.61-3.05-.212-1.282.013-2.426.678-3.432.664-1.006 1.657-1.686 2.978-2.043l-.192-1.16 1.7-.283.192 1.16c1.268-.058 2.327.202 3.177.78.85.576 1.475 1.434 1.873 2.573l-2.9.88c-.334-.893-.907-1.44-1.72-1.643l.762 4.583c1.96.197 3.347.643 4.16 1.34.815.695 1.328 1.676 1.538 2.94.235 1.416.005 2.68-.69 3.79zM293.674 79.713c.068.41-.21.798-.62.866l-54.622 9.073c-.408.068-.8-.21-.867-.62l-.024-.147c-.067-.41.212-.798.62-.866l54.623-9.074c.41-.068.8.21.866.62l.024.147M293.078 76.12c.067.41-.21.8-.62.868l-54.623 9.074c-.408.067-.798-.21-.866-.62l-.026-.148c-.068-.408.21-.798.62-.866l54.622-9.074c.41-.068.8.21.867.62l.025.147" fill="#AAC56A"/><path d="M271.5 64.568c-3.447.573-6.06 2.124-5.582 5.008.48 2.884 3.454 3.507 6.902 2.935 3.447-.572 6.06-2.124 5.582-5.008-.48-2.884-3.455-3.507-6.902-2.934zm1.22 7.346c-.59.097-1.312-1.307-1.617-3.138-.304-1.83-.073-3.395.516-3.493.588-.097 1.312 1.307 1.616 3.138.304 1.832.073 3.396-.516 3.494zM284.27 62.446c-3.446.573-6.06 2.125-5.58 5.01.478 2.883 3.453 3.505 6.9 2.933 3.448-.574 6.063-2.125 5.583-5.01-.48-2.883-3.454-3.506-6.902-2.934zm1.22 7.346c-.587.098-1.31-1.307-1.615-3.138-.305-1.83-.074-3.394.515-3.492.59-.098 1.313 1.307 1.617 3.138.305 1.83.073 3.394-.516 3.492z" fill="#667730"/><path d="M264.896 65.665l.833 5.01s.37 2.444 2.635 2.05l.084.512-9.865 1.638-.082-.494s2.527-.674 2.22-2.514c-.17-1.02-.09-2.94-3.044-2.45l-.08-.475c0 .002 3.365-.532 3.2-2.595l4.096-.68M114.726 90.61c-3.447.574-6.06 2.126-5.582 5.01.48 2.884 3.455 3.507 6.902 2.934s6.062-2.124 5.582-5.008c-.48-2.884-3.454-3.507-6.902-2.935zm1.22 7.347c-.588.098-1.312-1.307-1.616-3.138-.305-1.83-.074-3.395.515-3.493.59-.098 1.313 1.307 1.617 3.138.305 1.83.074 3.395-.516 3.492zM127.497 88.49c-3.447.573-6.06 2.124-5.582 5.008.48 2.884 3.455 3.507 6.902 2.935 3.447-.573 6.062-2.124 5.583-5.01-.48-2.883-3.455-3.506-6.903-2.933zm1.22 7.346c-.588.098-1.312-1.307-1.616-3.138-.304-1.83-.072-3.395.516-3.492.59-.1 1.313 1.307 1.617 3.138.305 1.83.074 3.394-.515 3.492z" fill="#667730"/><path d="M108.123 91.71l.833 5.01s.37 2.443 2.635 2.048l.085.513-9.863 1.64-.082-.496s2.526-.674 2.22-2.514c-.17-1.02-.092-2.94-3.045-2.45l-.08-.475s3.366-.533 3.2-2.596l4.098-.68" fill="#667730"/><g transform="translate(180 52)"><mask id="f" fill="#fff"><use xlink:href="#e"/></mask><path d="M6.17 73.39l-.34-3.213 33.463-3.556.34 3.213L6.172 73.39" fill="#FDFDFD" mask="url(#f)"/><path d="M5.83 70.177l-.342-3.21 33.464-3.557.34 3.21L5.83 70.178" fill="#FEFEFE" mask="url(#f)"/><path d="M5.488 66.966l-.342-3.212 33.465-3.556.342 3.212-33.464 3.556" fill="#FFF" mask="url(#f)"/><path d="M5.146 63.754l-.297-2.8 33.463-3.557.298 2.8-33.464 3.557" fill="#FFF" mask="url(#f)"/><path d="M4.85 60.953l-.298-2.8 33.463-3.557.298 2.8L4.85 60.954" fill="#FEFEFE" mask="url(#f)"/><path d="M4.552 58.152l-.298-2.802 33.464-3.556.297 2.802-33.463 3.556" fill="#FDFDFD" mask="url(#f)"/><path d="M4.254 55.35l-.298-2.8 33.464-3.557.298 2.8L4.254 55.35" fill="#FCFCFC" mask="url(#f)"/><path d="M3.956 52.55l-.298-2.803 33.465-3.556.297 2.803L3.956 52.55" fill="#FBFBFB" mask="url(#f)"/><path d="M3.658 49.747l-.297-2.8 33.465-3.557.298 2.8-33.465 3.557" fill="#FAFAFA" mask="url(#f)"/><path d="M3.36 46.946l-.297-2.802 33.464-3.556.298 2.802L3.36 46.946M3.063 44.144l-.297-2.8 33.464-3.557.297 2.8-33.464 3.557" fill="#F9F9F9" mask="url(#f)"/><path d="M2.766 41.343l-.298-2.8 33.464-3.557.298 2.8-33.464 3.557" fill="#F8F8F8" mask="url(#f)"/><path d="M2.468 38.542L2.17 35.74l33.464-3.556.298 2.802-33.464 3.556" fill="#F6F6F6" mask="url(#f)"/><path d="M2.17 35.74l-.297-2.8 33.464-3.557.297 2.8L2.17 35.74" fill="#F4F4F4" mask="url(#f)"/><path d="M1.873 32.94l-.298-2.803L35.04 26.58l.297 2.803L1.873 32.94" fill="#F3F3F3" mask="url(#f)"/><path d="M1.575 30.137l-.298-2.8L34.74 23.78l.3 2.8-33.465 3.557" fill="#F2F2F2" mask="url(#f)"/><path d="M1.277 27.336l-.297-2.8 33.463-3.557.298 2.8-33.463 3.556" fill="#F1F1F1" mask="url(#f)"/><path d="M.98 24.535L.72 22.09v-.36l33.426-3.553.297 2.802L.98 24.534" fill="#F0F0F0" mask="url(#f)"/><path d="M.72 18.896l33.128-3.52.298 2.8L.72 21.73v-2.834" fill="#EFEFEF" mask="url(#f)"/><path d="M.72 16.063l32.83-3.49.298 2.803L.72 18.896v-2.833" fill="#EEE" mask="url(#f)"/><path d="M.72 15.607l32.783-3.484.047.45-32.83 3.49v-.456" fill="#EEE" mask="url(#f)"/><path d="M.72 15.15l32.735-3.478.048.45L.72 15.608v-.456" fill="#EFEFEF" mask="url(#f)"/><path d="M.72 14.695l32.687-3.473.048.45L.72 15.152v-.457" fill="#F0F0F0" mask="url(#f)"/><path d="M.72 14.24l32.64-3.47.047.452L.72 14.695v-.456" fill="#F1F1F1" mask="url(#f)"/><path d="M.72 13.783l32.59-3.463.05.45L.72 14.24v-.457" fill="#F2F2F2" mask="url(#f)"/><path d="M.72 13.327L33.263 9.87l.048.45L.72 13.783v-.456" fill="#F3F3F3" mask="url(#f)"/><path d="M.72 12.87L33.215 9.42l.048.45L.72 13.33v-.457" fill="#F4F4F4" mask="url(#f)"/><path d="M.72 12.415l32.447-3.448.048.45L.72 12.872v-.455" fill="#F6F6F6" mask="url(#f)"/><path d="M.72 11.96l32.4-3.444.047.45L.72 12.417v-.457" fill="#F8F8F8" mask="url(#f)"/><path d="M.72 11.503l32.35-3.438.05.45L.72 11.96v-.457" fill="#F9F9F9" mask="url(#f)"/><path d="M.72 11.047l32.303-3.433.048.45-32.35 3.44v-.457" fill="#F9F9F9" mask="url(#f)"/><path d="M.72 10.59l32.256-3.427.047.45L.72 11.048v-.456" fill="#FAFAFA" mask="url(#f)"/><path d="M.72 10.134l32.208-3.422.048.45L.72 10.593v-.458" fill="#FBFBFB" mask="url(#f)"/><path d="M.72 9.678L32.88 6.26l.048.452L.72 10.134v-.456" fill="#FCFCFC" mask="url(#f)"/><path d="M.72 9.222L32.832 5.81l.048.45L.72 9.68v-.456" fill="#FDFDFD" mask="url(#f)"/><path d="M.72 8.766L32.784 5.36l.048.45L.72 9.222v-.456" fill="#FEFEFE" mask="url(#f)"/><path d="M.72 8.31l32.016-3.402.048.45L.72 8.767V8.31M32.215.01l.52 4.898L.72 8.31V.01h31.495" fill="#FFF" mask="url(#f)"/></g></g></svg>