<svg version="1" xmlns="http://www.w3.org/2000/svg" width="587.7" height="888.1" viewBox="0 0 587.7 888.1"><path fill="#13517A" d="M184.4 887.8L1 888.3l330.3-534.9 132.4 82.2"/><path fill="#0C3854" d="M184.4 887.8l-106.3.3L387 388l76.7 47.6"/><path fill="#F4C9A1" d="M385.4 343.3c-.7 0-1.3 0-1.9-.1-.1 0-1.4-.2-1.9-.3-.1 0-1.4-.4-1.9-.6-.1 0-1.3-.5-1.9-.8-5.6-2.8-9.5-8.6-9.5-15.3l-.5-183.5c0-13.7-11.2-24.8-24.9-24.8-4.4 0-8.5 1.2-12.1 3.2l.4 177c0 17.3 7.8 32.7 19.9 43.1l-10.9 17.6 108 67 21.9-35.3 2.2-1.7c7.8.7 15.8-3 20.2-10.1l22-35.7-129.1.3z"/><path fill="#EFB481" d="M364.3 142l.5 166.8c0 6.7 1.1 19.4 5.5 25.4 0 0-.4-.2 0 0-1.3-2.4-2-5.1-2-8l-.5-183.5c0-9.3-5.2-17.5-12.8-21.7 2.6 4 9.3 8.4 9.3 21zm136.8 201l-111.8.3c3.1 3.3 7.6 5.4 12.5 5.4l102.6-1.2-14.4 22.3c-4.4 7.1-18.4 11.8-26.2 11.2l-2.2 1.7-22 35.3-99.4-59.2 108 67 21.9-35.3 2.2-1.7c7.8.7 15.8-3 20.2-10.1l22-35.7h-13.4zm-49 76.5l-3.9 6.3-108-67s23.5 12.7 56 32.2c32.4 19.4 55.9 28.5 55.9 28.5z"/><path fill="#333" d="M544.3 325.9c0 9.5-7.6 17.2-17.1 17.2l-141.8.4c-9.5 0-17.2-7.6-17.2-17.1l-.8-308.8c0-9.5 7.6-17.2 17.1-17.2L526.4 0c9.5 0 17.2 7.6 17.2 17.1l.7 308.8z"/><path fill="#020202" d="M367.6 81.7c-.9.3-1.7 2-1.7 4.1l.1 34c0 2.1.7 3.8 1.7 4.1l-.1-42.2z"/><path fill="#808184" d="M415 314.8l-21.4.1 2.5-2.5c.2-.2.2-.5 0-.7-.2-.2-.5-.2-.7 0L392 315s-.1.1-.1.2v.4c0 .1.1.1.1.2l3.3 3.3c.1.1.2.1.4.1.1 0 .3-.1.4-.2.2-.2.2-.5 0-.7l-2.5-2.5 21.4-.1c1.1 0 2 .9 2 2v1c0 1.1-.9 2-2 2h-11.7c-.3 0-.5.2-.5.5s.2.5.5.5H415c1.7 0 3.1-1.4 3.1-3.1v-1c0-1.5-1.4-2.8-3.1-2.8zm56.8 8.2l-26.7.1v-8.2l13.3-4.4 13.4 4.4v8.1zm-25.7-1l24.6-.1v-6.4l-12.3-4-12.3 4.1v6.4zM498.9 312.73l23-.058.003 1.1-23 .057zm2.9 2.696l20-.05.003 1.1-20 .05zm0 2.8l20-.05.003 1.1-20 .05zm0 2.8l20-.05.003 1.1-20 .05z"/></svg>