<svg version="1" xmlns="http://www.w3.org/2000/svg" width="184.5" height="384.7" viewBox="0 0 184.5 384.7"><path fill="#431E11" d="M73 82.6V39.8l32.7-.8c-.2-14.1 2-25.1-7.9-31.5C91.5 3.4 79.2-.4 68.5 0 41.9 1 24.9 18.2 24.9 42s22.3 42 44.6 42c3.5 0 6.8-.5 10-1.3H73z"/><path fill="#291A12" d="M146.2 363.3c0 10.6 8.5 19.2 19 19.2 10.6.1 19.1-8.5 19.2-19 0-10.6-19-19.2-19-19.2s-19.1 8.5-19.2 19z"/><path fill="#0A3854" d="M165 243.1c-1.3-.1-46.5-1.2-54.7-.8l-64.7-2.9c-6.6.3-11.8 6.2-11.5 13.3l.8 21.8c.2 7 2 2.8 8.6 2.6l51.3.7c.3 0 31.5 5.2 49.2 4.1-1.4 15 2.4 81.2 2.4 81.2l38.3.2-4.5-99.9c.5-3.9-.2-8.1-2.1-11.7-2.5-4.5-6.8-7.9-13.1-8.6z"/><path fill="#372014" d="M135.5 363.3c0 10.6 8.5 19.2 19 19.2 10.5.1 19.1-8.5 19.2-19 0-10.6-19-19.2-19-19.2s-19.2 8.5-19.2 19z"/><path fill="#11517B" d="M154.3 243.1c-1.3-.1-46.5-1.2-54.7-.8l-64.7-2.9c-6.6.3-11.3 4.5-11.1 11.6l.3 23.5c.2 7 6.2 10 12.8 9.7l49.4.7c.3-2.1 26.8-.5 45.4-.7 2 17.1 3.9 78.8 3.9 78.8l38.3.2-4.5-99.9c.5-3.9-.2-8.1-2.2-11.7-2.3-4.4-6.6-7.8-12.9-8.5z"/><path fill="#EC8025" d="M68.1 98.3c-22.8-2.3-41.5 15.1-41.7 46.9l-3.1 123.6 86-26.8-3.2-75.5c.1-27.3-5.9-58.3-27.2-67.8-3.5-1.6-6.3 0-10.8-.4z"/><path fill="#372014" d="M103 204.7c0-2.5-1.7-4.5-3.8-4.5-2.1 0-3.8 2-3.8 4.5s1.7 4.5 3.8 4.5c2.1 0 3.8-2 3.8-4.5zM104.5 232.7c0-2.5-1.7-4.5-3.8-4.5-2.1 0-3.8 2-3.8 4.5s1.7 4.5 3.8 4.5c2.1-.1 3.8-2.1 3.8-4.5z"/><path fill="#D7B08F" d="M60.4 83.9l-2.1 23c3.2 2.3 6.4 4.7 7.9 8.2.6 1.6.9 3.8-.2 5.4-.7 1-1.2 2-1.5 3.1l18.8.2L85 84.7l-24.6-.8z"/><path fill="#EC8025" d="M62.7 123.8l20.8 20.5 12.9 14.9 2.8-17.1S88.8 112 83.1 103.8l-5.6 1.2-13.3-4.4-9.6 5 8.1 18.2z"/><g fill="#CC7028"><path d="M67.2 117.8l-12.6-14.9 3.9-4.4 19 6.5M90.1 113.7l-.8-7.6-5.1-4.8-6.7 3.7"/></g><path fill="#E9BEA3" d="M105.1 44.6c5.5 23.1-6 45.6-25.6 50.3-19.7 4.7-40-10.2-45.5-33.3-5.5-23.1 5.9-45.6 25.6-50.3 9.6-2.3 22.7-.9 30.8 4.9 8.4 5.9 11.9 16.6 14.7 28.4z"/><path fill="#232323" d="M13.3 384.7v-48.8h82.6v48.8h13.3V284.1H16.1V183.4c0-4.4-3.6-8-8-8-4.5 0-8.1 3.6-8.1 8v201.3h13.3zm0-78.2h82.6V332H13.3v-25.5z"/><path fill="#818083" d="M16.1 284.1h93.2v6.2H16.1z"/><path fill="#372014" d="M99.2 151c-.4-2.4-2.3-4.2-4.4-3.9-2.1.3-3.5 2.5-3.1 5 .4 2.5 2.3 4.2 4.4 3.9 2-.3 3.4-2.6 3.1-5zM102.6 179.3c-.4-2.4-2.3-4.2-4.4-3.9-2.1.3-3.5 2.5-3.1 5 .4 2.5 2.3 4.2 4.4 3.9 2.1-.3 3.5-2.6 3.1-5zM88.7 121.1c-.4-2.4-2.3-4.2-4.4-3.9-2.1.3-3.5 2.5-3.1 5 .4 2.5 2.3 4.2 4.4 3.9 2.1-.4 3.5-2.6 3.1-5z"/><path fill="#431E11" d="M23.8 48.2c-.1-7.4 1.8-18.8 4.6-24.5 2.7-.6 14.8-11.9 17.2-13.5 4.8-3.3 35.8-11.6 35.2 7.2-.2 4.4 3.1 7.1-1.3 9.4-2.3.8-16.7 2.8-19.1 4.3-2 1.1-4 2.5-5.4 4.1-.1.1-.2.1-.3.2-4.7 4.3-8 13.7-7.3 22 1.8 22.7 8 33.5 8 33.5.1.5-31.2-8.1-31.6-42.7z"/><path fill="#431E11" d="M106.8 32.7S108.6 8 94.6 6.2c-1.6-.2 0 6.3-1.7 6.7-3-2.6-7.6-3.9-9.7-4.6L84.9 5c-2.1-.2-14 2.6-15 3-1.2.6-6.9 1.9-10.5 4.9-1.8-.4-3.5-.7-5.1-.6-6.1.3-11.2 14.8-12 27.5-.1 1.1-.1 2.2-.1 3.2l5.2 9.3C65 40 67.7 25.6 87.2 27.9c6.4.7 10.8-.6 15.4 9.7 1.6 3.7 2.6 11.8 2.6 11.8l1.6-16.7z"/><path fill="#E9BEA3" d="M59.5 53.9c1.5 5.2-.8 10.5-5.2 11.8-4.4 1.3-9.2-1.9-10.7-7.2-1.5-5.2.9-10.5 5.3-11.8 4.3-1.2 9.1 2 10.6 7.2z"/></svg>