<svg version="1" xmlns="http://www.w3.org/2000/svg" width="156.5" height="199.7" viewBox="0 0 156.5 199.7"><path fill="#D1D2D2" d="M153.6 194.3c-.1 3.6-3 6.4-6.6 6.4L25.7 199c-3.6-.1-6.4-3-6.4-6.6L21.9 12c.1-3.6 3-6.4 6.6-6.4l121.3 1.7c3.6.1 6.4 3 6.4 6.6l-2.6 180.4z"/><path fill="#5E5E5E" d="M147.3 10L30.8 8.3c-3.4 0-6.3 2.7-6.3 6.2l-5.4-.1-2.5 175.4 5.4.1c0 3.5 2.7 6.3 6.1 6.4l116.5 1.6c3.4 0 6.3-2.7 6.3-6.2l2.5-175.4c.1-3.4-2.6-6.3-6.1-6.3z"/><path fill="#8AB9E3" d="M18.905 16.358l131.687 1.495-2.003 176.382L16.9 192.74z"/><linearGradient id="a" gradientUnits="userSpaceOnUse" x1="123.812" y1="189.182" x2="98.026" y2="188.914"><stop offset="0" stop-color="#818181"/><stop offset=".245" stop-color="#858585"/><stop offset=".558" stop-color="#939293"/><stop offset=".906" stop-color="#ACACAC"/><stop offset="1" stop-color="#B5B6B6"/></linearGradient><path fill="url(#a)" d="M148.6 194.2L34.1 193l1.1-9.5 96.4 6.4 13.7 1"/><linearGradient id="b" gradientUnits="userSpaceOnUse" x1="83.31" y1="80.042" x2="71.495" y2="170.446"><stop offset="0" stop-color="#FFF"/><stop offset=".31" stop-color="#F7F6F6"/><stop offset=".706" stop-color="#E6E6E5"/><stop offset="1" stop-color="#D7D6D6"/></linearGradient><path fill="url(#b)" d="M145.3 190.9l-131.7-1.5 2-176.3 131.7 1.5"/><linearGradient id="c" gradientUnits="userSpaceOnUse" x1="145.24" y1="124.255" x2="149.269" y2="94.44"><stop offset="0" stop-color="#A9A8A8"/><stop offset=".382" stop-color="#AEADAD"/><stop offset=".869" stop-color="#BBBABA"/><stop offset="1" stop-color="#C0BFBF"/></linearGradient><path fill="url(#c)" d="M147.3 14.6l3.3 3.2-2 176.4-3.3-3.3"/><path fill="#898989" d="M148.7 116l1-65.5h1.4c3 0 5.5 2.5 5.4 5.6l-.7 46.1-7.1 13.8z"/><path fill="#010101" d="M148.4 115.8l1-65.5h1.4c3 0 5.5 2.5 5.4 5.6l-.7 46.1-7.1 13.8z"/><path fill="#898989" stroke="#898989" stroke-miterlimit="10" d="M149.9 88.5l6-11.5.3-21.1c0-3-2.3-5.5-5.3-5.6l-1 38.2z"/><path fill="#A8A8A8" d="M150.8 50.3h-1.4l-1 65.5 1.4-2.7 1-62.8z"/><path fill="#898989" d="M148.1 88.9l1-65.5h1.4c3 0 5.5 2.5 5.4 5.6l-.7 46.1-7.1 13.8z"/><path fill="#010101" d="M147.9 88.5l1-65.5h1.4c3 0 5.5 2.5 5.4 5.6l-.7 46.2-7.1 13.7z"/><path fill="#010101" d="M154.9 38.6l.2-9.9c0-2.6-1.6-4.8-4-5.5 2.6.5 4.5 2.8 4.5 5.5l-.2 9.9h-.5z"/><path fill="#A8A8A8" stroke="#A8A8A8" stroke-miterlimit="10" d="M150.3 23h-1.4l-1 65.5 1.4-2.7 1-62.8z"/><path fill="#2C718D" d="M7.1 14.7h5.6V16H7.1zM7.1 20.3h5.6v1.3H7.1zM7.1 25.8h5.6v1.3H7.1zM7.1 31.3h5.6v1.3H7.1zM7.1 36.9h5.6v1.3H7.1zM7.1 42.4h5.6v1.3H7.1zM7.1 48h5.6v1.3H7.1zM7.1 53.5h5.6v1.3H7.1zM7.1 59.1h5.6v1.3H7.1zM7.1 64.9h5.6v1.3H7.1zM7.1 70.5h5.6v1.3H7.1zM7.1 76h5.6v1.3H7.1zM7.1 81.5h5.6v1.3H7.1zM7.1 87.2h5.6v1.3H7.1zM7.1 92.8h5.6v1.3H7.1zM7.1 98.3h5.6v1.3H7.1zM7.1 103.8h5.6v1.3H7.1zM7.1 109.5h5.6v1.3H7.1zM7.1 115.1h5.6v1.3H7.1zM7.1 120.6h5.6v1.3H7.1zM7.1 126.2h5.6v1.3H7.1zM7.1 131.9h5.6v1.3H7.1zM7.1 137.5h5.6v1.3H7.1zM7.1 143h5.6v1.3H7.1zM7.1 154.4h5.6v1.3H7.1zM7.1 160h5.6v1.3H7.1zM7.1 165.5h5.6v1.3H7.1zM7.1 170.9h5.6v1.3H7.1zM7.1 176.5h5.6v1.3H7.1zM7.1 182h5.6v1.3H7.1zM7.1 148.5h5.6v1.3H7.1z"/><path fill="#D1D2D2" d="M137.6 0H16.2c-.3 0-.6 0-.9.1C7.7.4 7 9 7 9v175.5s-.7 8.7 8.7 8.9h121.9c3.6 0 6.5-2.9 6.5-6.5V6.5c0-3.6-2.9-6.5-6.5-6.5z"/><linearGradient id="d" gradientUnits="userSpaceOnUse" x1="85.963" y1="48.563" x2="85.963" y2="50.582" gradientTransform="matrix(.899 .439 -.439 .899 -49.331 -42.946)"><stop offset=".006" stop-color="#8A8A8A"/><stop offset=".534" stop-color="#FFF"/><stop offset=".617" stop-color="#EEE"/><stop offset=".781" stop-color="#C1C1C1"/><stop offset="1" stop-color="#7D7D7D"/></linearGradient><path fill="url(#d)" d="M12.2 42.3c-.3.5-.9.8-1.4.5l-10.1-5c-.5-.3-.8-.9-.5-1.4.3-.5.9-.8 1.4-.5l10.1 5c.5.2.8.9.5 1.4z"/><linearGradient id="e" gradientUnits="userSpaceOnUse" x1="90.882" y1="58.638" x2="90.882" y2="60.655" gradientTransform="matrix(.899 .439 -.439 .899 -49.331 -42.946)"><stop offset=".006" stop-color="#8A8A8A"/><stop offset=".534" stop-color="#FFF"/><stop offset=".617" stop-color="#EEE"/><stop offset=".781" stop-color="#C1C1C1"/><stop offset="1" stop-color="#7D7D7D"/></linearGradient><path fill="url(#e)" d="M12.2 53.5c-.3.5-.9.8-1.4.5L.6 49c-.5-.3-.8-.9-.5-1.4.3-.5.9-.8 1.4-.5l10.1 5c.6.2.9.9.6 1.4z"/><linearGradient id="f" gradientUnits="userSpaceOnUse" x1="93.322" y1="63.635" x2="93.322" y2="65.653" gradientTransform="matrix(.899 .439 -.439 .899 -49.331 -42.946)"><stop offset=".006" stop-color="#8A8A8A"/><stop offset=".534" stop-color="#FFF"/><stop offset=".617" stop-color="#EEE"/><stop offset=".781" stop-color="#C1C1C1"/><stop offset="1" stop-color="#7D7D7D"/></linearGradient><path fill="url(#f)" d="M12.2 59.1c-.3.5-.9.8-1.4.5l-10.1-5c-.5-.3-.8-.9-.5-1.4.3-.5.9-.8 1.4-.5l10.1 5c.5.2.8.8.5 1.4z"/><linearGradient id="g" gradientUnits="userSpaceOnUse" x1="88.403" y1="53.56" x2="88.403" y2="55.579" gradientTransform="matrix(.899 .439 -.439 .899 -49.331 -42.946)"><stop offset=".006" stop-color="#8A8A8A"/><stop offset=".534" stop-color="#FFF"/><stop offset=".617" stop-color="#EEE"/><stop offset=".781" stop-color="#C1C1C1"/><stop offset="1" stop-color="#7D7D7D"/></linearGradient><path fill="url(#g)" d="M12.2 47.9c-.3.5-.9.8-1.4.5l-10.1-5c-.5-.3-.8-.9-.5-1.4.3-.5.9-.8 1.4-.5l10.1 5c.5.2.8.8.5 1.4z"/><linearGradient id="h" gradientUnits="userSpaceOnUse" x1="95.776" y1="68.661" x2="95.776" y2="70.678" gradientTransform="matrix(.899 .439 -.439 .899 -49.331 -42.946)"><stop offset=".006" stop-color="#8A8A8A"/><stop offset=".534" stop-color="#FFF"/><stop offset=".617" stop-color="#EEE"/><stop offset=".781" stop-color="#C1C1C1"/><stop offset="1" stop-color="#7D7D7D"/></linearGradient><path fill="url(#h)" d="M12.2 64.7c-.3.5-.9.8-1.4.5l-10.1-5c-.5-.3-.8-.9-.5-1.4.2-.6.8-.8 1.3-.5l10.1 5c.6.2.9.8.6 1.4z"/><linearGradient id="i" gradientUnits="userSpaceOnUse" x1="100.695" y1="78.734" x2="100.695" y2="80.751" gradientTransform="matrix(.899 .439 -.439 .899 -49.331 -42.946)"><stop offset=".006" stop-color="#8A8A8A"/><stop offset=".534" stop-color="#FFF"/><stop offset=".617" stop-color="#EEE"/><stop offset=".781" stop-color="#C1C1C1"/><stop offset="1" stop-color="#7D7D7D"/></linearGradient><path fill="url(#i)" d="M12.2 75.9c-.3.5-.9.8-1.4.5l-10.1-5c-.5-.3-.8-.9-.5-1.4.3-.5.9-.8 1.4-.5l10.1 5c.5.2.8.8.5 1.4z"/><linearGradient id="j" gradientUnits="userSpaceOnUse" x1="103.135" y1="83.73" x2="103.135" y2="85.749" gradientTransform="matrix(.899 .439 -.439 .899 -49.331 -42.946)"><stop offset=".006" stop-color="#8A8A8A"/><stop offset=".534" stop-color="#FFF"/><stop offset=".617" stop-color="#EEE"/><stop offset=".781" stop-color="#C1C1C1"/><stop offset="1" stop-color="#7D7D7D"/></linearGradient><path fill="url(#j)" d="M12.2 81.4c-.3.5-.9.8-1.4.5L.6 77c-.5-.3-.8-.9-.5-1.4.3-.6.9-.8 1.4-.6l10.1 5c.6.3.9.9.6 1.4z"/><linearGradient id="k" gradientUnits="userSpaceOnUse" x1="98.216" y1="73.656" x2="98.216" y2="75.675" gradientTransform="matrix(.899 .439 -.439 .899 -49.331 -42.946)"><stop offset=".006" stop-color="#8A8A8A"/><stop offset=".534" stop-color="#FFF"/><stop offset=".617" stop-color="#EEE"/><stop offset=".781" stop-color="#C1C1C1"/><stop offset="1" stop-color="#7D7D7D"/></linearGradient><path fill="url(#k)" d="M12.2 70.2c-.3.5-.9.8-1.4.5l-10.1-5c-.5-.3-.8-.9-.5-1.4.3-.5.9-.8 1.4-.5l10.1 5c.5.2.8.9.5 1.4z"/><linearGradient id="l" gradientUnits="userSpaceOnUse" x1="105.563" y1="88.704" x2="105.563" y2="90.721" gradientTransform="matrix(.899 .439 -.439 .899 -49.331 -42.946)"><stop offset=".006" stop-color="#8A8A8A"/><stop offset=".534" stop-color="#FFF"/><stop offset=".617" stop-color="#EEE"/><stop offset=".781" stop-color="#C1C1C1"/><stop offset="1" stop-color="#7D7D7D"/></linearGradient><path fill="url(#l)" d="M12.2 87c-.3.5-.9.8-1.4.5l-10.1-5c-.5-.3-.8-.9-.5-1.4.3-.5.9-.8 1.4-.5l10.1 5c.5.2.8.8.5 1.4z"/><linearGradient id="m" gradientUnits="userSpaceOnUse" x1="110.483" y1="98.778" x2="110.483" y2="100.796" gradientTransform="matrix(.899 .439 -.439 .899 -49.331 -42.946)"><stop offset=".006" stop-color="#8A8A8A"/><stop offset=".534" stop-color="#FFF"/><stop offset=".617" stop-color="#EEE"/><stop offset=".781" stop-color="#C1C1C1"/><stop offset="1" stop-color="#7D7D7D"/></linearGradient><path fill="url(#m)" d="M12.2 98.2c-.3.5-.9.8-1.4.5l-10.1-5c-.5-.3-.8-.9-.5-1.4.3-.5.9-.8 1.4-.5l10.1 5c.5.2.8.8.5 1.4z"/><linearGradient id="n" gradientUnits="userSpaceOnUse" x1="112.922" y1="103.774" x2="112.922" y2="105.792" gradientTransform="matrix(.899 .439 -.439 .899 -49.331 -42.946)"><stop offset=".006" stop-color="#8A8A8A"/><stop offset=".534" stop-color="#FFF"/><stop offset=".617" stop-color="#EEE"/><stop offset=".781" stop-color="#C1C1C1"/><stop offset="1" stop-color="#7D7D7D"/></linearGradient><path fill="url(#n)" d="M12.2 103.7c-.3.5-.9.8-1.4.5l-10.1-5c-.5-.3-.8-.9-.5-1.4.3-.5.9-.8 1.4-.5l10.1 5c.5.3.8.9.5 1.4z"/><linearGradient id="o" gradientUnits="userSpaceOnUse" x1="108.003" y1="93.699" x2="108.003" y2="95.718" gradientTransform="matrix(.899 .439 -.439 .899 -49.331 -42.946)"><stop offset=".006" stop-color="#8A8A8A"/><stop offset=".534" stop-color="#FFF"/><stop offset=".617" stop-color="#EEE"/><stop offset=".781" stop-color="#C1C1C1"/><stop offset="1" stop-color="#7D7D7D"/></linearGradient><path fill="url(#o)" d="M12.2 92.5c-.3.5-.9.8-1.4.5L.7 88c-.5-.3-.8-.9-.5-1.4.3-.5.9-.8 1.4-.5l10.1 5c.5.2.8.9.5 1.4z"/><linearGradient id="p" gradientUnits="userSpaceOnUse" x1="115.376" y1="108.801" x2="115.376" y2="110.819" gradientTransform="matrix(.899 .439 -.439 .899 -49.331 -42.946)"><stop offset=".006" stop-color="#8A8A8A"/><stop offset=".534" stop-color="#FFF"/><stop offset=".617" stop-color="#EEE"/><stop offset=".781" stop-color="#C1C1C1"/><stop offset="1" stop-color="#7D7D7D"/></linearGradient><path fill="url(#p)" d="M12.2 109.3c-.3.5-.9.8-1.4.5l-10.1-5c-.5-.3-.8-.9-.5-1.4.3-.5.9-.8 1.4-.5l10.1 5c.5.3.8.9.5 1.4z"/><linearGradient id="q" gradientUnits="userSpaceOnUse" x1="120.295" y1="118.874" x2="120.295" y2="120.892" gradientTransform="matrix(.899 .439 -.439 .899 -49.331 -42.946)"><stop offset=".006" stop-color="#8A8A8A"/><stop offset=".534" stop-color="#FFF"/><stop offset=".617" stop-color="#EEE"/><stop offset=".781" stop-color="#C1C1C1"/><stop offset="1" stop-color="#7D7D7D"/></linearGradient><path fill="url(#q)" d="M12.2 120.5c-.3.5-.9.8-1.4.5L.7 116c-.5-.3-.8-.9-.5-1.4.3-.5.9-.8 1.4-.5l10.1 5c.5.3.8.9.5 1.4z"/><linearGradient id="r" gradientUnits="userSpaceOnUse" x1="122.735" y1="123.872" x2="122.735" y2="125.889" gradientTransform="matrix(.899 .439 -.439 .899 -49.331 -42.946)"><stop offset=".006" stop-color="#8A8A8A"/><stop offset=".534" stop-color="#FFF"/><stop offset=".617" stop-color="#EEE"/><stop offset=".781" stop-color="#C1C1C1"/><stop offset="1" stop-color="#7D7D7D"/></linearGradient><path fill="url(#r)" d="M12.2 126.1c-.3.5-.9.8-1.4.5l-10.1-5c-.5-.3-.8-.9-.5-1.4.3-.5.9-.8 1.4-.5l10.1 5c.5.2.8.9.5 1.4z"/><linearGradient id="s" gradientUnits="userSpaceOnUse" x1="117.816" y1="113.796" x2="117.816" y2="115.816" gradientTransform="matrix(.899 .439 -.439 .899 -49.331 -42.946)"><stop offset=".006" stop-color="#8A8A8A"/><stop offset=".534" stop-color="#FFF"/><stop offset=".617" stop-color="#EEE"/><stop offset=".781" stop-color="#C1C1C1"/><stop offset="1" stop-color="#7D7D7D"/></linearGradient><path fill="url(#s)" d="M12.2 114.9c-.3.5-.9.8-1.4.5l-10.1-5c-.5-.3-.8-.9-.5-1.4.3-.5.9-.8 1.4-.5l10.1 5c.5.2.8.9.5 1.4z"/><linearGradient id="t" gradientUnits="userSpaceOnUse" x1="125.189" y1="128.897" x2="125.189" y2="130.915" gradientTransform="matrix(.899 .439 -.439 .899 -49.331 -42.946)"><stop offset=".006" stop-color="#8A8A8A"/><stop offset=".534" stop-color="#FFF"/><stop offset=".617" stop-color="#EEE"/><stop offset=".781" stop-color="#C1C1C1"/><stop offset="1" stop-color="#7D7D7D"/></linearGradient><path fill="url(#t)" d="M12.2 131.7c-.3.5-.9.8-1.4.5l-10.1-5c-.5-.3-.8-.9-.5-1.4.3-.5.9-.8 1.4-.5l10.1 5c.5.2.8.9.5 1.4z"/><linearGradient id="u" gradientUnits="userSpaceOnUse" x1="130.108" y1="138.971" x2="130.108" y2="140.988" gradientTransform="matrix(.899 .439 -.439 .899 -49.331 -42.946)"><stop offset=".006" stop-color="#8A8A8A"/><stop offset=".534" stop-color="#FFF"/><stop offset=".617" stop-color="#EEE"/><stop offset=".781" stop-color="#C1C1C1"/><stop offset="1" stop-color="#7D7D7D"/></linearGradient><path fill="url(#u)" d="M12.2 142.9c-.3.5-.9.8-1.4.5l-10.1-5c-.5-.3-.8-.9-.5-1.4.3-.5.9-.8 1.4-.5l10.1 5c.5.2.8.9.5 1.4z"/><linearGradient id="v" gradientUnits="userSpaceOnUse" x1="132.548" y1="143.967" x2="132.548" y2="145.984" gradientTransform="matrix(.899 .439 -.439 .899 -49.331 -42.946)"><stop offset=".006" stop-color="#8A8A8A"/><stop offset=".534" stop-color="#FFF"/><stop offset=".617" stop-color="#EEE"/><stop offset=".781" stop-color="#C1C1C1"/><stop offset="1" stop-color="#7D7D7D"/></linearGradient><path fill="url(#v)" d="M12.2 148.5c-.3.5-.9.8-1.4.5L.7 144c-.5-.3-.8-.9-.5-1.4.3-.5.9-.8 1.4-.5l10.1 5c.5.2.8.8.5 1.4z"/><linearGradient id="w" gradientUnits="userSpaceOnUse" x1="127.629" y1="133.893" x2="127.629" y2="135.912" gradientTransform="matrix(.899 .439 -.439 .899 -49.331 -42.946)"><stop offset=".006" stop-color="#8A8A8A"/><stop offset=".534" stop-color="#FFF"/><stop offset=".617" stop-color="#EEE"/><stop offset=".781" stop-color="#C1C1C1"/><stop offset="1" stop-color="#7D7D7D"/></linearGradient><path fill="url(#w)" d="M12.2 137.3c-.3.5-.9.8-1.4.5l-10.1-5c-.5-.3-.8-.9-.5-1.4.3-.5.9-.8 1.4-.5l10.1 5c.5.2.8.8.5 1.4z"/><linearGradient id="x" gradientUnits="userSpaceOnUse" x1="76.175" y1="28.52" x2="76.175" y2="30.538" gradientTransform="matrix(.899 .439 -.439 .899 -49.331 -42.946)"><stop offset=".006" stop-color="#8A8A8A"/><stop offset=".534" stop-color="#FFF"/><stop offset=".617" stop-color="#EEE"/><stop offset=".781" stop-color="#C1C1C1"/><stop offset="1" stop-color="#7D7D7D"/></linearGradient><path fill="url(#x)" d="M12.2 20c-.3.5-.9.8-1.4.5l-10.1-5c-.5-.3-.8-.9-.5-1.4.3-.5.9-.8 1.4-.5l10.1 5c.5.2.8.9.5 1.4z"/><linearGradient id="y" gradientUnits="userSpaceOnUse" x1="135.028" y1="149.045" x2="135.028" y2="151.064" gradientTransform="matrix(.899 .439 -.439 .899 -49.331 -42.946)"><stop offset=".006" stop-color="#8A8A8A"/><stop offset=".534" stop-color="#FFF"/><stop offset=".617" stop-color="#EEE"/><stop offset=".781" stop-color="#C1C1C1"/><stop offset="1" stop-color="#7D7D7D"/></linearGradient><path fill="url(#y)" d="M12.2 154.1c-.3.5-.9.8-1.4.5l-10.1-5c-.5-.3-.8-.9-.5-1.4.3-.5.9-.8 1.4-.5l10.1 5c.5.2.8.9.5 1.4z"/><linearGradient id="z" gradientUnits="userSpaceOnUse" x1="139.947" y1="159.119" x2="139.947" y2="161.138" gradientTransform="matrix(.899 .439 -.439 .899 -49.331 -42.946)"><stop offset=".006" stop-color="#8A8A8A"/><stop offset=".534" stop-color="#FFF"/><stop offset=".617" stop-color="#EEE"/><stop offset=".781" stop-color="#C1C1C1"/><stop offset="1" stop-color="#7D7D7D"/></linearGradient><path fill="url(#z)" d="M12.2 165.3c-.3.5-.9.8-1.4.5l-10.1-5c-.5-.3-.8-.9-.5-1.4.3-.5.9-.8 1.4-.5l10.1 5c.5.2.8.9.5 1.4z"/><linearGradient id="A" gradientUnits="userSpaceOnUse" x1="142.387" y1="164.117" x2="142.387" y2="166.134" gradientTransform="matrix(.899 .439 -.439 .899 -49.331 -42.946)"><stop offset=".006" stop-color="#8A8A8A"/><stop offset=".534" stop-color="#FFF"/><stop offset=".617" stop-color="#EEE"/><stop offset=".781" stop-color="#C1C1C1"/><stop offset="1" stop-color="#7D7D7D"/></linearGradient><path fill="url(#A)" d="M12.2 170.9c-.3.5-.9.8-1.4.5l-10.1-5c-.5-.3-.8-.9-.5-1.4.3-.5.9-.8 1.4-.5l10.1 5c.5.2.8.9.5 1.4z"/><linearGradient id="B" gradientUnits="userSpaceOnUse" x1="137.468" y1="154.042" x2="137.468" y2="156.06" gradientTransform="matrix(.899 .439 -.439 .899 -49.331 -42.946)"><stop offset=".006" stop-color="#8A8A8A"/><stop offset=".534" stop-color="#FFF"/><stop offset=".617" stop-color="#EEE"/><stop offset=".781" stop-color="#C1C1C1"/><stop offset="1" stop-color="#7D7D7D"/></linearGradient><path fill="url(#B)" d="M12.2 159.7c-.3.5-.9.8-1.4.5l-10.1-5c-.5-.3-.8-.9-.5-1.4.3-.5.9-.8 1.4-.5l10.1 5c.5.2.8.8.5 1.4z"/><linearGradient id="C" gradientUnits="userSpaceOnUse" x1="81.095" y1="38.593" x2="81.095" y2="40.612" gradientTransform="matrix(.899 .439 -.439 .899 -49.331 -42.946)"><stop offset=".006" stop-color="#8A8A8A"/><stop offset=".534" stop-color="#FFF"/><stop offset=".617" stop-color="#EEE"/><stop offset=".781" stop-color="#C1C1C1"/><stop offset="1" stop-color="#7D7D7D"/></linearGradient><path fill="url(#C)" d="M12.2 31.2c-.3.5-.9.8-1.4.5l-10.1-5c-.5-.3-.8-.9-.5-1.4.3-.5.9-.8 1.4-.5l10.1 5c.5.2.8.9.5 1.4z"/><linearGradient id="D" gradientUnits="userSpaceOnUse" x1="83.534" y1="43.59" x2="83.534" y2="45.608" gradientTransform="matrix(.899 .439 -.439 .899 -49.331 -42.946)"><stop offset=".006" stop-color="#8A8A8A"/><stop offset=".534" stop-color="#FFF"/><stop offset=".617" stop-color="#EEE"/><stop offset=".781" stop-color="#C1C1C1"/><stop offset="1" stop-color="#7D7D7D"/></linearGradient><path fill="url(#D)" d="M12.2 36.8c-.3.5-.9.8-1.4.5l-10.1-5c-.5-.3-.8-.9-.5-1.4.3-.5.9-.8 1.4-.5l10.1 5c.5.2.8.8.5 1.4z"/><linearGradient id="E" gradientUnits="userSpaceOnUse" x1="78.615" y1="33.517" x2="78.615" y2="35.535" gradientTransform="matrix(.899 .439 -.439 .899 -49.331 -42.946)"><stop offset=".006" stop-color="#8A8A8A"/><stop offset=".534" stop-color="#FFF"/><stop offset=".617" stop-color="#EEE"/><stop offset=".781" stop-color="#C1C1C1"/><stop offset="1" stop-color="#7D7D7D"/></linearGradient><path fill="url(#E)" d="M12.2 25.6c-.3.5-.9.8-1.4.5l-10.1-5c-.5-.3-.8-.9-.5-1.4.3-.5.9-.8 1.4-.5l10.1 5c.5.2.8.8.5 1.4z"/><linearGradient id="F" gradientUnits="userSpaceOnUse" x1="144.815" y1="169.089" x2="144.815" y2="171.108" gradientTransform="matrix(.899 .439 -.439 .899 -49.331 -42.946)"><stop offset=".006" stop-color="#8A8A8A"/><stop offset=".534" stop-color="#FFF"/><stop offset=".617" stop-color="#EEE"/><stop offset=".781" stop-color="#C1C1C1"/><stop offset="1" stop-color="#7D7D7D"/></linearGradient><path fill="url(#F)" d="M12.2 176.4c-.3.5-.9.8-1.4.5l-10.1-5c-.5-.3-.8-.9-.5-1.4.3-.5.9-.8 1.4-.5l10.1 5c.5.2.8.9.5 1.4z"/><linearGradient id="G" gradientUnits="userSpaceOnUse" x1="147.255" y1="174.085" x2="147.255" y2="176.103" gradientTransform="matrix(.899 .439 -.439 .899 -49.331 -42.946)"><stop offset=".006" stop-color="#8A8A8A"/><stop offset=".534" stop-color="#FFF"/><stop offset=".617" stop-color="#EEE"/><stop offset=".781" stop-color="#C1C1C1"/><stop offset="1" stop-color="#7D7D7D"/></linearGradient><path fill="url(#G)" d="M12.2 182c-.3.5-.9.8-1.4.5l-10.1-5c-.5-.3-.8-.9-.5-1.4.3-.5.9-.8 1.4-.5l10.1 5c.5.2.8.8.5 1.4z"/><g><path fill="#636464" d="M.3 14.7v.5c.1.2.3.3.4.4l.3.1c.1 0 .2.1.3.1H6l-4.2-2.1c-.1 0-.2-.1-.3-.1h-.1c-.6 0-1.1.5-1.1 1.1z"/><circle fill="#010101" cx="12.4" cy="14.5" r="1.8"/><linearGradient id="H" gradientUnits="userSpaceOnUse" x1="6.73" y1="13.172" x2="6.73" y2="15.19"><stop offset=".006" stop-color="#8A8A8A"/><stop offset=".534" stop-color="#FFF"/><stop offset=".617" stop-color="#EEE"/><stop offset=".781" stop-color="#C1C1C1"/><stop offset="1" stop-color="#7D7D7D"/></linearGradient><path fill="url(#H)" d="M13.5 14.6c0 .6-.5 1.1-1.1 1.1H1.1c-.6 0-1.1-.5-1.1-1.1 0-.6.5-1.1 1.1-1.1h11.3c.6 0 1.1.5 1.1 1.1z"/></g><g><path fill="#636464" d="M.3 20.3v.5c.1.2.3.3.4.4l.3.1c.1 0 .2.1.3.1H6l-4.2-2.1c-.1 0-.2-.1-.3-.1h-.1c-.6 0-1.1.5-1.1 1.1z"/><circle fill="#010101" cx="12.4" cy="20.1" r="1.8"/><linearGradient id="I" gradientUnits="userSpaceOnUse" x1="6.73" y1="18.732" x2="6.73" y2="20.75"><stop offset=".006" stop-color="#8A8A8A"/><stop offset=".534" stop-color="#FFF"/><stop offset=".617" stop-color="#EEE"/><stop offset=".781" stop-color="#C1C1C1"/><stop offset="1" stop-color="#7D7D7D"/></linearGradient><path fill="url(#I)" d="M13.5 20.1c0 .6-.5 1.1-1.1 1.1H1.1c-.6 0-1.1-.5-1.1-1.1 0-.6.5-1.1 1.1-1.1h11.3c.6.1 1.1.6 1.1 1.1z"/></g><g><path fill="#636464" d="M.3 25.9v.5c.1.2.3.3.4.4l.3.1c.1.1.2.1.4.1H6l-4.2-2.1c-.1 0-.2-.1-.3-.1h-.1c-.6.1-1.1.5-1.1 1.1z"/><circle fill="#010101" cx="12.4" cy="25.7" r="1.8"/><linearGradient id="J" gradientUnits="userSpaceOnUse" x1="6.73" y1="24.383" x2="6.73" y2="26.401"><stop offset=".006" stop-color="#8A8A8A"/><stop offset=".534" stop-color="#FFF"/><stop offset=".617" stop-color="#EEE"/><stop offset=".781" stop-color="#C1C1C1"/><stop offset="1" stop-color="#7D7D7D"/></linearGradient><path fill="url(#J)" d="M13.5 25.8c0 .6-.5 1.1-1.1 1.1H1.1c-.6 0-1.1-.5-1.1-1.1 0-.6.5-1.1 1.1-1.1h11.3c.6 0 1.1.5 1.1 1.1z"/></g><g><path fill="#636464" d="M.3 31.5v.5c.1.2.3.3.4.4l.3.1c.1 0 .2.1.3.1H6l-4.2-2.1c-.1 0-.2-.1-.3-.1h-.1c-.6 0-1.1.5-1.1 1.1z"/><circle fill="#010101" cx="12.4" cy="31.3" r="1.8"/><linearGradient id="K" gradientUnits="userSpaceOnUse" x1="6.73" y1="29.943" x2="6.73" y2="31.961"><stop offset=".006" stop-color="#8A8A8A"/><stop offset=".534" stop-color="#FFF"/><stop offset=".617" stop-color="#EEE"/><stop offset=".781" stop-color="#C1C1C1"/><stop offset="1" stop-color="#7D7D7D"/></linearGradient><path fill="url(#K)" d="M13.5 31.4c0 .6-.5 1.1-1.1 1.1H1.1C.5 32.5 0 32 0 31.4c0-.6.5-1.1 1.1-1.1h11.3c.6 0 1.1.5 1.1 1.1z"/></g><g><path fill="#636464" d="M.3 37v.5c.1.2.3.3.4.4l.3.1c.1 0 .2.1.3.1H6L1.8 36h-.4c-.6 0-1.1.4-1.1 1z"/><circle fill="#010101" cx="12.4" cy="36.8" r="1.8"/><linearGradient id="L" gradientUnits="userSpaceOnUse" x1="6.73" y1="35.477" x2="6.73" y2="37.495"><stop offset=".006" stop-color="#8A8A8A"/><stop offset=".534" stop-color="#FFF"/><stop offset=".617" stop-color="#EEE"/><stop offset=".781" stop-color="#C1C1C1"/><stop offset="1" stop-color="#7D7D7D"/></linearGradient><path fill="url(#L)" d="M13.5 36.9c0 .6-.5 1.1-1.1 1.1H1.1C.5 38 0 37.5 0 36.9c0-.6.5-1.1 1.1-1.1h11.3c.6 0 1.1.5 1.1 1.1z"/></g><g><path fill="#636464" d="M.3 42.6v.5c.1.2.3.3.4.4l.3.1c.1 0 .2.1.3.1H6l-4.2-2.1c-.1 0-.2-.1-.3-.1h-.1c-.6 0-1.1.5-1.1 1.1z"/><circle fill="#010101" cx="12.4" cy="42.4" r="1.8"/><linearGradient id="M" gradientUnits="userSpaceOnUse" x1="6.73" y1="41.038" x2="6.73" y2="43.056"><stop offset=".006" stop-color="#8A8A8A"/><stop offset=".534" stop-color="#FFF"/><stop offset=".617" stop-color="#EEE"/><stop offset=".781" stop-color="#C1C1C1"/><stop offset="1" stop-color="#7D7D7D"/></linearGradient><path fill="url(#M)" d="M13.5 42.5c0 .6-.5 1.1-1.1 1.1H1.1C.5 43.5 0 43 0 42.5c0-.6.5-1.1 1.1-1.1h11.3c.6 0 1.1.5 1.1 1.1z"/></g><g><path fill="#636464" d="M.3 48.2v.5c.1.2.3.3.4.4l.3.2c.1 0 .2.1.3.1H6l-4.2-2.1c-.1 0-.2-.1-.3-.1h-.1c-.6 0-1.1.4-1.1 1z"/><circle fill="#010101" cx="12.4" cy="48" r="1.8"/><linearGradient id="N" gradientUnits="userSpaceOnUse" x1="6.73" y1="46.688" x2="6.73" y2="48.706"><stop offset=".006" stop-color="#8A8A8A"/><stop offset=".534" stop-color="#FFF"/><stop offset=".617" stop-color="#EEE"/><stop offset=".781" stop-color="#C1C1C1"/><stop offset="1" stop-color="#7D7D7D"/></linearGradient><path fill="url(#N)" d="M13.5 48.1c0 .6-.5 1.1-1.1 1.1H1.1c-.6 0-1.1-.5-1.1-1.1 0-.6.5-1.1 1.1-1.1h11.3c.6 0 1.1.5 1.1 1.1z"/></g><g><path fill="#636464" d="M.3 53.8v.5c.1.2.3.3.4.4l.3.1c.1 0 .2.1.3.1H6l-4.2-2.1c-.1 0-.2-.1-.3-.1h-.1c-.6 0-1.1.5-1.1 1.1z"/><circle fill="#010101" cx="12.4" cy="53.6" r="1.8"/><linearGradient id="O" gradientUnits="userSpaceOnUse" x1="6.73" y1="52.248" x2="6.73" y2="54.267"><stop offset=".006" stop-color="#8A8A8A"/><stop offset=".534" stop-color="#FFF"/><stop offset=".617" stop-color="#EEE"/><stop offset=".781" stop-color="#C1C1C1"/><stop offset="1" stop-color="#7D7D7D"/></linearGradient><path fill="url(#O)" d="M13.5 53.7c0 .6-.5 1.1-1.1 1.1H1.1c-.6 0-1.1-.5-1.1-1.1 0-.6.5-1.1 1.1-1.1h11.3c.6 0 1.1.5 1.1 1.1z"/></g><g><path fill="#636464" d="M.3 59.4v.5c.1.2.3.3.4.4l.3.1c.1 0 .2.1.3.1H6l-4.2-2.1c-.1 0-.2-.1-.3-.1h-.1c-.6 0-1.1.5-1.1 1.1z"/><circle fill="#010101" cx="12.4" cy="59.2" r="1.8"/><linearGradient id="P" gradientUnits="userSpaceOnUse" x1="6.73" y1="57.841" x2="6.73" y2="59.859"><stop offset=".006" stop-color="#8A8A8A"/><stop offset=".534" stop-color="#FFF"/><stop offset=".617" stop-color="#EEE"/><stop offset=".781" stop-color="#C1C1C1"/><stop offset="1" stop-color="#7D7D7D"/></linearGradient><path fill="url(#P)" d="M13.5 59.3c0 .6-.5 1.1-1.1 1.1H1.1c-.6 0-1.1-.5-1.1-1.1 0-.6.5-1.1 1.1-1.1h11.3c.6 0 1.1.5 1.1 1.1z"/></g><g><path fill="#636464" d="M.3 65v.5c.1.2.3.3.4.4l.3.1h5l-4.2-2c-.1 0-.2-.1-.3-.1h-.1c-.6 0-1.1.5-1.1 1.1z"/><circle fill="#010101" cx="12.4" cy="64.7" r="1.8"/><linearGradient id="Q" gradientUnits="userSpaceOnUse" x1="6.73" y1="63.401" x2="6.73" y2="65.42"><stop offset=".006" stop-color="#8A8A8A"/><stop offset=".534" stop-color="#FFF"/><stop offset=".617" stop-color="#EEE"/><stop offset=".781" stop-color="#C1C1C1"/><stop offset="1" stop-color="#7D7D7D"/></linearGradient><path fill="url(#Q)" d="M13.5 64.8c0 .6-.5 1.1-1.1 1.1H1.1c-.6 0-1.1-.5-1.1-1.1 0-.6.5-1.1 1.1-1.1h11.3c.6 0 1.1.5 1.1 1.1z"/></g><g><path fill="#636464" d="M.3 70.6v.5c.1.2.3.3.4.4l.3.1c.1 0 .2.1.3.1H6l-4.2-2.1c-.1 0-.2-.1-.3-.1h-.1c-.6 0-1.1.5-1.1 1.1z"/><circle fill="#010101" cx="12.4" cy="70.4" r="1.8"/><linearGradient id="R" gradientUnits="userSpaceOnUse" x1="6.73" y1="69.052" x2="6.73" y2="71.07"><stop offset=".006" stop-color="#8A8A8A"/><stop offset=".534" stop-color="#FFF"/><stop offset=".617" stop-color="#EEE"/><stop offset=".781" stop-color="#C1C1C1"/><stop offset="1" stop-color="#7D7D7D"/></linearGradient><path fill="url(#R)" d="M13.5 70.5c0 .6-.5 1.1-1.1 1.1H1.1c-.6 0-1.1-.5-1.1-1.1 0-.6.5-1.1 1.1-1.1h11.3c.6 0 1.1.5 1.1 1.1z"/></g><g><path fill="#636464" d="M.3 76.2v.5c.1.2.3.3.4.4l.3.1c.1 0 .2.1.3.1H6l-4.2-2.1c-.1 0-.2-.1-.3-.1h-.1c-.6 0-1.1.5-1.1 1.1z"/><circle fill="#010101" cx="12.4" cy="76" r="1.8"/><linearGradient id="S" gradientUnits="userSpaceOnUse" x1="6.73" y1="74.612" x2="6.73" y2="76.63"><stop offset=".006" stop-color="#8A8A8A"/><stop offset=".534" stop-color="#FFF"/><stop offset=".617" stop-color="#EEE"/><stop offset=".781" stop-color="#C1C1C1"/><stop offset="1" stop-color="#7D7D7D"/></linearGradient><path fill="url(#S)" d="M13.5 76c0 .6-.5 1.1-1.1 1.1H1.1C.5 77.1 0 76.6 0 76c0-.6.5-1.1 1.1-1.1h11.3c.6 0 1.1.5 1.1 1.1z"/></g><g><path fill="#636464" d="M.3 81.7v.5c.1.2.3.3.4.4l.3.1c.1 0 .2.1.3.1H6l-4.2-2.1c-.1 0-.2-.1-.3-.1h-.1c-.6 0-1.1.5-1.1 1.1z"/><circle fill="#010101" cx="12.4" cy="81.5" r="1.8"/><linearGradient id="T" gradientUnits="userSpaceOnUse" x1="6.73" y1="80.146" x2="6.73" y2="82.164"><stop offset=".006" stop-color="#8A8A8A"/><stop offset=".534" stop-color="#FFF"/><stop offset=".617" stop-color="#EEE"/><stop offset=".781" stop-color="#C1C1C1"/><stop offset="1" stop-color="#7D7D7D"/></linearGradient><path fill="url(#T)" d="M13.5 81.6c0 .6-.5 1.1-1.1 1.1H1.1c-.6 0-1.1-.5-1.1-1.1 0-.6.5-1.1 1.1-1.1h11.3c.6 0 1.1.5 1.1 1.1z"/></g><g><path fill="#636464" d="M.3 87.3v.5c.1.2.3.3.4.4l.3.1c.1 0 .2.1.3.1H6l-4.2-2.1c-.1 0-.2-.1-.3-.1h-.1c-.6 0-1.1.5-1.1 1.1z"/><circle fill="#010101" cx="12.4" cy="87.1" r="1.8"/><linearGradient id="U" gradientUnits="userSpaceOnUse" x1="6.73" y1="85.707" x2="6.73" y2="87.725"><stop offset=".006" stop-color="#8A8A8A"/><stop offset=".534" stop-color="#FFF"/><stop offset=".617" stop-color="#EEE"/><stop offset=".781" stop-color="#C1C1C1"/><stop offset="1" stop-color="#7D7D7D"/></linearGradient><path fill="url(#U)" d="M13.5 87.1c0 .6-.5 1.1-1.1 1.1H1.1c-.6 0-1.1-.5-1.1-1.1 0-.6.5-1.1 1.1-1.1h11.3c.6 0 1.1.5 1.1 1.1z"/></g><g><path fill="#636464" d="M.3 92.9v.5c.1.2.3.3.4.4l.3.1c.1.1.2.1.4.1H6l-4.2-2.1c-.1 0-.2-.1-.3-.1h-.1c-.6 0-1.1.5-1.1 1.1z"/><circle fill="#010101" cx="12.4" cy="92.7" r="1.8"/><linearGradient id="V" gradientUnits="userSpaceOnUse" x1="6.73" y1="91.358" x2="6.73" y2="93.375"><stop offset=".006" stop-color="#8A8A8A"/><stop offset=".534" stop-color="#FFF"/><stop offset=".617" stop-color="#EEE"/><stop offset=".781" stop-color="#C1C1C1"/><stop offset="1" stop-color="#7D7D7D"/></linearGradient><path fill="url(#V)" d="M13.5 92.8c0 .6-.5 1.1-1.1 1.1H1.1c-.6 0-1.1-.5-1.1-1.1 0-.6.5-1.1 1.1-1.1h11.3c.6 0 1.1.5 1.1 1.1z"/></g><g><path fill="#636464" d="M.3 98.5v.5c.1.2.3.3.4.4l.3.1c.1 0 .2.1.3.1H6l-4.2-2.1c-.1 0-.2-.1-.3-.1h-.1c-.6 0-1.1.5-1.1 1.1z"/><circle fill="#010101" cx="12.4" cy="98.3" r="1.8"/><linearGradient id="W" gradientUnits="userSpaceOnUse" x1="6.73" y1="96.918" x2="6.73" y2="98.936"><stop offset=".006" stop-color="#8A8A8A"/><stop offset=".534" stop-color="#FFF"/><stop offset=".617" stop-color="#EEE"/><stop offset=".781" stop-color="#C1C1C1"/><stop offset="1" stop-color="#7D7D7D"/></linearGradient><path fill="url(#W)" d="M13.5 98.3c0 .6-.5 1.1-1.1 1.1H1.1c-.6 0-1.1-.5-1.1-1.1 0-.6.5-1.1 1.1-1.1h11.3c.6.1 1.1.5 1.1 1.1z"/></g><g><path fill="#636464" d="M.3 104.1v.5c.1.2.3.3.4.4l.1.1c.1 0 .2.1.3.1H6l-4.2-2.1c-.1 0-.2-.1-.3-.1h-.1c-.6 0-1.1.5-1.1 1.1z"/><circle fill="#010101" cx="12.4" cy="103.9" r="1.8"/><linearGradient id="X" gradientUnits="userSpaceOnUse" x1="6.73" y1="102.511" x2="6.73" y2="104.529"><stop offset=".006" stop-color="#8A8A8A"/><stop offset=".534" stop-color="#FFF"/><stop offset=".617" stop-color="#EEE"/><stop offset=".781" stop-color="#C1C1C1"/><stop offset="1" stop-color="#7D7D7D"/></linearGradient><path fill="url(#X)" d="M13.5 103.9c0 .6-.5 1.1-1.1 1.1H1.1c-.6 0-1.1-.5-1.1-1.1 0-.6.5-1.1 1.1-1.1h11.3c.6 0 1.1.5 1.1 1.1z"/></g><g><path fill="#636464" d="M.3 109.6v.5c.1.2.3.3.4.4l.1.1c.1 0 .2.1.3.1H6l-4.2-2.1c-.1 0-.2-.1-.3-.1h-.1c-.6 0-1.1.5-1.1 1.1z"/><circle fill="#010101" cx="12.4" cy="109.4" r="1.8"/><linearGradient id="Y" gradientUnits="userSpaceOnUse" x1="6.73" y1="108.07" x2="6.73" y2="110.089"><stop offset=".006" stop-color="#8A8A8A"/><stop offset=".534" stop-color="#FFF"/><stop offset=".617" stop-color="#EEE"/><stop offset=".781" stop-color="#C1C1C1"/><stop offset="1" stop-color="#7D7D7D"/></linearGradient><path fill="url(#Y)" d="M13.5 109.5c0 .6-.5 1.1-1.1 1.1H1.1c-.6 0-1.1-.5-1.1-1.1 0-.6.5-1.1 1.1-1.1h11.3c.6 0 1.1.5 1.1 1.1z"/></g><g><path fill="#636464" d="M.3 115.3v.5c.1.2.3.3.4.4l.1.1c.1 0 .2.1.3.1H6l-4.2-2.1c-.1 0-.2-.1-.3-.1h-.1c-.6 0-1.1.5-1.1 1.1z"/><circle fill="#010101" cx="12.4" cy="115.1" r="1.8"/><linearGradient id="Z" gradientUnits="userSpaceOnUse" x1="6.73" y1="113.722" x2="6.73" y2="115.739"><stop offset=".006" stop-color="#8A8A8A"/><stop offset=".534" stop-color="#FFF"/><stop offset=".617" stop-color="#EEE"/><stop offset=".781" stop-color="#C1C1C1"/><stop offset="1" stop-color="#7D7D7D"/></linearGradient><path fill="url(#Z)" d="M13.5 115.1c0 .6-.5 1.1-1.1 1.1H1.1c-.6 0-1.1-.5-1.1-1.1 0-.6.5-1.1 1.1-1.1h11.3c.6.1 1.1.5 1.1 1.1z"/></g><g><path fill="#636464" d="M.3 120.8v.5c.1.2.3.3.4.4l.1.1c.1 0 .2.1.3.1H6l-4.2-2.1c-.1 0-.2-.1-.3-.1h-.1c-.6.1-1.1.5-1.1 1.1z"/><circle fill="#010101" cx="12.4" cy="120.6" r="1.8"/><linearGradient id="aa" gradientUnits="userSpaceOnUse" x1="6.73" y1="119.282" x2="6.73" y2="121.3"><stop offset=".006" stop-color="#8A8A8A"/><stop offset=".534" stop-color="#FFF"/><stop offset=".617" stop-color="#EEE"/><stop offset=".781" stop-color="#C1C1C1"/><stop offset="1" stop-color="#7D7D7D"/></linearGradient><path fill="url(#aa)" d="M13.5 120.7c0 .6-.5 1.1-1.1 1.1H1.1c-.6 0-1.1-.5-1.1-1.1 0-.6.5-1.1 1.1-1.1h11.3c.6 0 1.1.5 1.1 1.1z"/></g><g><path fill="#636464" d="M.3 126.4v.5c.1.2.3.3.4.4l.1.1c.1 0 .2.1.3.1H6l-4.2-2.1c-.1 0-.2-.1-.3-.1h-.1c-.6 0-1.1.5-1.1 1.1z"/><circle fill="#010101" cx="12.4" cy="126.2" r="1.8"/><linearGradient id="ab" gradientUnits="userSpaceOnUse" x1="6.73" y1="124.874" x2="6.73" y2="126.892"><stop offset=".006" stop-color="#8A8A8A"/><stop offset=".534" stop-color="#FFF"/><stop offset=".617" stop-color="#EEE"/><stop offset=".781" stop-color="#C1C1C1"/><stop offset="1" stop-color="#7D7D7D"/></linearGradient><path fill="url(#ab)" d="M13.5 126.3c0 .6-.5 1.1-1.1 1.1H1.1c-.6 0-1.1-.5-1.1-1.1 0-.6.5-1.1 1.1-1.1h11.3c.6 0 1.1.5 1.1 1.1z"/></g><g><path fill="#636464" d="M.3 132v.5c.1.2.3.3.4.4l.3.1c.1 0 .2.1.3.1H6L1.8 131c-.1 0-.2-.1-.3-.1h-.1c-.6 0-1.1.5-1.1 1.1z"/><circle fill="#010101" cx="12.4" cy="131.8" r="1.8"/><linearGradient id="ac" gradientUnits="userSpaceOnUse" x1="6.73" y1="130.435" x2="6.73" y2="132.453"><stop offset=".006" stop-color="#8A8A8A"/><stop offset=".534" stop-color="#FFF"/><stop offset=".617" stop-color="#EEE"/><stop offset=".781" stop-color="#C1C1C1"/><stop offset="1" stop-color="#7D7D7D"/></linearGradient><path fill="url(#ac)" d="M13.5 131.8c0 .6-.5 1.1-1.1 1.1H1.1c-.6 0-1.1-.5-1.1-1.1 0-.6.5-1.1 1.1-1.1h11.3c.6.1 1.1.6 1.1 1.1z"/></g><g><path fill="#636464" d="M.3 137.6v.5c.1.2.3.3.4.4l.1.1c.1 0 .2.1.3.1H6l-4.2-2.1c-.1 0-.2-.1-.3-.1h-.1c-.6.1-1.1.5-1.1 1.1z"/><circle fill="#010101" cx="12.4" cy="137.4" r="1.8"/><linearGradient id="ad" gradientUnits="userSpaceOnUse" x1="6.73" y1="136.086" x2="6.73" y2="138.104"><stop offset=".006" stop-color="#8A8A8A"/><stop offset=".534" stop-color="#FFF"/><stop offset=".617" stop-color="#EEE"/><stop offset=".781" stop-color="#C1C1C1"/><stop offset="1" stop-color="#7D7D7D"/></linearGradient><path fill="url(#ad)" d="M13.5 137.5c0 .6-.5 1.1-1.1 1.1H1.1c-.6 0-1.1-.5-1.1-1.1 0-.6.5-1.1 1.1-1.1h11.3c.6 0 1.1.5 1.1 1.1z"/></g><g><path fill="#636464" d="M.3 143.2v.5c.1.2.3.3.4.4l.1.1c.1 0 .2.1.3.1H6l-4.2-2.1c-.1 0-.2-.1-.3-.1h-.1c-.6 0-1.1.5-1.1 1.1z"/><circle fill="#010101" cx="12.4" cy="143" r="1.8"/><linearGradient id="ae" gradientUnits="userSpaceOnUse" x1="6.73" y1="141.645" x2="6.73" y2="143.663"><stop offset=".006" stop-color="#8A8A8A"/><stop offset=".534" stop-color="#FFF"/><stop offset=".617" stop-color="#EEE"/><stop offset=".781" stop-color="#C1C1C1"/><stop offset="1" stop-color="#7D7D7D"/></linearGradient><path fill="url(#ae)" d="M13.5 143.1c0 .6-.5 1.1-1.1 1.1H1.1c-.6 0-1.1-.5-1.1-1.1 0-.6.5-1.1 1.1-1.1h11.3c.6 0 1.1.5 1.1 1.1z"/></g><g><path fill="#636464" d="M.3 148.8v.5c.1.2.3.3.4.4l.1.1c.1 0 .2.1.3.1H6l-4.2-2.1c-.1 0-.2-.1-.3-.1h-.1c-.6.1-1.1.6-1.1 1.1z"/><circle fill="#010101" cx="12.4" cy="148.6" r="1.8"/><linearGradient id="af" gradientUnits="userSpaceOnUse" x1="6.73" y1="147.297" x2="6.73" y2="149.314"><stop offset=".006" stop-color="#8A8A8A"/><stop offset=".534" stop-color="#FFF"/><stop offset=".617" stop-color="#EEE"/><stop offset=".781" stop-color="#C1C1C1"/><stop offset="1" stop-color="#7D7D7D"/></linearGradient><path fill="url(#af)" d="M13.5 148.7c0 .6-.5 1.1-1.1 1.1H1.1c-.6 0-1.1-.5-1.1-1.1 0-.6.5-1.1 1.1-1.1h11.3c.6 0 1.1.5 1.1 1.1z"/></g><g><path fill="#636464" d="M.3 154.4v.5c.1.2.3.3.4.4l.1.1c.1 0 .2.1.3.1H6l-4.2-2.1c-.1 0-.2-.1-.3-.1h-.1c-.6 0-1.1.5-1.1 1.1z"/><circle fill="#010101" cx="12.4" cy="154.2" r="1.8"/><linearGradient id="ag" gradientUnits="userSpaceOnUse" x1="6.73" y1="152.857" x2="6.73" y2="154.875"><stop offset=".006" stop-color="#8A8A8A"/><stop offset=".534" stop-color="#FFF"/><stop offset=".617" stop-color="#EEE"/><stop offset=".781" stop-color="#C1C1C1"/><stop offset="1" stop-color="#7D7D7D"/></linearGradient><path fill="url(#ag)" d="M13.5 154.3c0 .6-.5 1.1-1.1 1.1H1.1c-.6 0-1.1-.5-1.1-1.1 0-.6.5-1.1 1.1-1.1h11.3c.6 0 1.1.5 1.1 1.1z"/></g><g><path fill="#636464" d="M.3 160.1v.5c.1.2.3.3.4.4l.1.1c.1 0 .2.1.3.1H6l-4.2-2.1c-.1 0-.2-.1-.3-.1h-.1c-.6 0-1.1.5-1.1 1.1z"/><circle fill="#010101" cx="12.4" cy="159.9" r="1.8"/><linearGradient id="ah" gradientUnits="userSpaceOnUse" x1="6.73" y1="158.508" x2="6.73" y2="160.525"><stop offset=".006" stop-color="#8A8A8A"/><stop offset=".534" stop-color="#FFF"/><stop offset=".617" stop-color="#EEE"/><stop offset=".781" stop-color="#C1C1C1"/><stop offset="1" stop-color="#7D7D7D"/></linearGradient><path fill="url(#ah)" d="M13.5 159.9c0 .6-.5 1.1-1.1 1.1H1.1c-.6 0-1.1-.5-1.1-1.1 0-.6.5-1.1 1.1-1.1h11.3c.6 0 1.1.5 1.1 1.1z"/></g><g><path fill="#636464" d="M.3 165.6v.5c.1.2.3.3.4.4l.1.1c.1 0 .2.1.3.1H6l-4.2-2.1c-.1 0-.2-.1-.3-.1h-.1c-.6 0-1.1.5-1.1 1.1z"/><circle fill="#010101" cx="12.4" cy="165.4" r="1.8"/><linearGradient id="ai" gradientUnits="userSpaceOnUse" x1="6.73" y1="164.068" x2="6.73" y2="166.085"><stop offset=".006" stop-color="#8A8A8A"/><stop offset=".534" stop-color="#FFF"/><stop offset=".617" stop-color="#EEE"/><stop offset=".781" stop-color="#C1C1C1"/><stop offset="1" stop-color="#7D7D7D"/></linearGradient><path fill="url(#ai)" d="M13.5 165.5c0 .6-.5 1.1-1.1 1.1H1.1c-.6 0-1.1-.5-1.1-1.1 0-.6.5-1.1 1.1-1.1h11.3c.6 0 1.1.5 1.1 1.1z"/></g><g><path fill="#636464" d="M.3 171.2v.5c.1.2.3.3.4.4l.1.1c.1 0 .2.1.3.1H6l-4.2-2.1c-.1 0-.2-.1-.3-.1h-.1c-.6 0-1.1.5-1.1 1.1z"/><circle fill="#010101" cx="12.4" cy="170.9" r="1.8"/><linearGradient id="aj" gradientUnits="userSpaceOnUse" x1="6.73" y1="169.603" x2="6.73" y2="171.62"><stop offset=".006" stop-color="#8A8A8A"/><stop offset=".534" stop-color="#FFF"/><stop offset=".617" stop-color="#EEE"/><stop offset=".781" stop-color="#C1C1C1"/><stop offset="1" stop-color="#7D7D7D"/></linearGradient><path fill="url(#aj)" d="M13.5 171c0 .6-.5 1.1-1.1 1.1H1.1c-.6 0-1.1-.5-1.1-1.1 0-.6.5-1.1 1.1-1.1h11.3c.6 0 1.1.5 1.1 1.1z"/></g><g><path fill="#636464" d="M.3 176.7v.5c.1.2.3.3.4.4l.1.1c.1 0 .2.1.3.1H6l-4.2-2.1c-.1 0-.2-.1-.3-.1h-.1c-.6 0-1.1.5-1.1 1.1z"/><circle fill="#010101" cx="12.4" cy="176.5" r="1.8"/><linearGradient id="ak" gradientUnits="userSpaceOnUse" x1="6.73" y1="175.164" x2="6.73" y2="177.181"><stop offset=".006" stop-color="#8A8A8A"/><stop offset=".534" stop-color="#FFF"/><stop offset=".617" stop-color="#EEE"/><stop offset=".781" stop-color="#C1C1C1"/><stop offset="1" stop-color="#7D7D7D"/></linearGradient><path fill="url(#ak)" d="M13.5 176.6c0 .6-.5 1.1-1.1 1.1H1.1c-.6 0-1.1-.5-1.1-1.1 0-.6.5-1.1 1.1-1.1h11.3c.6 0 1.1.5 1.1 1.1z"/></g><g><path fill="#636464" d="M.3 182v.5c.1.2.3.3.4.4l.3.1c.1 0 .2.1.3.1H6L1.8 181c-.1 0-.2-.1-.3-.1h-.1c-.6 0-1.1.5-1.1 1.1z"/><circle fill="#010101" cx="12.4" cy="181.8" r="1.8"/><linearGradient id="al" gradientUnits="userSpaceOnUse" x1="6.73" y1="180.461" x2="6.73" y2="182.478"><stop offset=".006" stop-color="#8A8A8A"/><stop offset=".534" stop-color="#FFF"/><stop offset=".617" stop-color="#EEE"/><stop offset=".781" stop-color="#C1C1C1"/><stop offset="1" stop-color="#7D7D7D"/></linearGradient><path fill="url(#al)" d="M13.5 181.9c0 .6-.5 1.1-1.1 1.1H1.1c-.6 0-1.1-.5-1.1-1.1 0-.6.5-1.1 1.1-1.1h11.3c.6 0 1.1.5 1.1 1.1z"/></g><g><g fill="#010101"><path d="M27 76.5h11.6v2.7h-4v15.5h-3.5V79.2H27v-2.7zM44.7 86.9v7.8h-3.5V76.5h6.6c3 0 5.3 1 5.3 4.4 0 2-.5 4.1-2.8 4.4 2.1.3 2.7 1.6 2.7 3.3 0 .8-.1 5.2.7 5.8v.3h-3.8c-.4-1.2-.3-3.4-.4-4.6 0-1.1 0-2.6-1.2-3-.9-.3-2-.2-2.9-.2h-.7zm0-2.7h2.7c1.1-.1 2-.8 2-2.6 0-2-.9-2.4-2.2-2.4h-2.6v5zM55.6 94.7L60 76.5h4.7l4.2 18.2h-3.7l-.9-4.6h-4.1l-.9 4.6h-3.7zm5.1-7.3h3l-.9-5.2c-.2-.9-.2-1.7-.3-2.5 0-.4-.1-.8-.1-1.2 0 .4-.1.8-.1 1.2-.1.9-.2 1.7-.3 2.5l-1.3 5.2zM71.4 94.7V76.5h3.5v18.2h-3.5zM87.2 76.5h3.5v18.2h-3.6l-2.7-6.5c-.9-2.2-1.7-4.4-2.5-7.2.1 1.5.3 3.4.4 5.2.1 1.8.2 3.6.2 5.1v3.4H79V76.5h3.6l2.7 6.6c.9 2.1 1.6 4.3 2.5 7.2-.1-1.7-.2-3.4-.3-5.2-.1-1.7-.2-3.5-.2-5.1v-3.5zM94.7 94.7V76.5h3.5v18.2h-3.5zM110.5 76.5h3.5v18.2h-3.6l-2.7-6.5c-.9-2.2-1.7-4.4-2.5-7.2.1 1.5.3 3.4.4 5.2.1 1.8.2 3.6.2 5.1v3.4h-3.5V76.5h3.6l2.7 6.6c.9 2.1 1.6 4.3 2.5 7.2-.1-1.7-.2-3.4-.3-5.2-.1-1.7-.2-3.5-.2-5.1v-3.5zM117.6 84.2c.1-4.6.5-8.1 6.1-8.1 3 0 5 .8 5.8 3.9.2.7.1 1.5.2 2.2h-3.5c0-1.8-.2-3.3-2.5-3.4-2.7 0-2.5 3.2-2.5 4.6v5.1c0 1.5.1 4 2.5 4 2 0 2.6-2.1 2.6-4.8h-2.4V85h5.8v9.8H127v-2.1c-.7 1.9-2 2.4-3.3 2.5-5.7 0-6.1-3.5-6.1-8.4v-2.6zM37.8 120h-3.5v-18.2h5.5l1.9 8.5c.3 1.4.5 2.8.6 4.2.2-1.8.3-3 .5-4.2l1.9-8.5h5.5V120h-3.5v-5.7c0-3.6.1-7.2.3-10.9L43.4 120h-2.1l-3.6-16.6h-.1c.2 3.6.3 7.2.3 10.9v5.7zM52.8 120l4.4-18.2h4.7l4.2 18.2h-3.7l-.9-4.6h-4.1l-.9 4.6h-3.7zm5.2-7.3h3l-.9-5.2c-.2-.9-.2-1.7-.3-2.5 0-.4-.1-.8-.1-1.2 0 .4-.1.8-.1 1.2-.1.9-.2 1.7-.3 2.5l-1.3 5.2zM77 101.8h3.5V120h-3.6l-2.7-6.5c-.9-2.2-1.7-4.4-2.5-7.2.1 1.5.3 3.4.4 5.2.1 1.8.2 3.6.2 5.1v3.4h-3.5v-18.2h3.6l2.7 6.6c.9 2.1 1.6 4.3 2.5 7.2-.1-1.7-.2-3.4-.3-5.2-.1-1.7-.2-3.5-.2-5.1v-3.5zM92.8 101.8h3.5v12.7c0 4-1.3 6-5.9 6-4.6 0-5.9-1.9-5.9-6v-12.7H88v12.4c0 1.7.1 3.5 2.5 3.5 2.3 0 2.4-1.7 2.4-3.5v-12.4zM98.7 120l4.4-18.2h4.7L112 120h-3.7l-.9-4.6h-4.1l-.9 4.6h-3.7zm5.2-7.3h3l-.9-5.2c-.2-.9-.2-1.7-.3-2.5 0-.4-.1-.8-.1-1.2 0 .4-.1.8-.1 1.2-.1.9-.2 1.7-.3 2.5l-1.3 5.2zM114.6 120v-18.2h3.5v15.5h6.4v2.7h-9.9z"/></g></g><g><g fill="#010101"><path d="M92.1 65.2l-1.2.6c-.1.1-.2.1-.3 0-.6-.5-1.2-.9-1.8-1.4-.1 0-.2-.1-.3-.1-.3.1-.7.1-1 .2-.1 0-.2.1-.2.2-.4.6-.8 1.3-1.1 2-.1.1-.1.2-.3.2-.4 0-.8-.1-1.2-.1-.2 0-.2-.1-.3-.2-.2-.7-.5-1.4-.8-2.1 0-.1-.1-.2-.2-.2l-.9-.3c-.1-.1-.2 0-.3 0-.7.4-1.3.7-2 1-.1.1-.2.1-.3 0-.3-.3-.7-.5-1-.8-.1-.1-.1-.2-.1-.3.2-.7.3-1.5.5-2.2 0-.1 0-.2-.1-.3-.2-.2-.4-.5-.6-.7-.1-.1-.2-.1-.2-.1-.7-.1-1.5-.1-2.2-.2-.1 0-.2-.1-.3-.2-.1-.4-.3-.8-.4-1.1-.1-.1 0-.2.1-.3.5-.5 1.1-1 1.6-1.6.1-.1.1-.2.1-.3 0-.3 0-.7-.1-1 0-.1-.1-.2-.1-.2-.6-.5-1.2-.9-1.8-1.4-.1-.1-.2-.2-.1-.3l.3-1.2c0-.1.1-.2.2-.2.7-.2 1.5-.3 2.2-.5.1 0 .2-.1.3-.2.1-.3.3-.5.4-.8 0-.1.1-.2 0-.3-.2-.7-.5-1.4-.7-2.1 0-.1 0-.2.1-.3l.9-.9c.1-.1.2-.1.3-.1.7.3 1.4.5 2.1.8.1.1.2.1.4 0 .3-.1.5-.3.8-.4.1-.1.2-.1.2-.3.2-.7.3-1.4.5-2.2 0-.1.1-.2.2-.2.4-.1.8-.2 1.2-.2.1 0 .2 0 .3.1.4.6.9 1.2 1.4 1.8.1.1.2.1.2.1.3 0 .6.1.9.1.1 0 .2 0 .3-.1.5-.5 1.1-1 1.6-1.6.1-.1.2-.1.3-.1.4.2.7.3 1.1.4.1 0 .2.1.2.3 0 .7.1 1.5.2 2.2 0 .1.1.2.1.3.2.2.5.4.8.6.1.1.2.1.3.1.8-.1 1.6-.3 2.4-.5.2.4.5.7.7 1 .1.1.1.2 0 .4-.4.6-.7 1.3-1.1 1.9 0 .1-.1.2 0 .3l.3.9c0 .1.1.2.2.2.7.3 1.4.5 2.1.8.1 0 .2.1.2.3 0 .4 0 .8.1 1.2 0 .1 0 .2-.1.3-.7.4-1.3.7-2 1.1-.1 0-.2.1-.2.2-.1.3-.2.6-.2.9v.3c.4.6.9 1.2 1.3 1.8.1.1.1.2 0 .3-.2.4-.4.8-.7 1.2-.8-.1-1.7-.1-2.5-.2 0 0-.1 0-.2.1l-.7.7s-.1.1-.1.2c.2 1 .2 1.8.3 2.7zm-8.8-12.4c-1.6 1.6-1.7 4.2-.1 5.8 1.6 1.7 4.2 1.7 5.9.1 1.6-1.6 1.6-4.2.1-5.8-1.6-1.7-4.2-1.7-5.9-.1zM66.7 49.4c.4.5.7 1 1 1.5.3.5.6.7 1.1.8.3 0 .6 0 .8-.2.5-.4 1.1-.7 1.6-1.1.1-.1.2-.1.3 0 .3.3.7.5 1 .8.1.1.1.2.1.3-.2.7-.5 1.4-.7 2.1v.3c.1.2.2.5.4.7 0 .1.1.2.2.2.7.2 1.4.5 2.1.7.1 0 .2.1.2.2V57c0 .1 0 .2-.2.2-.7.3-1.4.5-2.1.8-.1 0-.2.1-.2.2-.1.3-.4.6-.4.9 0 .3.2.6.3.9.2.5.3.9.5 1.4 0 .1 0 .2-.1.2-.3.3-.7.6-1 .8-.1.1-.2.1-.3 0-.6-.4-1.3-.8-2-1.1-.1 0-.2-.1-.3 0-.3.1-.6.1-.8.2-.1 0-.2.1-.2.2-.4.6-.8 1.3-1.2 1.9-.1.1-.1.2-.3.1l-1.2-.3c-.1 0-.2-.1-.2-.2-.1-.7-.2-1.5-.3-2.2 0-.1-.1-.2-.2-.3-.2-.2-.4-.3-.5-.4-.2-.1-.3-.2-.5-.1l-2.1.3c-.1 0-.2 0-.3-.1-.2-.4-.4-.7-.6-1.1-.1-.1-.1-.2.1-.4.5-.5 1-1.1 1.5-1.6.1-.1.1-.2.1-.3 0-.3.1-.7 0-1-.1-.3-.4-.5-.7-.7l-1-1c-.1-.1-.1-.2 0-.3.2-.4.4-.8.5-1.2.1-.1.1-.1.2-.1.7.1 1.5.1 2.2.2.1 0 .2-.1.3-.1.1 0 .1-.1.2-.2.5-.3.6-.7.6-1.2 0-.6.1-1.1.2-1.7 0-.1.1-.2.2-.2.4-.1.8-.2 1.3-.3.3.2.3.2.4.2zm2.4 5.8c-.8-.8-2.1-.8-2.9-.1-.8.8-.8 2.1 0 3 .8.8 2.1.8 2.9 0 .8-.8.8-2.1 0-2.9z"/></g></g></svg>