<svg version="1" xmlns="http://www.w3.org/2000/svg" width="103.8" height="201.8" viewBox="0 0 103.8 201.8"><path fill="#010101" d="M103.8 191.5c0 5.5-4.4 10-10 10l-82.5.2c-5.5 0-10-4.4-10-10L.9 12.1c0-5.5 4.4-10 10-10l82.5-.2c5.5 0 10 4.4 10 10l.4 179.6z"/><path fill="#020202" d="M81.8 1.9C81.6.8 80.7 0 79.6 0H61.5c-1.1 0-2 .8-2.2 1.9h22.5zM1 49.4c-.6.2-1 1.2-1 2.4v19.8c0 1.2.4 2.2 1 2.4V49.4z"/><path fill="#808184" d="M60.9 13.4c0 1-.8 1.9-1.9 1.9H45.2c-1 0-1.9-.8-1.9-1.9 0-1 .8-1.9 1.9-1.9H59c1.1.1 1.9.9 1.9 1.9z"/><path fill="#E5E5E4" d="M7.214 22.01l89.9-.22.372 150.3-89.9.22z"/><path fill="#808184" d="M28.5 185.1H16l1.4-1.4c.1-.1.1-.3 0-.4-.1-.1-.3-.1-.4 0l-1.9 1.9s0 .1-.1.1v.2s0 .1.1.1l1.9 1.9c.1.1.1.1.2.1s.2 0 .2-.1c.1-.1.1-.3 0-.4l-1.4-1.4h12.5c.7 0 1.2.5 1.2 1.2v.6c0 .7-.5 1.2-1.2 1.2h-6.8c-.2 0-.3.1-.3.3 0 .2.1.3.3.3h6.8c1 0 1.8-.8 1.8-1.8v-.6c0-1-.8-1.8-1.8-1.8zM60.7 189.8H45.2V185l7.8-2.6 7.8 2.5-.1 4.9zm-15-.6H60v-3.7l-7.2-2.3-7.2 2.4.1 3.6z"/><g fill="#808184"><path d="M76.4 183.817l13.4-.033v.6l-13.4.033zM78.1 185.415l11.7-.03v.6l-11.7.03zM78.1 187.015l11.7-.03v.6l-11.7.03zM78.1 188.615l11.7-.03v.6l-11.7.03z"/></g><circle fill="#E5E5E4" cx="89.4" cy="13.4" r="1.8"/><circle fill="#808184" cx="83.3" cy="13.4" r="1.8"/><g><path fill="#E4B822" d="M76.7 38.3c-1.1-1.7-4.4-3-5.8-1.5-.2.2-.3.3-.4.5.4.1.8.3 1 .7.2.5.3 1.7-.1 2.4.1.1.2.3.3.5.1.3.3.7.3 1.2.3.2.7.3.9.4.5.1 1.1.1 1.6.1.7-.1 1.3-.4 1.7-.8.9-1 1.3-2.3.5-3.5z"/><path fill="#61B8DD" d="M69.2 40.4c.3-.2.6-.3.9-.4-.4-1-.2-1.9.3-2.7-.5-.1-1 0-1.4.1-.9.2-1.2.7-1.2 1.6 0 .7.4 1.4 1 1.8l.4-.4z"/><path fill="#DDB929" d="M70.2 40c.3 0 .6 0 .9.1.1.1.2.1.3.2.4-.7.4-1.9.1-2.4-.2-.4-.6-.6-1-.7-.6.9-.7 1.8-.3 2.8z"/><path fill="#668439" d="M70.2 40c.3 0 .6 0 .9.1.1.1.2.1.3.2.4-.7.4-1.9.1-2.4-.2-.4-.6-.6-1-.7-.6.9-.7 1.8-.3 2.8z"/><path fill="#E61489" d="M70.7 40.9c-.3.1-.5.1-.8.1-.4 0-.8-.1-1.1-.3-.4.5-.7 1.3-.5 1.9.3 0 .6 0 .7.3.1.1.1.4.1.7.9.5 1.7.3 2.6-.8.3-.2.3-.5.3-.8-.3-.2-.6-.3-.7-.5l-.6-.6z"/><path fill="#DDB929" d="M71.3 40.4c-.1.1-.2.3-.3.3-.1.1-.2.1-.3.2.2.2.3.4.6.6.1.2.4.3.7.5 0-.4-.2-.8-.3-1.2-.1-.1-.2-.3-.4-.4z"/><path fill="#BF272A" d="M71.3 40.4c-.1.1-.2.3-.3.3-.1.1-.2.1-.3.2.2.2.3.4.6.6.1.2.4.3.7.5 0-.4-.2-.8-.3-1.2-.1-.1-.2-.3-.4-.4z"/><path fill="#61B7DE" d="M69.9 41c.3 0 .5 0 .8-.2-.2-.3-.4-.6-.5-.9-.3.1-.7.2-.9.4-.1.1-.3.2-.4.4.3.3.6.4 1 .3z"/><path fill="#6E2A77" d="M69.9 41c.3 0 .5 0 .8-.2-.2-.3-.4-.6-.5-.9-.3.1-.7.2-.9.4-.1.1-.3.2-.4.4.3.3.6.4 1 .3z"/><path fill="#DDB929" d="M71 40.1c-.2-.1-.5-.1-.8-.1.1.3.3.6.5.9.1 0 .2-.1.3-.2l.3-.3c0-.1-.1-.2-.3-.3z"/><path fill="#61B7DE" d="M71 40.1c-.2-.1-.5-.1-.8-.1.1.3.3.6.5.9.1 0 .2-.1.3-.2l.3-.3c0-.1-.1-.2-.3-.3z"/><path fill="#69262E" d="M71 40.1c-.2-.1-.5-.1-.8-.1.1.3.3.6.5.9.1 0 .2-.1.3-.2l.3-.3c0-.1-.1-.2-.3-.3z"/><path fill="#EC8026" d="M68.4 42.6c-.1 0-.1 0 0 0h-.3c-.4.1-.5.3-.5.7 0 .5.4 1 .9.9.2 0 .4 0 .5-.1.2-.1.2-.3.3-.5 0 0-.1 0-.1-.1-.5-.1-.8-.5-.8-.9z"/><path fill="#E6178A" d="M69.1 43c-.1-.3-.4-.3-.7-.3.1.4.3.7.7 1l.1.1c0-.4 0-.7-.1-.8z"/><path fill="#ED8027" d="M69.1 43c-.1-.3-.4-.3-.7-.3.1.4.3.7.7 1l.1.1c0-.4 0-.7-.1-.8z"/><path fill="#CE1F42" d="M69.1 43c-.1-.3-.5-.3-.8-.3.1.4.3.7.7 1 0 0 .1 0 .1.1.1-.4.1-.7 0-.8"/><path fill="#221F1F" d="M74.1 45.9c-.5-.1-1.2-.2-1.5-.2-2 0-3 1.3-3 3.4 0 1.7.7 2.8 2.2 2.8 1 0 1.5-.5 1.8-1.1v.6c0 .3.2.5.5.5s.5-.2.5-.5v-4.7c0-.5 0-.7-.5-.8zm-.4 3.1c0 .8-.5 2.1-1.8 2.1-.9 0-1.2-1.1-1.2-2.1 0-1.5.5-2.6 1.8-2.6.4 0 .9.1 1.1.2l.1 2.4zm-6.2-2.8c0-.3.2-.5.5-.5s.5.2.5.5v5.1c0 .3-.2.5-.5.5s-.5-.2-.5-.5v-5.1zm-1.6 4.5c.1-.1.3-.2.5-.2s.4.1.4.4c0 .2-.1.3-.2.4-.4.3-1.1.5-1.8.5-1.7 0-2.6-1.1-2.6-3.1 0-2.4 1.5-3.1 2.6-3.1.6 0 1.2.1 1.8.6.1.1.2.2.2.3 0 .2-.2.4-.4.4-.1 0-.3-.1-.4-.2-.4-.3-.7-.4-1.2-.4-.9 0-1.6.7-1.6 2.2 0 1.4.5 2.3 1.7 2.3.2.2.6.2 1-.1m-7.1-5c-1.2 0-2.7.6-2.7 3.1 0 2.1 1 3.1 2.5 3.1s2.7-1 2.7-3.3c0-2.7-1.7-2.9-2.5-2.9zm-.1 5.4c-1.3 0-1.6-1.3-1.6-2.5s.6-2.2 1.6-2.2c1.1 0 1.6 1 1.6 2.3 0 1.4-.6 2.4-1.6 2.4zm-7.1-.5c.1 0 .2.1.3.1.4.2.8.4 1.3.4.6 0 1.1-.3 1.1-1s-.6-.9-1.3-1.1c-.8-.3-1.7-.6-1.7-1.7 0-1.2.9-1.7 2-1.7.7 0 1.2.2 1.6.4.1.1.3.2.3.4s-.2.4-.4.4c-.1 0-.2-.1-.3-.1-.3-.2-.7-.3-1.1-.3-.5 0-1 .2-1 .8 0 .6.6.8 1.3 1 .8.3 1.7.6 1.7 1.8 0 1.2-.8 1.8-2 1.8-.9 0-1.4-.2-1.8-.4-.2-.1-.3-.2-.3-.4-.1-.2 0-.4.3-.4M43.2 48c0-.8-.3-1.5-1.2-1.5-.9 0-1.5.9-1.5 1.9v2.9c0 .3-.2.5-.5.5s-.5-.2-.5-.5v-5.1c0-.3.2-.5.5-.5s.5.2.5.5v.4c.4-.7 1.1-1 1.8-1 1.3 0 2 .7 2 2v3.6c0 .3-.2.5-.5.5s-.5-.2-.5-.5l-.1-3.2zm-8.3-1.9c.1-.2.2-.3.4-.3.3 0 .6.3.5.7l-1.9 5c-.1.2-.2.4-.4.4s-.3-.2-.4-.4l-1.9-5c-.1-.4 0-.7.4-.7.2 0 .4.1.5.3l1.4 3.8 1.4-3.8zm-8.3-2.2c0-.3.2-.5.5-.5s.5.2.5.5v7.6c0 .3-.2.5-.5.5s-.5-.2-.5-.5v-7.6zm49.6-.1c0-.3.2-.5.5-.5s.5.2.5.5v7.6c0 .3-.2.5-.5.5s-.5-.2-.5-.5v-7.6zm-26.6 2.1c-.5-.1-.9-.2-1.3-.2-1.5 0-2.8 1-2.8 3 0 2.1.9 2.8 2 2.9l-.2.1c-.6.4-1.3.9-1.3 1.8 0 1 .6 1.6 1.9 1.6 2.3 0 2.4-2.2 2.4-3.5v-5c-.1-.5-.2-.6-.7-.7zm-.3 6.3c0 1.3-.3 2.3-1.4 2.3-.6 0-1-.3-1-.9 0-.5.5-1 1.2-1.5l1.3-1.1-.1 1.2zm0-3.1c0 .9-.6 1.8-1.4 1.8-1.4 0-1.5-1.4-1.5-2.2 0-1.5.7-2.3 1.7-2.3.5 0 .8.1 1.2.2v2.5zM37 46.3c0-.3.2-.5.5-.5s.5.2.5.5v5.1c0 .3-.2.5-.5.5s-.5-.2-.5-.5v-5.1zm-7.7 0c0-.3.2-.5.5-.5s.5.2.5.5v5.1c0 .3-.2.5-.5.5s-.5-.2-.5-.5v-5.1z"/><g><path d="M15.8 143.5v-32.9h32.9v32.9H15.8zm26.3-26.2H22.4v19.6h19.7v-19.6zM55.4 71.1h32.9V104H55.4V71.1zm26.3 26.3c0-.3.1-.5.1-.7V78.6c0-.8-.3-.9-.9-.9h-18c-.3 0-.5 0-.7.1v19.7c6.4-.1 12.9-.1 19.5-.1zM62 143.6h-6.6v-32.9h19.7v6.5h6.6v-6.5h6.5v19.7H68.5v-6.5h-6.6c.1 6.5.1 13.1.1 19.7z"/><path d="M68.6 137.1h6.5v6.5h-6.5v-6.5zM88.3 143.6h-6.5v-6.5h6.5v6.5zM35.5 130.4H29v-6.5h6.5v6.5zM68.6 84.3h6.5v6.5h-6.5v-6.5zM42.2 104h6.6V71.1H29.1v6.5h-6.6v-6.5H16v19.7h19.7v-6.5h6.6c-.1 6.6-.1 13.1-.1 19.7z"/><path d="M35.5 97.5H29v6.5h6.5v-6.5zM15.9 104h6.5v-6.5h-6.5v6.5z"/></g></g></svg>