<svg id="Layer_1" xmlns="http://www.w3.org/2000/svg" viewBox="-53 19.2 93 162.8"><style>.st0{fill:#FFFFFF;} .st1{fill:#902C8A;} .st2{fill:#902C8A;stroke:#FFFFFF;stroke-width:2;stroke-miterlimit:10;}</style><circle class="st0" cx="-6.8" cy="65.6" r="42.9"/><path class="st1" d="M-6.7 140.2c-5-8.4-10-16.6-14.8-24.8-2.7-4.7-5.9-8.4-10.7-11.4C-48 94.2-56 74.2-52 56.3c4.2-19.2 19.2-33.6 37.9-36.5 30.6-4.7 57 19.7 53.9 50.3-1.6 16.1-9.9 28-23.9 36.2-2 1.2-3.9 2.9-5.1 4.9C5.4 119.9.3 128.8-5 137.6c-.4.8-1 1.5-1.7 2.6zm39.9-74.7c0-21.6-17.5-38.9-39.4-38.9-21.8 0-39.4 17.4-39.3 39 0 21.5 17.8 39 39.4 39 21.6-.1 39.3-17.6 39.3-39.1z" id="dBwjfH.tif"/><path class="st1" d="M-20.2 73.9H-31c-1 0-1.9-.8-1.9-1.9 0-.6.3-1.3.8-1.7 7-5.2 9.2-7.2 9.2-9.4 0-1.6-1.5-2.4-3-2.4s-2.8.4-3.8 1.1c-.4.3-.7.4-1.1.4-.9 0-1.7-.8-1.7-1.8 0-.3.1-.6.3-.8.9-1.4 4-2.4 6.4-2.4 4 0 7.1 2.2 7.1 6 0 3.2-2.6 6-7.5 9.5h6.1c.9 0 1.7.8 1.7 1.7-.1.9-.8 1.7-1.8 1.7zM-8.5 74.2c-5.3 0-7.7-4.8-7.7-9.7 0-4.8 2.4-9.6 7.7-9.6s7.7 4.8 7.7 9.6c0 4.9-2.4 9.7-7.7 9.7zm0-15.7c-2.7 0-3.7 2.7-3.7 6.1 0 3.4 1 6.1 3.7 6.1s3.7-2.7 3.7-6.1c0-3.5-1.1-6.1-3.7-6.1zM5.6 64.2c-2.9 0-4.7-2-4.7-4.6 0-2.6 1.9-4.7 4.7-4.7 2.9 0 4.8 2.1 4.8 4.7 0 2.7-1.9 4.6-4.8 4.6zm0-2.1c1.3 0 2.2-1 2.2-2.4 0-1.6-.9-2.5-2.2-2.5s-2.2.9-2.2 2.5c0 1.4 1 2.4 2.2 2.4zm.5 11.6c-.2.3-.4.4-.7.4-.5 0-.9-.4-.9-.9 0-.2.1-.3.1-.5l11-17.3c.2-.3.4-.4.7-.4.5 0 .9.4.9.9 0 .1-.1.3-.1.4l-11 17.4zm9.8.5c-2.9 0-4.7-2-4.7-4.6s1.9-4.7 4.7-4.7c2.9 0 4.8 2.1 4.8 4.7s-1.9 4.6-4.8 4.6zm0-2.1c1.3 0 2.2-.9 2.2-2.4s-1-2.5-2.2-2.5c-1.3 0-2.2 1-2.2 2.5 0 1.4.9 2.4 2.2 2.4z"/><circle class="st2" cx="-6.3" cy="162.3" r="18.2"/></svg>