<svg xmlns="http://www.w3.org/2000/svg" width="103.8" height="201.8" viewBox="0 0 103.8 201.8"><path fill="#010101" d="M103.8 191.5c0 5.5-4.4 10-10 10l-82.5.2c-5.5 0-10-4.4-10-10L.9 12.1c0-5.5 4.4-10 10-10l82.5-.2c5.5 0 10 4.4 10 10l.4 179.6z"/><path fill="#020202" d="M81.8 1.9C81.6.8 80.7 0 79.6 0H61.5c-1.1 0-2 .8-2.2 1.9h22.5zM1 49.4c-.6.2-1 1.2-1 2.4v19.8c0 1.2.4 2.2 1 2.4V49.4z"/><path fill="#808184" d="M60.9 13.4c0 1-.8 1.9-1.9 1.9H45.2c-1 0-1.9-.8-1.9-1.9 0-1 .8-1.9 1.9-1.9H59c1.1.1 1.9.9 1.9 1.9z"/><path fill="#E5E5E4" d="M97.486 172.09l-89.9.22-.372-150.3 89.9-.22z"/><path fill="#808184" d="M28.5 185.1H16l1.4-1.4c.1-.1.1-.3 0-.4-.1-.1-.3-.1-.4 0l-1.9 1.9s0 .1-.1.1v.2s0 .1.1.1l1.9 1.9c.1.1.1.1.2.1s.2 0 .2-.1c.1-.1.1-.3 0-.4l-1.4-1.4h12.5c.7 0 1.2.5 1.2 1.2v.6c0 .7-.5 1.2-1.2 1.2h-6.8c-.2 0-.3.1-.3.3s.1.3.3.3h6.8c1 0 1.8-.8 1.8-1.8v-.6c0-1-.8-1.8-1.8-1.8zM60.7 189.8H45.2V185l7.8-2.6 7.8 2.5-.1 4.9zm-15-.6H60v-3.7l-7.2-2.3-7.2 2.4.1 3.6z"/><g fill="#808184"><path d="M89.8 184.384l-13.4.033v-.6l13.4-.033zM89.8 185.986l-11.7.03v-.6l11.7-.03zM89.8 187.586l-11.7.03v-.6l11.7-.03zM89.8 189.186l-11.7.03v-.6l11.7-.03z"/></g><circle fill="#E5E5E4" cx="89.4" cy="13.4" r="1.8"/><circle fill="#808184" cx="83.3" cy="13.4" r="1.8"/><g><path d="M15.8 131.5V98.6h32.9v32.9H15.8zm26.3-26.2H22.4v19.6h19.7v-19.6zM55.4 59.1h32.9V92H55.4V59.1zm26.3 26.3c0-.3.1-.5.1-.7V66.6c0-.8-.3-.9-.9-.9h-18c-.3 0-.5 0-.7.1v19.7c6.4-.1 12.9-.1 19.5-.1zM62 131.6h-6.6V98.7h19.7v6.5h6.6v-6.5h6.5v19.7H68.5v-6.5h-6.6c.1 6.5.1 13.1.1 19.7z"/><path d="M68.6 125.1h6.5v6.5h-6.5v-6.5zM88.3 131.6h-6.5v-6.5h6.5v6.5zM35.5 118.4H29v-6.5h6.5v6.5zM68.6 72.3h6.5v6.5h-6.5v-6.5zM42.2 92h6.6V59.1H29.1v6.5h-6.6v-6.5H16v19.7h19.7v-6.5h6.6c-.1 6.6-.1 13.1-.1 19.7z"/><path d="M35.5 85.5H29V92h6.5v-6.5zM15.9 92h6.5v-6.5h-6.5V92z"/></g></svg>