<svg version="1" xmlns="http://www.w3.org/2000/svg" width="184.7" height="367.5" viewBox="0 0 184.7 367.5"><path fill="#291A12" d="M38.4 346.1c0 10.6-8.5 19.2-19 19.2-10.6.1-19.1-8.5-19.2-19 0-10.6 19-19.2 19-19.2s19.2 8.4 19.2 19z"/><path fill="#0A3854" d="M19.7 225.8c1.3-.1 46.5-1.2 54.7-.8l64.7-2.9c6.6.3 11.8 6.2 11.5 13.3l-.8 21.8c-.2 7-2 2.8-8.6 2.6l-51.3.7c-.3 0-31.5 5.2-49.2 4.1 1.4 15-2.4 81.2-2.4 81.2l-38.3.1L4.5 246c-.5-3.9.2-8.1 2.1-11.7 2.4-4.4 6.8-7.8 13.1-8.5z"/><path fill="#372014" d="M49.2 346.1c0 10.6-8.5 19.2-19 19.2-10.5.1-19.1-8.5-19.2-19 0-10.6 19-19.2 19-19.2s19.1 8.4 19.2 19z"/><path fill="#11517B" d="M30.4 225.8c1.3-.1 46.5-1.2 54.7-.8l64.7-2.9c6.6.3 11.4 5.2 11.1 12.2l-.3 22.9c-.2 7-6.2 10-12.8 9.7l-49.4.7c-.3-2.1-26.8-.5-45.4-.7-2 17.1-3.9 78.8-3.9 78.8l-38.3.2 4.5-99.9c-.5-3.9.2-8.1 2.2-11.7 2.3-4.4 6.6-7.8 12.9-8.5z"/><path fill="#EC8025" d="M116.6 81c22.8-2.3 41.5 15.1 41.7 46.9l3.1 123.6-86-26.8 3.2-75.5c-.2-27.2 5.9-58.2 27.1-67.8 3.5-1.6 6.3.1 10.9-.4z"/><path fill="#D7B08F" d="M118.6 96.3s-12.4 8.2-16.8 6.9c-4-1.2-6-8.5-.3-16.7l5.6 1.2 18.5-6.6 10.1 3.1-17.1 12.1z"/><path fill="#232323" d="M88.7 367.5v-48.8h82.6v48.8h13.3V166.2c0-4.4-3.6-8-8.1-8-4.4 0-8 3.6-8 8v100.7H75.4v100.6h13.3zm0-78.2h82.6v25.4H88.7v-25.4z"/><path fill="#818083" d="M75.4 266.9h93.2v6.2H75.4z"/><g><path fill="#D7B08F" d="M120.6 91.3c2.1-2.3 3.8-4.1 4.5-4.6l2-12-26.6-1.3.8 18h19.3z"/><path fill="#E9BEA3" d="M84 48.1c0-6.8-.7-16.5 2.4-21.8C91.7 17.4 103 15 113.1 15c16.1 0 33.7 12.6 33.7 30.9 0 18.3-17.6 35.3-33.7 35.3S84 66.3 84 48.1z"/><path fill="#784220" d="M138.8 57.4c2.4-1.5 4.6-3.8 5.6-6.5 1.4-3.6.5-8.3-3.6-9.5-1.5-.5-3.3-.5-5-.2 1.7-5.7-3.1-13.1-9-14.7-12.6-3.4-16.5 3.7-24.7 2.5-6.4-.9-7-4.9-11.2-4.4-3.3.4-4.6 3.9-5.9 6.7-1.6 3.7-1 15.3-1.1 16.6-.7-1.2-.4-16.3-.4-16.7-.1-2.7 1.5-14.5 3.4-17.7 2.6-4.4 6.5-8.1 11-10.6 8.3-4.6 16.3-2.8 27.9-2.1 2.1.1 24 3 27.1 30.2.8 6.8-1.2 17.1-5.1 24.3-.7 1.2-2.3 4.7-10.5 13.5-.1.1 1.2-6.1-1-10.7 1 .1 2-.4 2.5-.7z"/></g></svg>