<svg xmlns="http://www.w3.org/2000/svg" xmlns:xlink="http://www.w3.org/1999/xlink" width="152.1" height="152.1" viewBox="0 0 152.1 152.1"><defs><path id="a" d="M76.1 0c42 0 76.1 34.1 76.1 76.1 0 42-34.1 76.1-76.1 76.1C34 152.1 0 118.1 0 76.1 0 34.1 34 0 76.1 0zm0 36.5c-21.9 0-39.6 17.7-39.6 39.6 0 21.9 17.7 39.6 39.6 39.6 21.8 0 39.6-17.7 39.6-39.6-.1-21.9-17.8-39.6-39.6-39.6z"/></defs><clipPath id="b"><use xlink:href="#a" overflow="visible"/></clipPath><g clip-path="url(#b)"><path fill="#CEDD37" d="M76.1-2.9c-43.6 0-79 35.4-79 79s35.3 79 79 79c43.6 0 79-35.4 79-79-.1-43.7-35.4-79-79-79z"/><path fill="#CEDD37" d="M76.1-13.6v89.7l76 89.1 15.5-135.9"/><path fill="#E82264" d="M76.1 76.1L95.8 176l34.8-37M76.1 38.5V-5.6L44.6-3.7 12.9 16.4l63.2 59.7"/><path fill="#39A4DD" d="M76.1 76.1l-59 64.9 35.4 22.2 38.9-9.6-9.7-49.1"/></g></svg>