<svg xmlns="http://www.w3.org/2000/svg" width="154.2" height="199.8" viewBox="0 0 154.2 199.8"><path fill="#E5E5E4" d="M0 0h154.2v132.6H0z"/><path fill="#D1D2D2" d="M0 127.4h154.2v72.4H0z"/><g fill="#010101"><path d="M29.3 57.9h4.1L29 78.3h-5.2L19.2 58h4.1l2.4 13c.2 1.1.4 2.3.5 3.5.1.5.2 1.1.2 1.7h.1c0-.6.1-1.1.2-1.7.1-1.2.2-2.3.5-3.5l2.1-13.1zM36.4 66.6c.2-5.2.6-9 6.8-9s6.6 3.8 6.8 9v2.9c0 5.4-.4 9.4-6.8 9.4s-6.8-4-6.8-9.4v-2.9zm3.9 4.7c0 1.7.1 4.4 2.8 4.4 2.8 0 2.8-2.8 2.8-4.7v-5.3c0-1.6.1-5.2-2.8-5.2-3 0-2.8 3.6-2.8 5.1v5.7zM63.4 57.9h3.9v14.2c0 4.5-1.5 6.6-6.6 6.6s-6.6-2.1-6.6-6.6V57.9H58v13.8c0 2 .1 3.9 2.8 3.9 2.5 0 2.7-2 2.7-3.9l-.1-13.8zM84 71.1c0 .4-.1.8-.1 1.2-.2 3.7-1.5 6.6-5.8 6.6-6.4 0-6.8-4-6.8-9.4v-2.9c.2-5.2.6-9 6.8-9 3.5.1 5.4 1.8 5.7 5.3.1.5.1 1 .1 1.5h-3.8c-.2-1.3 0-3.7-1.9-3.7-3 0-2.8 3.6-2.8 5.1v5.6c0 1.7.1 4.4 2.8 4.4 2.1 0 1.9-3.4 2-4.7H84zM87.8 78.3V57.9h3.9v8h5.4v-8h3.9v20.3h-3.9v-9.3h-5.4v9.3l-3.9.1zM105.3 78.3V57.9h10.9v3h-7V66h6.5v3h-6.5v6.3h7v3h-10.9zM123.7 69.6v8.8h-3.9V57.9h7.3c3.3 0 5.9 1.1 5.9 4.9 0 2.2-.6 4.6-3.2 4.9v.1c2.3.3 3 1.7 3 3.7 0 .8-.1 5.8.8 6.4v.4h-4.3c-.5-1.3-.4-3.8-.4-5.1 0-1.2 0-3-1.3-3.3-1.1-.3-2.2-.3-3.3-.3h-.6zm0-3h3c1.3-.1 2.3-.9 2.3-2.9 0-2.3-1-2.7-2.4-2.7h-2.9v5.6z"/></g><path fill="#010101" d="M22.4 177.5h-1.2v-38.6h1.2v38.6zm-2.4 0h-1.2v-38.6H20v38.6zM26.1 138.8h2.5v31.7h-2.5zM29.8 138.8H31v31.7h-1.2zM39.6 170.6h-2.5v-31.7h2.5v31.7zm-4.9 0h-2.5v-31.7h2.5v31.7zM42.1 138.8h1.2v31.7h-1.2zM45.8 138.8h2.5v31.7h-2.5zM49.5 138.8h4.9v31.7h-4.9zM55.6 138.8h1.2v31.7h-1.2zM59.3 138.8H63v31.7h-3.7zM64.2 138.8h1.2v31.7h-1.2zM66.7 138.8h3.7v31.7h-3.7zM79 177.5h-1.2v-38.6H79v38.6zm-2.5 0h-1.2v-38.6h1.2v38.6zm25.8-6.9h-1.2v-31.7h1.2v31.7zm-3.7 0h-1.2v-31.7h1.2v31.7zm-3.7 0h-1.2v-31.7h1.2v31.7zm-4.9 0h-1.2v-31.7H90v31.7zm-6.1 0h-1.2v-31.7h1.2v31.7zm-2.5 0h-1.2v-31.7h1.2v31.7zm-7.4 0h-1.2v-31.7H74v31.7zM106 138.8h3.7v31.7H106zM110.9 138.8h1.2v31.7h-1.2zM114.6 138.8h3.7v31.7h-3.7zM120.7 138.8h1.2v31.7h-1.2zM130.6 170.6h-2.5v-31.7h2.5v31.7zm-4.9 0h-2.5v-31.7h2.5v31.7zM135.5 177.5h-1.2v-38.6h1.2v38.6zm-2.5 0h-1.2v-38.6h1.2v38.6z"/><g fill="#010101"><path d="M27 177.5c0-1.1.1-2 .3-2.7.2-.7.6-1.2 1-1.6.5-.4 1-.6 1.7-.6.5 0 .9.1 1.3.3s.7.5.9.9.4.9.6 1.4c.1.5.2 1.3.2 2.2 0 1.1-.1 2-.3 2.7s-.6 1.2-1 1.6-1 .6-1.7.6c-.9 0-1.6-.3-2.1-1-.6-.8-.9-2.1-.9-3.8zm1.2 0c0 1.5.2 2.6.5 3.1.4.5.8.8 1.3.8s1-.3 1.3-.8c.4-.5.5-1.5.5-3.1 0-1.5-.2-2.6-.5-3.1-.4-.5-.8-.8-1.4-.8-.5 0-1 .2-1.3.7-.2.6-.4 1.6-.4 3.2zM34.3 179.6l1.2-.1c.1.6.3 1 .6 1.3s.7.4 1.2.4c.6 0 1-.2 1.4-.6.4-.4.6-1 .6-1.7s-.2-1.2-.6-1.6c-.4-.4-.9-.6-1.5-.6-.4 0-.7.1-1 .3s-.5.4-.7.7l-1.1-.1.9-4.8H40v1.1h-3.8l-.5 2.5c.6-.4 1.2-.6 1.8-.6.8 0 1.5.3 2.1.9.6.6.8 1.3.8 2.2s-.2 1.6-.7 2.2c-.6.8-1.4 1.1-2.5 1.1-.9 0-1.6-.2-2.1-.7-.4-.4-.7-1.1-.8-1.9zM45.9 182.1h-1.2v-7.4c-.3.3-.6.5-1.1.8s-.9.5-1.2.6V175c.6-.3 1.2-.7 1.7-1.1.5-.4.8-.9 1-1.3h.7l.1 9.5zM48.9 177.5c0-1.1.1-2 .3-2.7s.6-1.2 1-1.6c.5-.4 1-.6 1.7-.6.5 0 .9.1 1.3.3.4.2.7.5.9.9s.4.9.6 1.4c.1.5.2 1.3.2 2.2 0 1.1-.1 2-.3 2.7s-.6 1.2-1 1.6c-.5.4-1 .6-1.7.6-.9 0-1.6-.3-2.1-1-.6-.8-.9-2.1-.9-3.8zm1.2 0c0 1.5.2 2.6.5 3.1.4.5.8.8 1.3.8s1-.3 1.3-.8c.4-.5.5-1.5.5-3.1 0-1.5-.2-2.6-.5-3.1-.4-.5-.8-.8-1.3-.8s-1 .2-1.3.7c-.3.6-.5 1.6-.5 3.2zM56.2 179.6l1.2-.1c.1.6.3 1 .6 1.3s.7.4 1.2.4c.6 0 1-.2 1.4-.6.4-.4.6-1 .6-1.7s-.2-1.2-.6-1.6c-.4-.4-.9-.6-1.5-.6-.4 0-.7.1-1 .3s-.5.4-.7.7l-1.1-.1.9-4.8H62v1.1h-3.8l-.5 2.5c.6-.4 1.2-.6 1.8-.6.8 0 1.5.3 2.1.9.6.6.8 1.3.8 2.2s-.2 1.6-.7 2.2c-.6.8-1.4 1.1-2.5 1.1-.9 0-1.6-.2-2.1-.7-.5-.4-.8-1.1-.9-1.9zM63.7 179.9l1.1-.1c.1.5.3.9.5 1.1.3.2.6.4 1 .4s.7-.1.9-.2c.3-.2.5-.4.7-.7s.3-.6.4-1.1.2-.9.2-1.4v-.2c-.2.4-.5.7-.9.9s-.8.3-1.3.3c-.8 0-1.4-.3-2-.8-.5-.6-.8-1.3-.8-2.2 0-1 .3-1.7.8-2.3.6-.6 1.3-.9 2.1-.9.6 0 1.2.2 1.7.5s.9.8 1.2 1.4.4 1.5.4 2.6c0 1.2-.1 2.2-.4 2.9s-.7 1.3-1.2 1.6c-.5.4-1.1.6-1.8.6s-1.3-.2-1.8-.6c-.4-.5-.7-1-.8-1.8zm4.7-4.1c0-.7-.2-1.2-.5-1.6-.4-.4-.8-.6-1.3-.6s-1 .2-1.3.6c-.4.4-.6 1-.6 1.6s.2 1.1.5 1.5c.4.4.8.6 1.3.6s1-.2 1.3-.6c.4-.3.6-.9.6-1.5zM84.5 173.9v-1.1h6.1v.9c-.6.6-1.2 1.5-1.8 2.5-.6 1.1-1 2.1-1.4 3.3-.2.8-.4 1.6-.4 2.6h-1.2c0-.7.2-1.6.4-2.7.3-1 .7-2.1 1.2-3 .5-1 1.1-1.8 1.7-2.5h-4.6zM93.5 177c-.5-.2-.8-.4-1.1-.8-.2-.3-.3-.7-.3-1.2 0-.7.2-1.3.7-1.7.5-.5 1.1-.7 2-.7.8 0 1.5.2 2 .7s.8 1.1.8 1.7c0 .4-.1.8-.3 1.1-.2.3-.6.6-1 .8.6.2 1 .5 1.3.9s.5.9.5 1.5c0 .8-.3 1.5-.9 2s-1.3.8-2.2.8c-.9 0-1.7-.3-2.2-.8-.6-.6-.9-1.2-.9-2.1 0-.6.2-1.1.5-1.5.1-.3.6-.5 1.1-.7zm-.6 2.4c0 .3.1.6.2 1 .2.3.4.5.7.7.3.2.6.3 1 .3.6 0 1-.2 1.4-.5.4-.4.5-.8.5-1.4 0-.6-.2-1-.6-1.4s-.8-.5-1.4-.5c-.5 0-1 .2-1.3.5-.3.3-.5.7-.5 1.3zm.4-4.4c0 .4.1.8.4 1.1s.7.4 1.1.4.8-.1 1.1-.4c.3-.3.4-.6.4-1s-.1-.8-.4-1.1-.7-.4-1.1-.4-.8.1-1.1.4c-.2.3-.4.7-.4 1zM103.4 182.1h-1.2v-7.4c-.3.3-.6.5-1.1.8s-.9.5-1.2.6V175c.6-.3 1.2-.7 1.7-1.1.5-.4.8-.9 1-1.3h.7l.1 9.5zM106.4 177.5c0-1.1.1-2 .3-2.7.2-.7.6-1.2 1-1.6.5-.4 1-.6 1.7-.6.5 0 .9.1 1.3.3s.7.5.9.9c.2.4.4.9.6 1.4.1.5.2 1.3.2 2.2 0 1.1-.1 2-.3 2.7-.2.7-.6 1.2-1 1.6-.5.4-1 .6-1.7.6-.9 0-1.6-.3-2.1-1-.6-.8-.9-2.1-.9-3.8zm1.2 0c0 1.5.2 2.6.5 3.1.4.5.8.8 1.3.8s1-.3 1.3-.8c.4-.5.5-1.5.5-3.1 0-1.5-.2-2.6-.5-3.1-.4-.5-.8-.8-1.4-.8-.5 0-1 .2-1.3.7-.2.6-.4 1.6-.4 3.2zM113.9 179.9l1.1-.1c.1.5.3.9.5 1.1.3.2.6.4 1 .4s.7-.1.9-.2c.3-.2.5-.4.7-.7s.3-.6.4-1.1.2-.9.2-1.4v-.2c-.2.4-.5.7-.9.9s-.8.3-1.3.3c-.8 0-1.4-.3-2-.8-.5-.6-.8-1.3-.8-2.2 0-1 .3-1.7.8-2.3.6-.6 1.3-.9 2.1-.9.6 0 1.2.2 1.7.5s.9.8 1.2 1.4.4 1.5.4 2.6c0 1.2-.1 2.2-.4 2.9s-.7 1.3-1.2 1.6c-.5.4-1.1.6-1.8.6s-1.3-.2-1.8-.6c-.5-.5-.7-1-.8-1.8zm4.7-4.1c0-.7-.2-1.2-.5-1.6-.4-.4-.8-.6-1.3-.6s-1 .2-1.3.6c-.4.4-.6 1-.6 1.6s.2 1.1.5 1.5c.4.4.8.6 1.3.6s1-.2 1.3-.6c.4-.3.6-.9.6-1.5zM127 175l-1.1.1c-.1-.5-.2-.8-.4-1-.3-.3-.7-.5-1.2-.5-.4 0-.7.1-1 .3-.4.3-.6.6-.9 1.2-.2.5-.3 1.2-.3 2.2.3-.4.6-.7 1-.9s.8-.3 1.3-.3c.8 0 1.4.3 2 .9.5.6.8 1.3.8 2.2 0 .6-.1 1.1-.4 1.6s-.6.9-1 1.2-1 .4-1.5.4c-1 0-1.7-.4-2.4-1.1-.6-.7-.9-1.9-.9-3.5 0-1.8.3-3.1 1-4 .6-.7 1.4-1.1 2.4-1.1.7 0 1.3.2 1.8.6.4.4.7 1 .8 1.7zm-4.7 4.1c0 .4.1.8.3 1.1.2.4.4.6.7.8.3.2.6.3 1 .3.5 0 .9-.2 1.3-.6.4-.4.5-.9.5-1.6 0-.6-.2-1.2-.5-1.5-.3-.4-.8-.6-1.3-.6s-1 .2-1.3.6c-.5.4-.7.8-.7 1.5z"/></g><path fill="none" stroke="#010101" stroke-miterlimit="10" stroke-dasharray="4,4" d="M5.2 5.1H149v188.3H5.2z"/></svg>