<svg version="1" xmlns="http://www.w3.org/2000/svg" width="260.4" height="215.6" viewBox="0 0 260.4 215.6"><path fill="#EED0B6" d="M204.6 108.4c-.2-1.3-1.5-1.9-2.7-2.2-1.2-.5-3.6-.6-5.3-1-1.3-.2-14.2.8-17.9 1.6-1 .2-2.1.4-3.1.7-1.1.4-3.2 1.4-3.2 1.5 0 0-8.3 4.1-9.5 4.5 0-.1-5.9-4.1-6.4-4.5-3.6-2.5-7.1-3.3-7.5-3.4-2.1-.4-4.3-.5-5.7 1.1-.4.4-.7.8-.9 1.2-1 2.1 1.5 2.1 1.8 2.1 1.7.1 3.2.7 4.6 1.8.4.4 4.7 5.6 4.6 8.4 0 .3-.9 7.7-1.6 9.3-.4.9-1 1.8-.9 2.8l22 4.8c1.3-2 4.5-8.9 4.9-9.3.2-.3 4.4-4.4 6.9-6.6 1.4-1.2 9-4.8 9.5-5 2.3-1.3 11-4.3 10.4-7.8z"/><path fill="#020202" d="M150.3 130.8c-31.9 48.7-67.5 53-139.1 24.8-2.7 11.8-8.5 31.5-11.2 43.3 37.2 17.1 70.3 21.6 99.4 12.2 28.8-9.3 66-48.3 77.5-80.1-.1-.1-26.6-.2-26.6-.2z"/><ellipse fill="#454445" cx="176.9" cy="103.5" rx="83.5" ry="5"/><path fill="#86CEE0" d="M204.5 98.4c-.2-.7-.2-4-.2-4V77.3s-.1-2.2.4-3.5c.4-1.1 1.2-2.1 1.7-2.5 4-3.4 9.3-6.5 8.8-14.8-.2-3.1-2-13.6-2.6-17h-19.1c-.6 3.5-2.4 14-2.6 17-.5 8.3 4.8 11.4 8.8 14.8.5.4 1.3 1.4 1.7 2.5.5 1.3.4 3.5.4 3.5v17.1s.1 3.3-.2 4c-.3.8-7 2.3-7 3.3h16.8c.1-1-6.6-2.5-6.9-3.3z"/><path fill="#86CEE0" d="M204.5 98.4c-.2-.7-.2-4-.2-4V77.3s-.1-2.2.4-3.5c.4-1.1 1.2-2.1 1.7-2.5 4-3.4 9.3-6.5 8.8-14.8-.2-3.1-2-13.6-2.6-17h-19.1c-.6 3.5-2.4 14-2.6 17-.5 8.3 4.8 11.4 8.8 14.8.5.4 1.3 1.4 1.7 2.5.5 1.3.4 3.5.4 3.5v17.1s.1 3.3-.2 4c-.3.8-7 2.3-7 3.3h16.8c.1-1-6.6-2.5-6.9-3.3z"/><path fill="#C5E8F1" d="M204.5 98.4c-.2-.7-.2-4-.2-4V77.3s-.1-2.2.4-3.5c.4-1.1 1.2-2.1 1.7-2.5 4-3.4 9.3-6.5 8.8-14.8-.2-3.1-2-13.6-2.6-17h-19.1c-.6 3.5-2.4 14-2.6 17-.5 8.3 4.8 11.4 8.8 14.8.5.4 1.3 1.4 1.7 2.5.5 1.3.4 3.5.4 3.5v17.1s.1 3.3-.2 4c-.3.8-7 2.3-7 3.3h16.8c.1-1-6.6-2.5-6.9-3.3z"/><path fill="#D32629" d="M198.8 69.4c.3.2 2.3 1.7 4.4 1.7 2 0 4.1-1.5 4.4-1.7 3.7-3 7.5-6 7.1-12.9-.1-1.9-.9-6.6-1.5-10.8h-19.8c-.7 4.2-1.4 8.9-1.5 10.8-.6 6.9 3.2 10 6.9 12.9z"/><g><path fill="#80AF41" d="M169.6 61.7l.6.2c-1.4 1.1-1 4.8-1 5.2l-.3.1c0-.1-.3-1-.2-2.2.1-1.6.2-2.8.9-3.3z"/><path fill="#74A240" d="M169 77c.6-.2 1.2-.9 1.2-.9.1-.1.4.1.5 0 .2-.1 0-.8.1-.9s.6.5.7.3.1-.8.1-1 .8.6.9.6c.2-.1.1-1.6.1-1.7s.5.4.7.4c.3-.1 0-1.2 0-1.2.1 0 .4-.1.3-.2s-.6-.8-.4-.8.2-.1.2-.1c-.3-.2-1.8-1.3-1.2-1.6.7-.4 1.8 1.4 2.2 1.3.2 0 0-.6 0-.6.3.3 1.1.7 1.3.6.2-.1.2-.4.2-.4.7.1 1.2.2 1.4 0 .1-.3-.8-1.2-.8-1.2.5 0 .9-.4.9-.6s-1.2-.7-1.2-.7c.5-.1.8-.4.8-.6 0-.3-1.5-.7-1.5-.7.3-.1.8-.3.8-.5.1-.2-1.9-.6-1.9-.6.3-.1 1.5-1.1 1.5-1.4-.1-.2-.3-.4-1-.4s-1.8.4-2 .5c-.1-.1.8-1.3.5-1.6-.2-.2-1.4.7-1.5.7s-.2-.3-.3-.3c-.1 0-.4.6-.6.6-.1 0-.4-.4-.4-.3 0 .2-.1 1.1-.6 1.5-.4.3-.8.6-1 .6h-.1L169 77c-.1 0-.1 0 0 0z"/><path fill="#80AF41" d="M160.5 69c0 .2.4.5.9.6 0 0-.9 1-.8 1.2s.6.2 1.4 0c0 0 0 .3.2.4s1-.3 1.3-.6c0 0-.1.5 0 .6.3.1 1.5-1.6 2.2-1.3.5.3-.9 1.4-1.2 1.6 0 0 0 .1.2.1s-.3.7-.4.8c-.1.1.2.2.3.2.1 0-.2 1.1 0 1.2s.7-.5.7-.4 0 1.6.1 1.7c.1 0 .9-.8.9-.6 0 .2-.1.8.1 1 .1.2.6-.4.7-.3s-.1.8.1.9c.1.1.4-.2.5 0 0 .1.5.8 1.2.9h.1V65.8h-.1c-.2 0-.6-.3-1-.6-.5-.4-.6-1.4-.6-1.5 0-.2-.3.3-.4.3-.2 0-.4-.7-.6-.6-.1 0-.2.3-.3.3-.1 0-1.3-.8-1.5-.7-.2.2.6 1.5.5 1.6 0 0-1.3-.5-2-.5-.8 0-1 .2-1 .4-.1.2 1.2 1.2 1.5 1.4 0 0-2 .4-1.9.6s.5.5.8.5c0 0-1.5.4-1.5.7 0 .2.3.5.8.6 0-.1-1.2.5-1.2.7z"/><path opacity=".5" fill="#80AF41" d="M161.1 70.5h.1c2.6-2.3 4.5-3.3 7.4-4.4.1 0 .1.1.2.1v2.3c-.1 0-.1.1-.2.1-1.3 1.1-3.4 2.7-3.7 4.3 0 0 0 .1.1.1 0 0 .1 0 .1-.1.3-1.5 2.3-3.2 3.6-4.2l.1-.1v1.9c-1.5.8-2.4 2.6-2.5 3.1 0 0 0 .1.1.1 0 0 .1 0 .1-.1 0-.2.3-.7.7-1.3.5-.7 1.1-1.3 1.7-1.6v2.5c-.7.5-1.2 1.2-1.6 2v.1h.1c.4-.8.8-1.4 1.4-1.9v2.8s0 .1.1.1c0 0 .1 0 .1-.1v-2.8c.6.5 1.1 1.1 1.4 1.9 0 0 .1.1.1 0 0 0 .1-.1 0-.1-.4-.8-.9-1.5-1.6-2v-2.5c1 .8 2.1 1.9 2.4 3.1l.1.1.1-.1c-.3-1.3-1.4-2.4-2.5-3.3v-1.9c.1.1.3.2.4.3 1.3 1 2.8 2.2 3.4 4l.1.1.1-.1c-.6-1.9-2.2-3.1-3.4-4.1-.2-.1-.4-.3-.5-.4v-2.3c.1 0 .2 0 .2-.1 1.2.5 2.2.9 3.2 1.4 1.4.7 2.7 1.6 4.2 3h.1v-.1c-1-.8-1.8-1.5-2.7-2.1.4-.3 1.2-.5 2-.5 0 0 .1 0 .1-.1 0 0 0-.1-.1-.1h-.2c-.8 0-1.5.2-1.9.6-.4-.3-.9-.5-1.3-.8.5-.6 1.5-.9 2.6-.9 0 0 .1 0 .1-.1 0 0 0-.1-.1-.1-1.1 0-2.1.4-2.7 1-.9-.5-1.9-.9-3.1-1.4 2.8-.2 4.2-.8 5.5-1.3.2-.1.4-.1.5-.2 0 0 .1-.1 0-.1 0 0 0-.1-.1-.1-.2.1-.4.1-.5.2-1.4.6-2.8 1.1-5.6 1.3-.1 0-.2-.1-.3-.1-.1 0-.2 0-.3.1-2.7-.2-4.1-.7-5.5-1.3-.2-.1-.4-.1-.5-.2 0 0-.1 0-.1.1v.1c.2.1.4.1.5.2 1.3.5 2.7 1.1 5.4 1.3-1.2.5-2.1.9-3.1 1.4-.8-.9-2.1-1-2.7-1 0 0-.1 0-.1.1 0 0 0 .1.1.1 1.1 0 2 .4 2.5.9-.4.2-.9.5-1.3.8-.4-.4-1.1-.6-1.9-.6h-.2s-.1 0-.1.1c0 0 0 .1.1.1.9 0 1.6.1 2 .5-.9.6-1.7 1.2-2.7 2.1v.2z"/><g><path fill="#336471" d="M186.6 58.5c-.4-11.4-8-19.8-11-25.8-2.3-4.6-1.9-18.2-1.7-23.7h.1c.8 0 1.5-.7 1.5-1.5V5.6c0-.8-.7-1.5-1.5-1.5h-10.2c-.8 0-1.5.7-1.5 1.5v1.9c0 .8.7 1.5 1.5 1.5h.1c.3 5.6.6 19.1-1.7 23.7-3 6-10.5 14.4-11 25.8-.7 16.5 1.1 39.8 1.1 39.8v.3c.3 1.7 2.1 3 4.4 3h24.2c2.2 0 4.1-1.4 4.4-3.1v-.3c.1.1 1.9-23.2 1.3-39.7z"/><path fill="#F3DCBA" d="M152.5 79.8c-.3-8.3-.3-15.3-.1-21h33.1c.2 5.7.2 12.7-.1 21h-32.9z"/><path fill="#4F311D" d="M173.4 11.3c-.1.9-.9 1.6-1.8 1.6h-5.4c-.9 0-1.7-.7-1.8-1.6l-.6-9.7c0-.9.7-1.6 1.6-1.6h7.1c.9 0 1.6.7 1.5 1.6l-.6 9.7z"/></g></g></svg>