<svg version="1" xmlns="http://www.w3.org/2000/svg" width="154" height="80.9" viewBox="0 0 154 80.9"><path fill="#E9BEA3" d="M142.4 4.5c-16.1-8.9-26.2 7.4-27.4 9.1C84.7 60.2 59.3 61.2 13.8 43.8v.1c-.3-.2-.6-.3-.9-.4-4.6-1.7-10 2.5-12 9.4C-1 59.4.5 65.8 4.6 68c.2.1.7.3.9.3 55.7 25.5 98 11.8 136.9-34.8 1.4-1.7 5.5-6.7 6-7.2 3.7-5.2 2.4-17.2-6-21.8zM10.6 52.9c1-2.9 1.9-5.5 2.5-7.2-.9 2.7-1.7 5-2.5 7.2z"/><path fill="#E3B523" d="M145.5 2.8c-17.3-9.5-28.1 7.9-29.3 9.7-6.3 9.7-12.4 17.5-18.5 23.7 0 0 11.7 31.2 17.4 26.9 10.4-7.8 20.5-17.6 30.4-29.4 1.5-1.8 5.9-7.1 6.4-7.7 4-5.4 2.6-18.2-6.4-23.2z"/></svg>