<svg version="1" xmlns="http://www.w3.org/2000/svg" width="93" height="162.8" viewBox="0 0 93 162.8"><circle fill="#FFF" cx="46.2" cy="46.4" r="42.9"/><path fill="#902C8A" d="M46.3 121c-5-8.4-10-16.6-14.8-24.8-2.7-4.7-5.9-8.4-10.7-11.4C5 75-3 55 1 37.1 5.2 17.9 20.2 3.5 38.9.6c30.6-4.7 57 19.7 53.9 50.3-1.6 16.1-9.9 28-23.9 36.2-2 1.2-3.9 2.9-5.1 4.9-5.4 8.7-10.5 17.6-15.8 26.4-.4.8-1 1.5-1.7 2.6zm39.9-74.7c0-21.6-17.5-38.9-39.4-38.9-21.8 0-39.4 17.4-39.3 39 0 21.5 17.8 39 39.4 39 21.6-.1 39.3-17.6 39.3-39.1z"/><g fill="#902C8A"><path d="M30.1 67.8c-5.5 0-9.5-3.9-9.5-9.4s4-9.4 9.5-9.4 9.5 3.9 9.5 9.4c0 5.4-4 9.4-9.5 9.4zm0-15.4c-3.4 0-5.5 2.6-5.5 6s2.2 6 5.5 6c3.4 0 5.5-2.6 5.5-6 0-3.5-2.2-6-5.5-6zM54.4 52.6h-7.5v3.8h7.3c.9 0 1.7.8 1.7 1.7s-.8 1.7-1.7 1.7h-7.3v5.8c0 1-.9 1.9-2 1.9-1 0-1.9-.9-1.9-1.9V51.4c0-1.2 1-2.2 2.2-2.2h9.2c.9 0 1.7.8 1.7 1.7 0 1-.8 1.7-1.7 1.7zM70.7 52.6h-7.5v3.8h7.3c.9 0 1.7.8 1.7 1.7s-.8 1.7-1.7 1.7h-7.3v5.8c0 1-.9 1.9-2 1.9-1 0-1.9-.9-1.9-1.9V51.4c0-1.2 1-2.2 2.2-2.2h9.2c.9 0 1.7.8 1.7 1.7-.1 1-.8 1.7-1.7 1.7z"/><g><path d="M26.9 44c-2.7 0-5.9-1-6.7-2.5-.1-.2-.2-.5-.2-.8 0-1 .9-1.8 1.8-1.8.3 0 .7.1 1 .3 1.2.7 2.7 1.2 4 1.2 2.3 0 3.5-1 3.5-2.4 0-1.5-1.1-2.2-3.8-2.2C25 36 24 35.3 24 34c0-1 .7-1.7 1.8-1.7 2.4.1 4.1-.4 4.1-2 0-1.5-1.5-2.2-3.5-2.2-1.3 0-2.5.4-3.6 1.1-.3.2-.6.3-1 .3-.9 0-1.7-.7-1.7-1.7 0-.4.2-.9.6-1.2 1.5-1.2 3.6-2 6.1-2 4.4 0 7.1 2 7.1 5.1 0 2.4-2 3.9-4.1 4.3 1.9.2 4.4 1.7 4.4 4.5.1 3.3-2.8 5.5-7.3 5.5zM44.1 44c-5.3 0-7.7-4.8-7.7-9.7 0-4.8 2.4-9.6 7.7-9.6 5.3 0 7.7 4.8 7.7 9.6 0 4.9-2.4 9.7-7.7 9.7zm0-15.7c-2.7 0-3.7 2.7-3.7 6.1 0 3.4 1 6.1 3.7 6.1s3.7-2.7 3.7-6.1c0-3.5-1-6.1-3.7-6.1zM58.3 34c-2.9 0-4.7-2-4.7-4.6 0-2.6 1.9-4.7 4.7-4.7 2.9 0 4.8 2.1 4.8 4.7-.1 2.7-2 4.6-4.8 4.6zm0-2.1c1.3 0 2.2-1 2.2-2.4 0-1.6-.9-2.5-2.2-2.5-1.3 0-2.3.9-2.3 2.4s1 2.5 2.3 2.5zm.4 11.6c-.2.3-.4.4-.7.4-.5 0-.9-.4-.9-.9 0-.2.1-.3.1-.5l11-17.3c.2-.3.4-.4.7-.4.5 0 .9.4.9.9 0 .1-.1.3-.1.4l-11 17.4zm9.8.5c-2.9 0-4.7-2-4.7-4.6 0-2.6 1.9-4.7 4.7-4.7 2.9 0 4.8 2.1 4.8 4.7S71.4 44 68.5 44zm0-2.1c1.3 0 2.2-.9 2.2-2.4s-1-2.5-2.2-2.5c-1.3 0-2.2 1-2.2 2.5 0 1.4.9 2.4 2.2 2.4z"/></g></g><circle fill="#902C8A" stroke="#FFF" stroke-width="2" stroke-miterlimit="10" cx="46.7" cy="143.1" r="18.2"/></svg>