<svg version="1" xmlns="http://www.w3.org/2000/svg" width="335" height="785.7" viewBox="0 0 335 785.7"><path fill="#E0AD90" d="M141.2 137.7h-.1c-2.8.5-5.4-1.2-6-3.9l-7.3-37.1c-.5-2.7 1.3-5.3 4-5.9h.1c2.8-.5 5.4 1.2 6 3.9l7.3 37.1c.5 2.7-1.3 5.3-4 5.9zM100.2 152.9h-.1c-2.8.5-5.4-1.2-6-3.9l-10-51c-.5-2.7 1.3-5.3 4-5.9h.1c2.8-.5 5.4 1.2 6 3.9l10.1 51c.5 2.7-1.3 5.4-4.1 5.9zM183.1 125.7h-.1c-2.8.5-5.4-1.2-6-3.9l-4.6-23.2c-.5-2.7 1.3-5.3 4-5.9h.1c2.8-.5 5.4 1.2 6 3.9l4.6 23.2c.5 2.7-1.3 5.3-4 5.9z"/><path fill="#E5B494" d="M110.4 252.5l-.3.2c-8.3 6.5-20.7 4.7-27.6-4.1L7.4 153.1c-10.6-14.7-4.8-21.2 3.5-27.8l.3-.2c10.9-6.7 28.5 5.9 36.1 15.8l65.6 83.8c7 8.9 5.8 21.3-2.5 27.8z"/><path fill="#E5DBD1" d="M3.8 131.2c-1.3.8-2.2 2.1-2.9 3.5-1.1 2.4-1.7 6.3 1.2 10.7 4.8 7.2 12.5 18.2 14.1 18.7 1.6.6 5.6-.7 8.1-5.2s2.7-5.8.9-9.8c-1.8-4-12.3-16-13.6-17-1.1-.8-4-3.4-7.8-.9z"/><path fill="#E0AD90" d="M73.2 236.7l-20.3-88.6 5.9 7.5 23.4 92.5"/><path fill="#E9BEA3" d="M225.1 126.3c0-.1-.1-.2-.1-.3l-7.9-39.9C215 75.7 204.7 69 194 71.1l-.4.1C182.9 73.3 175.9 83.5 178 94l4.7 23.6c-1 .1-2.1.1-3.1.2L172.1 80C170 69.5 159.7 62.7 149 64.9l-.4.1c-10.7 2.1-17.7 12.3-15.6 22.8l7 35.3c-.3.1-.7.1-1 .2l-1.7.3c-.1 0-.2 0-.4.1l-9.5-47.8c-2.1-10.5-12.4-17.2-23.1-15.1l-.4.1C93.2 63 86.2 73.2 88.3 83.7l10 50.2c-1.1.4-2.3.8-3.4 1.2L72 19.2C69.5 6.7 58.9-1.8 48.3.3l-.4.1C37.2 2.5 30.6 14.4 33.1 27l25.4 127.9c.2 1.2.3 2.5.3 3.7 0 .2 0 .5.1.7l14 70.3c3.3 16.5 16.2 29 32.1 32.1l22.9 115.2L244 353.8l-22.8-114.6c3.9-2 7.2-4.3 9.9-7 8.3-8.3 10.6-22.5 8.6-32.2l-14.6-73.7z"/><path fill="#E5DBD1" d="M55.2 33.3l-.3.1c-7.8 1.6-14.7.2-16.5-9.1l-1.6-8.1C35 6.9 40.6 1.9 48.4.3l.3-.1c7.8-1.6 14.9.9 16.7 10.3l1.6 8.1c1.9 9.3-4 13.2-11.8 14.7z"/><path fill="#11517B" d="M333.9 758l-141.3 27.7c-1.5.3-3.9-5.6-5.4-13.2l-86.8-461.3c-1.5-7.6-1.5-14 0-14.3l141.3-27.7c1.5-.3 3.9 5.6 5.4 13.2l86.8 461.3c1.5 7.6 1.5 14 0 14.3z"/></svg>