<svg version="1" xmlns="http://www.w3.org/2000/svg" width="153.8" height="258.5" viewBox="0 0 153.8 258.5"><path fill="#FFF" d="M-.62-.61l154.4-.38.64 258.2-154.4.38z"/><path fill="#CDCCCC" d="M10.185 70.765l133.3-.33.03 12-133.3.33zm12.505 15.07l107.8-.268.02 7.4-107.8.267z"/><path fill="#1288CA" d="M-.673-.61l154.4-.38.146 59.1-154.4.38z"/><path opacity=".6" fill="#E2E2E2" d="M19.7 257.5l134.7-.3L153.8-1h-18.5"/><path fill="#1288CA" d="M141.8 250.8l-130.1.3c-2.2 0-4-1.8-4-4l-.1-38.4c0-2.2 1.8-4 4-4l130.1-.3c2.2 0 4 1.8 4 4l.1 38.4c-.1 2.2-1.8 4-4 4z"/><path d="M40.3 235.8c-.6 0-1-.5-1-1.1v-.6c-1.1 1.2-2.7 1.9-4.5 1.9-2.3 0-4.7-1.5-4.7-4.5s2.4-4.5 4.7-4.5c1.9 0 3.4.6 4.5 1.8v-2.4c0-1.8-1.5-2.9-3.4-2.9-1.3 0-2.5.4-3.5 1.3-.2.1-.4.2-.6.2-.4 0-.9-.3-.9-.8 0-.2.1-.4.3-.6 1.4-1.3 3.1-1.9 5.1-1.9 2.9 0 5.2 1.3 5.2 4.6v8.4c-.1.6-.6 1.1-1.2 1.1zm-1-5.6c-.8-1.1-2.2-1.7-3.7-1.7-2 0-3.3 1.2-3.3 3 0 1.7 1.4 2.9 3.3 2.9 1.5 0 2.9-.6 3.7-1.7v-2.5zm16.8 4c-1 1.1-2.4 1.8-4.5 1.8-4 0-6.8-3.1-6.8-7.1 0-4 2.7-7.1 6.8-7.1 2 0 3.4.7 4.5 1.8.1.2.2.4.2.6 0 .5-.4 1-1 1-.3 0-.5-.1-.7-.3-.8-.8-1.8-1.1-2.9-1.1-2.9 0-4.7 2.2-4.7 5.2s1.8 5.2 4.7 5.2c1.1 0 2.1-.4 2.9-1.1.2-.2.4-.3.7-.3.5 0 1 .4 1 .9 0 .1-.1.3-.2.5zm6.8 1.8c-2 0-3-1.1-3-3.2V224h-1.5c-.5 0-.9-.4-.9-1 0-.5.4-.9.9-.9h1.5v-2.9c0-.5.5-1 1.1-1 .5 0 1 .5 1 1v2.9h2c.5 0 .9.4.9 1 0 .5-.4.9-.9.9h-2v8.4c0 1 .4 1.7 1.4 1.7.4 0 .8-.2 1.1-.2.5 0 .9.4.9.9 0 .9-1.3 1.2-2.5 1.2zm7.3-17.2c0 .8-.6 1.4-1.4 1.4-.8 0-1.4-.6-1.4-1.4 0-.8.6-1.4 1.4-1.4.8-.1 1.4.6 1.4 1.4zm-1.4 17c-.6 0-1-.5-1-1V223c0-.5.5-1 1.1-1 .5 0 1 .5 1 1v11.8c0 .5-.5 1-1.1 1zm16.3-12.5l-4.8 11.5c-.3.6-.8 1-1.5 1-.6 0-1.2-.4-1.5-1l-4.8-11.5c-.1-.1-.1-.3-.1-.4 0-.5.4-1 1.1-1 .4 0 .8.2 1 .6l4.3 10.6 4.3-10.6c.2-.4.6-.6 1-.6.6 0 1.1.5 1.1 1 0 .2 0 .3-.1.4zm12.2 12.5c-.6 0-1-.5-1-1.1v-.6c-1.1 1.2-2.7 1.9-4.5 1.9-2.3 0-4.7-1.5-4.7-4.5s2.4-4.5 4.7-4.5c1.9 0 3.4.6 4.5 1.8v-2.4c0-1.8-1.5-2.9-3.4-2.9-1.3 0-2.5.4-3.5 1.3-.2.1-.4.2-.6.2-.4 0-.9-.3-.9-.8 0-.2.1-.4.3-.6 1.4-1.3 3.1-1.9 5.1-1.9 2.9 0 5.2 1.3 5.2 4.6v8.4c-.1.6-.6 1.1-1.2 1.1zm-1-5.6c-.8-1.1-2.2-1.7-3.7-1.7-2 0-3.3 1.2-3.3 3 0 1.7 1.4 2.9 3.3 2.9 1.5 0 2.9-.6 3.7-1.7v-2.5zm9.7 5.8c-2 0-3-1.1-3-3.2V224h-1.5c-.5 0-.9-.4-.9-1 0-.5.4-.9.9-.9h1.5v-2.9c0-.5.5-1 1.1-1 .5 0 1 .5 1 1v2.9h2c.5 0 .9.4.9 1 0 .5-.4.9-.9.9h-2v8.4c0 1 .4 1.7 1.4 1.7.4 0 .8-.2 1.1-.2.5 0 .9.4.9.9 0 .9-1.3 1.2-2.5 1.2zm16.1-6.4h-9.8c.2 2.5 2 4.7 4.9 4.7 1.3 0 2.6-.4 3.6-1.3.1-.1.3-.1.5-.1.4 0 .8.3.8.9 0 1.5-3.5 2.3-5.2 2.3-4 0-6.9-2.9-6.9-7.1 0-3.9 2.8-7.1 6.7-7.1 3.4 0 5.6 2.1 6.3 5.2.1.4.2.9.2 1.4 0 .5-.5 1.1-1.1 1.1zm-5.4-6.1c-2.9 0-4.3 2.4-4.4 4.5h8.9c0-2-1.4-4.5-4.5-4.5z" fill="#FFF"/><path fill="#F3F3F3" d="M-.373 114.492l154.4-.383.147 59.2-154.4.38z"/><path opacity=".2" fill="#010101" d="M154.2 115.1H-.3l-.1-1H154m.2 29.7H-.3l-.1-.9 154.4-.1m.2 30.8l-154.5.1-.1-1H154"/><path d="M9.9 120.8h17.5c1.1 0 2.1.8 2.3 1.9H7.5c.3-1.1 1.2-1.9 2.4-1.9zm-2.4 13V126h22.3v7.8c0 1.3-1.1 2.4-2.4 2.4H9.9c-1.3 0-2.4-1.1-2.4-2.4z" fill="#0078A9"/><path fill="#254655" d="M7.6 122.7h22.2c0 .2.1.3.1.5v2.8H7.6v-2.8c-.1-.2-.1-.3 0-.5z"/><path fill="#FFF" d="M20.084 129.938l-11.4.016-.004-2.6 11.4-.016zM21.6 131.5c.1 0 .1-.1.1-.2s-.1-.2-.2-.2H8.7c-.1 0-.2.1-.2.2s.1.2.2.2h12.9c-.1 0 0 0 0 0zm0 1.1c.1 0 .1-.1.1-.2s-.1-.2-.2-.2H8.7c-.1 0-.2.1-.2.2s.1.2.2.2h12.9c-.1 0 0 0 0 0z"/><path d="M9.9 150.2h17.5c1.1 0 2.1.8 2.3 1.9H7.5c.3-1.1 1.2-1.9 2.4-1.9zm-2.4 12.9v-7.8h22.3v7.8c0 1.3-1.1 2.4-2.4 2.4H9.9c-1.3 0-2.4-1.1-2.4-2.4z" fill="#9EAD3A"/><path fill="#5B612A" d="M7.6 152.1h22.2c0 .2.1.3.1.5v2.8H7.6v-2.8c-.1-.2-.1-.4 0-.5z"/><path fill="#FFF" d="M20.084 159.33l-11.4.016-.004-2.6 11.4-.016zm1.516 1.57c.1 0 .1-.1.1-.2s-.1-.2-.2-.2H8.7c-.1 0-.2.1-.2.2s.1.2.2.2h12.9c-.1 0 0 0 0 0zm0 1c.1 0 .1-.1.1-.2s-.1-.2-.2-.2H8.7c-.1 0-.2.1-.2.2s.1.2.2.2h12.9c-.1 0 0 0 0 0z"/><path d="M48.1 134.8c-.2 0-.4-.1-.5-.2l-3.3-4.4-3.3 4.4c-.1.2-.3.2-.5.2-.4 0-.6-.3-.6-.6 0-.1 0-.3.1-.4l3.5-4.6-3.2-4.3c-.1-.1-.1-.2-.1-.4 0-.3.3-.6.6-.6.2 0 .4.1.5.3l3.1 4.1 3.1-4.1c.1-.2.3-.2.5-.2.3 0 .7.3.7.6 0 .1 0 .3-.1.4l-3.2 4.3 3.5 4.6c.1.1.1.2.1.4-.3.2-.6.5-.9.5zm10.4 0c-.2 0-.4-.1-.5-.2l-3.3-4.4-3.3 4.4c-.1.2-.3.2-.5.2-.4 0-.6-.3-.6-.6 0-.1 0-.3.1-.4l3.5-4.6-3.2-4.3c-.1-.1-.1-.2-.1-.4 0-.3.3-.6.6-.6.2 0 .4.1.5.3l3.1 4.1 3.1-4.1c.1-.2.3-.2.5-.2.3 0 .7.3.7.6 0 .1 0 .3-.1.4l-3.2 4.3 3.5 4.6c.1.1.1.2.1.4-.2.2-.5.5-.9.5zm10.5 0c-.2 0-.4-.1-.5-.2l-3.3-4.4-3.3 4.4c-.1.2-.3.2-.5.2-.4 0-.6-.3-.6-.6 0-.1 0-.3.1-.4l3.5-4.6-3.2-4.3c-.1-.1-.1-.2-.1-.4 0-.3.3-.6.6-.6.2 0 .4.1.5.3l3.1 4.1 3.1-4.1c.1-.2.3-.2.5-.2.3 0 .7.3.7.6 0 .1 0 .3-.1.4l-3.2 4.3 3.5 4.6c.1.1.1.2.1.4-.3.2-.5.5-.9.5zm10.5 0c-.2 0-.4-.1-.5-.2l-3.3-4.4-3.3 4.4c-.1.2-.3.2-.5.2-.4 0-.6-.3-.6-.6 0-.1 0-.3.1-.4l3.5-4.6-3.2-4.3c-.1-.1-.1-.2-.1-.4 0-.3.3-.6.6-.6.2 0 .4.1.5.3l3.1 4.1 3.1-4.1c.1-.2.3-.2.5-.2.3 0 .7.3.7.6 0 .1 0 .3-.1.4l-3.2 4.3 3.5 4.6c.1.1.1.2.1.4-.3.2-.6.5-.9.5zm4.7-3.4h-3c-.3 0-.5-.2-.5-.5s.2-.5.5-.5h3c.3 0 .5.2.5.5s-.2.5-.5.5zm4.4 3.4c-.4 0-.7-.3-.7-.7v-8.4l-1.4 1.5c-.1.1-.2.2-.4.2-.3 0-.6-.2-.6-.6 0-.1 0-.3.2-.4l2.3-2.3c.1-.1.3-.2.5-.2.4 0 .8.3.8.7v9.5c0 .4-.3.7-.7.7zm9.7-.1h-6.4c-.3 0-.6-.3-.6-.6 0-.2.1-.4.2-.5 3.8-2.9 5.8-4.8 5.8-6.6 0-1.4-1.1-2-2.2-2s-1.9.4-2.6 1c-.1.1-.3.2-.4.2-.3 0-.6-.3-.6-.6 0-.1 0-.3.2-.4.9-.9 2.1-1.3 3.4-1.3 1.8 0 3.6 1 3.6 3.1 0 2.2-2.2 4.2-5.2 6.5h4.8c.3 0 .6.3.6.6-.1.4-.3.6-.6.6zm5.9.2c-1.5 0-2.8-.6-3.5-1.4-.1-.1-.2-.2-.2-.4 0-.3.2-.6.6-.6.1 0 .3.1.4.2.7.7 1.6 1.1 2.7 1.1 1.6 0 2.5-.8 2.5-2 0-1.3-1.1-1.9-2.7-1.9-.5 0-1.2.1-1.2-.6 0-.3.3-.6.6-.6 1.6 0 3.1-.2 3.1-1.8 0-1.2-1.1-1.8-2.4-1.8-1 0-1.8.3-2.5 1-.1.1-.2.1-.4.1-.3 0-.6-.2-.6-.6 0-.1.1-.3.2-.4.8-.8 1.9-1.3 3.4-1.3 2.1 0 3.6 1 3.6 2.8 0 1.5-1.3 2.3-2.3 2.5 1 .1 2.5.9 2.5 2.6 0 1.8-1.4 3.1-3.8 3.1zm12.7-2.9h-1v2.1c0 .4-.3.7-.7.7-.4 0-.7-.3-.7-.7V132H110c-.3 0-.7-.3-.7-.7 0-.1 0-.3.1-.4l4.3-6.4c.2-.3.6-.5 1-.5.6 0 1.1.5 1.1 1.1v5.8h1c.3 0 .6.3.6.6s-.2.5-.5.5zm-2.4-6.7l-3.8 5.6h3.8v-5.6z" fill="#56499E"/><g fill="#56499E"><path d="M48.1 163.3c-.2 0-.4-.1-.5-.2l-3.3-4.4-3.3 4.4c-.1.2-.3.2-.5.2-.4 0-.6-.3-.6-.6 0-.1 0-.3.1-.4l3.5-4.6-3.2-4.3c-.1-.1-.1-.2-.1-.4 0-.3.3-.6.6-.6.2 0 .4.1.5.3l3.1 4.1 3.1-4.1c.1-.2.3-.2.5-.2.3 0 .7.3.7.6 0 .1 0 .3-.1.4l-3.2 4.3 3.5 4.6c.1.1.1.2.1.4-.3.2-.6.5-.9.5zm10.4 0c-.2 0-.4-.1-.5-.2l-3.3-4.4-3.3 4.4c-.1.2-.3.2-.5.2-.4 0-.6-.3-.6-.6 0-.1 0-.3.1-.4l3.5-4.6-3.2-4.3c-.1-.1-.1-.2-.1-.4 0-.3.3-.6.6-.6.2 0 .4.1.5.3l3.1 4.1 3.1-4.1c.1-.2.3-.2.5-.2.3 0 .7.3.7.6 0 .1 0 .3-.1.4l-3.2 4.3 3.5 4.6c.1.1.1.2.1.4-.2.2-.5.5-.9.5zm10.5 0c-.2 0-.4-.1-.5-.2l-3.3-4.4-3.3 4.4c-.1.2-.3.2-.5.2-.4 0-.6-.3-.6-.6 0-.1 0-.3.1-.4l3.5-4.6-3.2-4.3c-.1-.1-.1-.2-.1-.4 0-.3.3-.6.6-.6.2 0 .4.1.5.3l3.1 4.1 3.1-4.1c.1-.2.3-.2.5-.2.3 0 .7.3.7.6 0 .1 0 .3-.1.4l-3.2 4.3 3.5 4.6c.1.1.1.2.1.4-.3.2-.5.5-.9.5zm10.5 0c-.2 0-.4-.1-.5-.2l-3.3-4.4-3.3 4.4c-.1.2-.3.2-.5.2-.4 0-.6-.3-.6-.6 0-.1 0-.3.1-.4l3.5-4.6-3.2-4.3c-.1-.1-.1-.2-.1-.4 0-.3.3-.6.6-.6.2 0 .4.1.5.3l3.1 4.1 3.1-4.1c.1-.2.3-.2.5-.2.3 0 .7.3.7.6 0 .1 0 .3-.1.4l-3.2 4.3 3.5 4.6c.1.1.1.2.1.4-.3.2-.6.5-.9.5zm4.7-3.4h-3c-.3 0-.5-.2-.5-.5s.2-.5.5-.5h3c.3 0 .5.2.5.5s-.2.5-.5.5zm5.6 3.5c-2.1 0-3.8-1.1-3.8-2.9 0-1.4 1.2-2.4 2.5-2.8-1.2-.4-2.4-1.2-2.4-2.6 0-1.9 1.9-2.8 3.7-2.8 1.8 0 3.7.8 3.7 2.8 0 1.4-1.2 2.2-2.4 2.6 1.3.4 2.5 1.4 2.5 2.8 0 1.8-1.7 2.9-3.8 2.9zm0-5.1c-.7.1-2.5.7-2.5 2.1 0 1.2 1.2 1.9 2.5 1.9s2.5-.7 2.5-1.9c0-1.4-1.9-2-2.5-2.1zm0-4.7c-1.3 0-2.3.7-2.3 1.8 0 1.3 1.7 1.7 2.3 1.8.7-.1 2.3-.5 2.3-1.8 0-1.2-1-1.8-2.3-1.8zm12.4-.2l-4.3 9.5c-.1.2-.4.4-.6.4-.4 0-.7-.3-.7-.7 0-.1 0-.2.1-.3l3.9-8.7h-5.3c-.3 0-.6-.3-.6-.6s.3-.6.6-.6h6.3c.3 0 .6.2.6.6.1.3.1.3 0 .4zm5.4 10c-3 0-4.1-2.6-4.1-5.5s1.3-5.5 4.3-5.5c1.2 0 2 .3 2.7 1 .1.1.2.3.2.4 0 .3-.3.6-.6.6-.1 0-.3 0-.4-.1-.5-.4-1-.7-1.9-.7-2.1 0-3 2.1-3 4.2v.4c.5-.7 1.7-1.7 3-1.7 1.9 0 3.5 1.1 3.5 3.4.1 1.9-1.3 3.5-3.7 3.5zm0-5.7c-1.1 0-2.1.7-2.7 1.6.1 1.3.8 3 2.7 3 1.7 0 2.5-1.2 2.5-2.3-.1-1.6-1.2-2.3-2.5-2.3zm9.4 5.7c-1.6 0-2.6-.5-3.5-1.3-.1-.1-.2-.3-.2-.4 0-.3.2-.6.6-.6.1 0 .3 0 .4.2.7.7 1.5 1 2.6 1 1.5 0 2.5-1 2.5-2.3 0-1.4-1-2.3-2.5-2.3-.8 0-1.6.3-2.2.8-.2.1-.4.2-.5.2-.4 0-.7-.3-.7-.7v-4.4c0-.5.4-1 1-1h5.1c.3 0 .6.3.6.6s-.3.6-.6.6h-4.7v3.7c.5-.5 1.4-1 2.5-1 1.8 0 3.4 1.2 3.4 3.4s-1.7 3.5-3.8 3.5z"/></g><g><path fill="#E6B923" d="M119.4 16.3c-2-3-7.5-5.1-9.9-2.6-.3.3-.5.6-.7.9.7.1 1.3.5 1.7 1.2.4.8.5 2.9-.2 4.1.2.2.4.5.6.8.2.5.5 1.3.6 2 .5.3 1.1.5 1.5.6.9.2 1.9.2 2.8.1 1.1-.1 2.2-.6 3-1.4 1.3-1.4 2-3.7.6-5.7z"/><path fill="#61B9DF" d="M106.6 19.9c.5-.3 1-.6 1.6-.7-.7-1.7-.4-3.3.6-4.7-.8-.2-1.7-.1-2.5.1-1.6.4-2 1.1-2 2.7 0 1.2.6 2.5 1.6 3.1.2-.1.5-.3.7-.5z"/><path fill="#DEBA29" d="M108.2 19.2c.5-.1 1 0 1.5.2.2.1.4.3.5.4.7-1.2.6-3.3.2-4.1-.3-.7-1-1.1-1.7-1.2-.9 1.4-1.2 3-.5 4.7z"/><path fill="#658439" d="M108.2 19.2c.5-.1 1 0 1.5.2.2.1.4.3.5.4.7-1.2.6-3.3.2-4.1-.3-.7-1-1.1-1.7-1.2-.9 1.4-1.2 3-.5 4.7z"/><path fill="#E8138B" d="M109.1 20.7c-.5.2-.8.2-1.3.3-.7.1-1.3-.1-1.8-.5-.8.9-1.2 2.1-.9 3.2.5 0 1 .1 1.3.6.1.2.2.7.1 1.2 1.5.8 2.9.5 4.4-1.4.4-.4.5-.9.5-1.5-.5-.3-1-.6-1.3-.9-.4-.3-.7-.7-1-1z"/><path fill="#DEBA29" d="M110.2 19.8c-.1.2-.3.4-.5.6l-.6.3c.3.4.6.7 1 1.1.2.3.7.6 1.3.9 0-.7-.3-1.5-.6-2-.2-.4-.4-.6-.6-.9z"/><path fill="#C02629" d="M110.2 19.8c-.1.2-.3.4-.5.6l-.6.3c.3.4.6.7 1 1.1.2.3.7.6 1.3.9 0-.7-.3-1.5-.6-2-.2-.4-.4-.6-.6-.9z"/><path fill="#61B8DF" d="M107.8 20.9c.5-.1.8 0 1.3-.3-.4-.5-.7-1-.9-1.5-.6.1-1.2.4-1.6.7l-.6.6c.5.4 1.1.6 1.8.5z"/><path fill="#6E2A77" d="M107.8 20.9c.5-.1.8 0 1.3-.3-.4-.5-.7-1-.9-1.5-.6.1-1.2.4-1.6.7l-.6.6c.5.4 1.1.6 1.8.5z"/><path fill="#DEBA29" d="M109.7 19.4c-.5-.2-1-.3-1.5-.2.2.5.5 1 .9 1.5.2-.1.3-.2.6-.3.2-.1.4-.3.5-.6-.2-.1-.3-.3-.5-.4z"/><path fill="#61B8DF" d="M109.7 19.4c-.5-.2-1-.3-1.5-.2.2.5.5 1 .9 1.5.2-.1.3-.2.6-.3.2-.1.4-.3.5-.6-.2-.1-.3-.3-.5-.4z"/><path fill="#69262E" d="M109.7 19.4c-.5-.2-1-.3-1.5-.2.2.5.5 1 .9 1.5.2-.1.3-.2.6-.3.2-.1.4-.3.5-.6-.2-.1-.3-.3-.5-.4z"/><path fill="#EE8127" d="M105 23.7c-.2 0-.4 0-.5.1-.7.2-.9.5-.9 1.2 0 .8.6 1.6 1.5 1.6.3 0 .6-.1.8-.2.3-.3.4-.4.5-.9 0 0-.1-.1-.2-.1-.6-.4-1-1-1.2-1.7z"/><path fill="#E8168B" d="M106.3 24.3c-.2-.5-.8-.6-1.3-.6.2.6.5 1.2 1.2 1.6.1 0 .2.1.2.1.1-.4 0-.9-.1-1.1z"/><path fill="#EF8029" d="M106.3 24.3c-.2-.5-.8-.6-1.3-.6.2.6.5 1.2 1.2 1.6.1 0 .2.1.2.1.1-.4 0-.9-.1-1.1z"/><path fill="#CF1F42" d="M106.3 24.3c-.2-.5-.8-.6-1.3-.6.2.6.5 1.2 1.2 1.6.1 0 .1.1.2.1.1-.4.1-.9-.1-1.1"/><path fill="#FFF" d="M115 29.2c-.9-.2-2-.4-2.5-.4-3.4 0-5.1 2.2-5.1 5.8 0 2.9 1.2 4.9 3.7 4.9 1.7 0 2.6-.9 3.2-1.9v1c0 .5.3.9.8.9s.8-.4.8-.9v-8c0-.8-.1-1.2-.9-1.4zm-.8 5.5c0 1.4-.9 3.5-3 3.5-1.6 0-2.1-1.8-2.1-3.5 0-2.5.8-4.5 3.1-4.5.8 0 1.5.2 1.9.3l.1 4.2zm-10.6-4.9c0-.5.4-.9.8-.9.5 0 .9.4.9.9v8.8c0 .5-.4.9-.9.9s-.8-.4-.8-.9v-8.8zm-2.8 7.8c.2-.1.5-.3.8-.3.3 0 .6.2.6.7 0 .3-.1.5-.4.7-.7.5-1.8.9-3.1.9-2.9 0-4.5-1.8-4.5-5.3 0-4.1 2.5-5.3 4.4-5.3 1.1 0 2.1.2 3.2 1.1.2.1.3.4.3.6 0 .4-.3.8-.7.8-.2 0-.5-.1-.7-.3-.7-.6-1.2-.7-2.1-.7-1.6 0-2.8 1.2-2.7 3.8 0 2.3.8 4 2.9 4 .7-.2 1.3-.3 2-.7m-12.2-8.7c-2 0-4.6 1.1-4.6 5.3 0 3.7 1.7 5.4 4.3 5.4 2.5 0 4.6-1.7 4.6-5.6 0-4.7-2.9-5.1-4.3-5.1zm-.2 9.4c-2.2 0-2.7-2.3-2.7-4.3 0-2.1 1-3.7 2.8-3.7 1.9 0 2.7 1.6 2.7 4-.1 2.2-1 3.9-2.8 4zm-12.2-.8c.2 0 .4.1.5.2.6.3 1.3.6 2.3.6 1.1 0 1.9-.5 1.9-1.6s-1.1-1.5-2.2-1.9c-1.4-.5-2.9-1-2.9-2.9 0-2.1 1.6-3 3.4-3 1.1 0 2 .3 2.7.7.2.1.4.3.4.7 0 .4-.3.7-.6.7-.2 0-.4-.1-.6-.2-.6-.3-1.2-.5-2-.5s-1.8.3-1.8 1.4c0 1 1.1 1.4 2.2 1.8 1.4.5 3 1.1 3 3 0 2-1.4 3.1-3.5 3.1-1.5 0-2.4-.4-3-.8-.3-.1-.5-.3-.5-.7.1-.3.3-.6.7-.6m-14.3-4.6c0-1.4-.5-2.6-2.1-2.6-1.5 0-2.6 1.5-2.6 3.3v5.1c0 .5-.4.9-.9.9s-.8-.4-.8-.9v-8.8c0-.5.3-.9.8-.9s.8.4.8.9v.7c.7-1.2 1.8-1.6 3-1.6 2.2 0 3.5 1.2 3.5 3.5v6.2c0 .5-.4.9-.9.9s-.8-.4-.8-.9v-5.8zm-14.3-3.3c.1-.3.4-.5.8-.5.6 0 1 .5.8 1.1L46 38.9c-.1.4-.3.7-.8.7-.4 0-.6-.3-.7-.7l-3.2-8.6c-.2-.6.1-1.2.7-1.2.4 0 .7.2.8.5l2.5 6.6 2.3-6.6zm-14.2-3.8c0-.5.4-.9.8-.9.5 0 .9.4.9.9v13.1c0 .5-.4.9-.9.9s-.8-.4-.8-.9V25.8zm85.1-.2c0-.5.4-.9.8-.9.5 0 .9.4.9.9v13.1c0 .5-.4.9-.9.9s-.8-.4-.8-.9V25.6zm-45.6 3.7c-.8-.2-1.6-.3-2.3-.3-2.5 0-4.9 1.8-4.8 5.1 0 3.6 1.6 4.9 3.4 5.1l-.4.2c-1.1.7-2.2 1.6-2.2 3.1 0 1.6 1.1 2.8 3.2 2.8 4 0 4.2-3.8 4.2-6v-8.6c-.1-1.1-.4-1.3-1.1-1.4zm-.5 10.8c0 2.3-.5 4-2.5 4-1.1 0-1.8-.5-1.8-1.6 0-.9.9-1.7 2-2.6l2.3-2v2.2zm0-5.3c0 1.5-1 3.1-2.4 3.1-2.5 0-2.6-2.5-2.6-3.7 0-2.5 1.2-3.9 3-3.9.9 0 1.4.1 2 .3v4.2zm-21.2-4.9c0-.5.4-.9.8-.9.5 0 .9.4.9.9v8.8c0 .5-.4.9-.9.9s-.8-.4-.8-.9v-8.8zm-13.3.1c0-.5.4-.9.8-.9.5 0 .9.4.9.9v8.8c0 .5-.4.9-.9.9s-.8-.4-.8-.9V30z"/></g></svg>