<svg version="1" xmlns="http://www.w3.org/2000/svg" width="665.4" height="748.6" viewBox="0 0 665.4 748.6"><path fill="#BFBFBA" d="M102.5 179.1l20.9-2.8L112 93.2c-2.2 3.2-3.6 6.9-4.1 10.8L47.4 11.5C40.4.9 26.1-2.1 15.5 4.9c-10.6 7-13.6 21.3-6.6 31.9l93.6 142.3z"/><path fill="#13517A" d="M665.4 723.3l-186.1 25.3-284-422.6 141.5-92.7"/><path fill="#0C3854" d="M665.4 723.3L542.7 740 243.6 294.4l93.2-61.1"/><path fill="#F4C9A1" d="M107.3 272.2c15.5 24.1 50.6 29.8 76.8 17.1l20.5 30.6 115.1-75.4-24.5-37.4c4-16.9 1.3-35.3-8.9-50.9l-59.9-91.4c-7-10.6-21.3-13.6-31.9-6.6-6.2 4-9.7 10.5-10.3 17.3-7.5-8.2-20-10-29.6-3.7-6.2 4-9.7 10.5-10.3 17.3-7.5-8.2-20-10-29.6-3.7-6 3.9-9.5 10.2-10.3 16.8L44 9.7C37-1 22.7-3.9 12.1 3 1.5 10-1.5 24.3 5.4 34.9l119.3 181.5-3 2-37.2-56.1c-8.3-12.7-25.3-16.2-38-7.9-4.1 2.7-7.2 6.2-9.3 10.2l70.1 107.6z"/><path d="M36.9 6.5L97.4 99c3.5 4.8 7.1 3.1 7.1 3.1L44 9.7c-3.3-5-8.2-8.3-13.6-9.7 2.5 1.7 4.7 3.9 6.5 6.5zm258.4 200.6c4-16.9 1.3-35.3-8.9-50.9l-59.9-91.4c-3.3-5-8.2-8.3-13.6-9.7 2.5 1.7 4.7 3.9 6.5 6.5l59.9 91.4c10.2 15.6 12.9 34 8.9 50.9l24.5 37.4-108 78.5 115.1-75.4-24.5-37.3zm-118.2 79c-16 7.8-35.1 8.7-51.2 2.8 15.6 8.2 35.6 9.1 52.9 2.6.5-.2 4.9-2.1 5.4-2.3l-7.1-3.1zM69 150.9c3.3 2 6.2 4.8 8.5 8.2l39.7 59.8 4.5-.6-36.4-54.9c-5.3-8.5-11.8-11.2-16.3-12.5zm75.1-60.1c.1-.7.2-1.3.3-2-1.7-1.9-4.9-5.4-11.5-6.6 5.5 2.2 9.9 7.2 11.2 8.6zm40.6-12.3s-.6-2.6-.4-3.2c-5-5.2-10.9-6.5-12.4-6.9 1.4 1 8.7 4.9 12.8 10.1z" fill="#EFB481"/><path fill="#E6DED3" d="M60.6 186.6c-1.3.9-2.8 1.4-4.3 1.6-2.6.3-6.5-.3-9.4-4.2-4.7-6.3-11.9-16.3-11.8-17.9.1-1.6 2.9-4.8 7.9-5.7 5.1-.9 6.4-.7 9.4 2s10 15.5 10.4 16.9c.4 1.3 1.6 4.6-2.2 7.3zM30.7 34.5l-.3.2c-7.7 5.2-15.7 6.8-21.9-2.4l-5.4-8C-3.1 15.1.7 7.1 8.4 2l.3-.2c7.7-5.2 16.5-5.7 22.7 3.5l5.4 8c6.1 9.2 1.6 16-6.1 21.2z"/></svg>