<svg version="1" xmlns="http://www.w3.org/2000/svg" width="375.6" height="286.6" viewBox="0 0 375.6 286.6"><path fill="#FFF" d="M0 52.3v227.9c0 1.4 1.3 1.9 2.2 1.9h369.6c1.6 0 2.1-1.1 2.1-1.9V52.3H0z"/><linearGradient id="a" gradientUnits="userSpaceOnUse" x1="278" y1="288.11" x2="278" y2="280.371" gradientTransform="matrix(1 0 0 -1 0 288)"><stop offset="0" stop-color="#656666"/><stop offset="1" stop-color="#1E1E1E"/></linearGradient><path fill="url(#a)" d="M277.5 0c.2 0 1 .1 1 1.1 0-1-.9-1.1-1-1.1z"/><path fill="#1A87C9" d="M374.3 2.3c0-1.7-1.3-2.3-2.1-2.3H2.2C.6 0 0 1.4 0 2.3V57.5h374.3V2.3z"/><g fill="#FFF"><path d="M62.3 39.8c-3 0-6.6-1-7.7-2.7-.2-.3-.3-.7-.3-1 0-1.2 1-2 2-2 .4 0 .8.1 1.2.3 1.4.9 3.1 1.6 5.1 1.6 2.4 0 3.5-1.1 3.5-2.3 0-3.6-11.7-1.1-11.7-8.8 0-3.4 2.9-6.2 7.7-6.2 2.3 0 5.9.8 7 2.3.2.3.4.7.4 1 0 1.2-1.1 2-2.2 2-.4 0-.7-.1-1.1-.3-1.4-.8-3-1.2-4.5-1.2-1.9 0-2.9.8-2.9 2 0 3.2 11.7 1.1 11.7 8.7-.1 3.8-2.7 6.6-8.2 6.6zM84.1 39.6h-.3c-.3 0-1.7-.2-1.7-1.7-1 1.2-2.7 1.9-4.7 1.9-2.3 0-5.1-1.6-5.1-4.9 0-3.4 2.8-4.8 5.1-4.8 2 0 3.7.6 4.7 1.8v-2c0-1.5-1.3-2.5-3.2-2.5-1.2 0-2.3.3-3.3.9-.2.1-.5.2-.7.2-.7 0-1.5-.6-1.5-1.5 0-.3.1-.5.2-.8.9-1.5 4.2-2.1 5.9-2.1 3.4 0 6.4 1.3 6.4 5.6v7.8c.1 1.2-.8 2.1-1.8 2.1zm-2-5.6c-.6-.9-1.9-1.3-3.1-1.3-1.5 0-2.8.8-2.8 2.2 0 1.4 1.3 2.2 2.8 2.2 1.3 0 2.5-.4 3.1-1.3V34zM94.8 39.8c-2.7 0-4.2-1.4-4.2-4V28h-.9c-.9 0-1.7-.8-1.7-1.7 0-.9.8-1.6 1.7-1.6h.9v-2.3c0-1.1.9-1.9 2-1.9s1.9.9 1.9 1.9v2.3H96c.9 0 1.6.8 1.6 1.7 0 .9-.8 1.7-1.6 1.7h-1.5v6.6c0 1.2.7 1.6 1.3 1.6h.3c1.1 0 1.7.7 1.7 1.7.1 1-.5 1.8-3 1.8zM112 39.6c-1.1 0-1.9-.9-1.9-1.9v-.1c-1 1.1-2.8 2.2-5.2 2.2-3.2 0-4.8-1.8-4.8-4.6v-8.8c0-1 .9-1.9 2-1.9 1 0 1.9.9 1.9 1.9v7.2c0 2 1.1 2.7 2.7 2.7 1.5 0 2.7-.8 3.4-1.7v-8.3c0-1 .9-1.9 2-1.9 1 0 1.9.9 1.9 1.9v11.3c0 1.1-.9 2-2 2zM124.7 28.1c-1.2.2-2.3.6-3 1.6v8c0 1.1-.9 1.9-1.9 1.9h-.1c-1.1 0-1.9-.9-1.9-1.9V26.4c0-1 .9-1.9 2-1.9 1 0 1.9.9 1.9 1.9v.3c.7-1 1.7-2.1 3.2-2.1 1.1 0 1.7.7 1.7 1.6 0 1.1-.8 1.8-1.9 1.9zM140.8 39.6c-1.1 0-1.9-.9-1.9-1.9v-.2c-1.2 1.5-2.8 2.3-4.5 2.3-3.7 0-6.5-2.8-6.5-7.7 0-4.8 2.8-7.7 6.5-7.7 1.7 0 3.4.8 4.5 2.3v-5.8c0-1.1.9-1.9 2-1.9s1.9.9 1.9 1.9v16.9c0 .9-.8 1.8-2 1.8zm-1.9-10.2c-.6-1-2-1.7-3.4-1.7-2.2 0-3.7 1.7-3.7 4.3 0 2.5 1.5 4.3 3.7 4.3 1.3 0 2.7-.7 3.4-1.7v-5.2zM157.5 39.6h-.3c-.3 0-1.7-.2-1.7-1.7-1 1.2-2.7 1.9-4.7 1.9-2.3 0-5.1-1.6-5.1-4.9 0-3.4 2.8-4.8 5.1-4.8 2 0 3.7.6 4.7 1.8v-2c0-1.5-1.3-2.5-3.2-2.5-1.2 0-2.3.3-3.3.9-.2.1-.5.2-.7.2-.7 0-1.5-.6-1.5-1.5 0-.3.1-.5.2-.8.9-1.5 4.2-2.1 5.9-2.1 3.4 0 6.4 1.3 6.4 5.6v7.8c.1 1.2-.8 2.1-1.8 2.1zm-2-5.6c-.6-.9-1.9-1.3-3.1-1.3-1.5 0-2.8.8-2.8 2.2 0 1.4 1.3 2.2 2.8 2.2 1.3 0 2.5-.4 3.1-1.3V34z"/></g><path fill="#FFF" d="M175.5 27.1l-5.9 14.7c-1 2.6-2.9 3.6-5.1 3.6-1.3 0-2.4-.7-2.4-1.7 0-.9.7-1.7 1.8-1.7h.5c.6-.1 1.2-.4 1.5-1l.5-1.2-5-12.6c-.1-.2-.1-.4-.1-.6 0-.9.8-1.9 2-1.9.8 0 1.5.5 1.8 1.3l3.4 9.2 3.4-9.2c.3-.8 1-1.3 1.9-1.3 1.2 0 1.9.9 1.9 1.9-.1 0-.1.3-.2.5z"/><g fill="#FFF"><path d="M179.5 43.1c-.2.2-.5.3-.8.3-.5 0-1.2-.4-1.2-1 0-.2.1-.5.3-.7.8-.6 1.5-1.6 1.6-2.4-.1 0-.4.1-.6.1-1.2 0-2.1-.9-2.1-2.2 0-1.3 1.1-2.4 2.4-2.4 1.4 0 2.7 1.1 2.7 3.1.2 2-.7 3.8-2.3 5.2zM196.7 39.8c-1.5 0-4.1-.4-4.9-1.7-.2-.2-.2-.5-.2-.9 0-1.1.9-1.9 2-1.9.2 0 .3 0 .5.1.7.2 1.4.6 2.3.6 1.9 0 3.2-1.3 3.2-3.3V21c0-1.2 1-2.1 2.2-2.1 1.2 0 2.1 1 2.1 2.1v11.7c0 4.8-3 7.1-7.2 7.1zM219.7 39.6c-1.1 0-1.9-.9-1.9-1.9v-.1c-1 1.1-2.8 2.2-5.2 2.2-3.2 0-4.8-1.8-4.8-4.6v-8.8c0-1 .9-1.9 2-1.9 1 0 1.9.9 1.9 1.9v7.2c0 2 1.1 2.7 2.7 2.7 1.5 0 2.7-.8 3.4-1.7v-8.3c0-1 .9-1.9 2-1.9 1 0 1.9.9 1.9 1.9v11.3c-.1 1.1-.9 2-2 2zM237.3 39.6c-1.1 0-1.9-.9-1.9-1.9v-7.2c0-2-1.1-2.7-2.7-2.7-1.5 0-2.7.9-3.4 1.7v8.2c0 1.1-.9 1.9-2 1.9s-1.9-.9-1.9-1.9V26.4c0-1 .9-1.9 2-1.9 1 0 1.9.9 1.9 1.9v.2c.9-1.1 2.7-2.3 5.2-2.3 3.2 0 4.8 1.8 4.8 4.7v8.7c0 1-.9 1.9-2 1.9zM255.3 33.3h-9.1c.2 1.9 1.7 3.4 4.2 3.4.8 0 2-.2 2.9-.7.2-.1.5-.2.8-.2.8 0 1.6.6 1.6 1.6 0 1.7-3.8 2.4-5.7 2.4-4.5 0-7.9-3-7.9-7.7 0-4.3 3.1-7.7 7.6-7.7 3.3 0 5.9 1.9 6.9 5 .2.7.4 1.5.4 2.2.1.8-.6 1.7-1.7 1.7zm-5.5-5.9c-2.4 0-3.4 1.8-3.6 3.3h7.3c-.1-1.5-1.1-3.3-3.7-3.3zM274.2 39.6c-1.2 0-2.1-1-2.1-2.1V24.6l-2.3 2.3c-.3.3-.8.5-1.2.5-.9 0-1.8-.8-1.8-1.8 0-.5.2-.9.5-1.3l4.7-4.8c.5-.5 1.1-.7 1.8-.7 1.4 0 2.5 1.1 2.5 2.5v16.1c.1 1.2-.9 2.2-2.1 2.2zM293.5 39.4h-11.8c-1.1 0-2-.9-2-2.1 0-.7.3-1.4.9-1.8 7.6-5.6 10-7.8 10-10.2 0-1.8-1.6-2.7-3.3-2.7-1.6 0-3 .5-4.2 1.2-.4.3-.8.4-1.3.4-1 0-1.9-.9-1.9-2 0-.3.1-.6.3-.9 1-1.6 4.4-2.7 7-2.7 4.3 0 7.8 2.4 7.8 6.5 0 3.5-2.9 6.5-8.1 10.3h6.6c1 0 1.9.9 1.9 1.9 0 1.2-.9 2.1-1.9 2.1z"/></g><g fill="#FFF"><path d="M304.3 34.9c-2.3 0-3.5-1.2-3.5-3.4V25h-.8c-.8 0-1.4-.6-1.4-1.5 0-.7.6-1.4 1.4-1.4h.8v-1.9c0-.9.7-1.6 1.7-1.6.9 0 1.6.7 1.6 1.6v1.9h1.3c.7 0 1.4.6 1.4 1.4 0 .8-.6 1.4-1.4 1.4h-1.3v5.6c0 1 .6 1.4 1.1 1.4h.3c.9 0 1.4.6 1.4 1.4.1.9-.4 1.6-2.6 1.6zM318.9 34.7c-.9 0-1.6-.7-1.6-1.6V27c0-1.7-.9-2.3-2.3-2.3-1.3 0-2.3.7-2.8 1.5v6.9c0 .9-.7 1.6-1.6 1.6-.9 0-1.6-.7-1.6-1.6V18.9c0-.9.7-1.6 1.7-1.6.9 0 1.6.7 1.6 1.6v4.9c.8-1 2.3-1.9 4.4-1.9 2.7 0 4 1.5 4 3.9v7.3c-.2.9-.9 1.6-1.8 1.6z"/></g><g><path fill="#9DAB39" d="M42.7 197.2c-9.7 0-17.7 7.7-17.7 17.1 0 9.4 7.9 17.1 17.7 17.1h58.4v-34.3l-58.4.1z"/><path fill="#BCBCBB" d="M332.9 197.2H101.1v34.3h231.8c9.7 0 17.7-7.7 17.7-17.1 0-9.5-8-17.2-17.7-17.2z"/></g></svg>