<svg version="1" xmlns="http://www.w3.org/2000/svg" width="375.6" height="286.6" viewBox="0 0 375.6 286.6"><path fill="#FFF" d="M1.4 49.9v227.9c0 1.4 1.3 1.9 2.2 1.9h369.6c1.6 0 2.1-1.1 2.1-1.9V49.9H1.4z"/><linearGradient id="a" gradientUnits="userSpaceOnUse" x1="279.3" y1="290.452" x2="279.3" y2="282.713" gradientTransform="matrix(1 0 0 -1 0 288)"><stop offset="0" stop-color="#656666"/><stop offset="1" stop-color="#1E1E1E"/></linearGradient><path fill="url(#a)" d="M278.8-2.3c.2 0 1 .1 1 1.1 0-1-.8-1.1-1-1.1z"/><g fill="#595959"><path d="M309.9 93.1l1.6-.1c.1.6.3 1.2.5 1.6.3.4.7.7 1.3 1 .6.3 1.2.4 2 .4.6 0 1.2-.1 1.7-.3.5-.2.9-.5 1.1-.8s.4-.7.4-1.1-.1-.8-.4-1.1c-.2-.3-.6-.6-1.2-.8-.3-.1-1.1-.3-2.3-.6-1.2-.3-2-.6-2.5-.8-.6-.3-1.1-.7-1.4-1.2s-.5-1-.5-1.6.2-1.3.6-1.8c.4-.6.9-1 1.6-1.3s1.5-.4 2.4-.4c1 0 1.8.2 2.5.5s1.3.8 1.7 1.4c.4.6.6 1.3.6 2l-1.6.1c-.1-.8-.4-1.4-.9-1.8s-1.3-.6-2.2-.6c-1 0-1.8.2-2.3.6s-.7.8-.7 1.4c0 .5.2.8.5 1.1.3.3 1.2.6 2.6.9s2.3.6 2.8.8c.7.3 1.3.8 1.7 1.3.4.5.5 1.1.5 1.8s-.2 1.3-.6 1.9-1 1.1-1.7 1.4-1.6.5-2.5.5c-1.2 0-2.1-.2-2.9-.5s-1.4-.8-1.9-1.5c-.2-.8-.4-1.6-.5-2.4zM331 84.4h1.7v7.4c0 1.3-.1 2.3-.4 3.1-.3.8-.8 1.4-1.6 1.9s-1.8.7-3 .7-2.2-.2-3-.6-1.3-1-1.6-1.8c-.3-.8-.5-1.9-.5-3.2v-7.4h1.7v7.4c0 1.1.1 1.9.3 2.5.2.5.6.9 1.1 1.2.5.3 1.1.4 1.9.4 1.3 0 2.1-.3 2.7-.9.5-.6.8-1.7.8-3.3v-7.4h-.1zM335.5 97.2V84.4h1.7l6.8 10.1V84.4h1.6v12.9h-1.7l-6.8-10.1v10.1h-1.6v-.1z"/></g><g fill="#595959"><path d="M30.9 97.2V85.9h-4.2v-1.5h10.2v1.5h-4.3v11.3h-1.7zM38.7 97.2V84.4h1.7v5.3h6.7v-5.3h1.7v12.9h-1.7v-6.1h-6.7v6.1h-1.7v-.1zM60.1 84.4h1.7v7.4c0 1.3-.1 2.3-.4 3.1-.3.8-.8 1.4-1.6 1.9s-1.8.7-3 .7-2.2-.2-3-.6-1.3-1-1.6-1.8-.5-1.9-.5-3.2v-7.4h1.7v7.4c0 1.1.1 1.9.3 2.5.2.5.6.9 1.1 1.2.5.3 1.1.4 1.9.4 1.3 0 2.1-.3 2.7-.9.5-.6.8-1.7.8-3.3v-7.4h-.1z"/></g><g fill="#595959"><path d="M129 97.2V84.4h8.7v1.5h-7v4h6v1.5h-6v5.8H129zM139.9 97.2V84.4h5.7c1.1 0 2 .1 2.6.3.6.2 1.1.6 1.4 1.2.4.6.5 1.2.5 1.9 0 .9-.3 1.7-.9 2.3-.6.6-1.5 1-2.7 1.2.5.2.8.4 1 .6.5.5 1 1 1.4 1.7l2.2 3.5H149l-1.7-2.7c-.5-.8-.9-1.4-1.2-1.8s-.6-.7-.9-.9c-.3-.2-.5-.3-.8-.3-.2 0-.5-.1-.9-.1h-2V97h-1.6v.2zm1.7-7.2h3.7c.8 0 1.4-.1 1.8-.2.4-.2.8-.4 1-.8s.3-.7.3-1.2c0-.6-.2-1.1-.7-1.5-.4-.4-1.1-.6-2.1-.6h-4.1V90h.1zM153.1 97.2V84.4h1.7v12.9h-1.7v-.1z"/></g><g fill="#595959"><path d="M223.3 93.1l1.6-.1c.1.6.3 1.2.5 1.6.3.4.7.7 1.3 1s1.2.4 2 .4c.7 0 1.2-.1 1.7-.3.5-.2.9-.5 1.1-.8.2-.3.4-.7.4-1.1s-.1-.8-.4-1.1c-.2-.3-.6-.6-1.2-.8-.3-.1-1.1-.3-2.3-.6-1.2-.3-2-.6-2.5-.8-.6-.3-1.1-.7-1.4-1.2s-.5-1-.5-1.6.2-1.3.6-1.8c.4-.6.9-1 1.6-1.3.7-.3 1.5-.4 2.4-.4 1 0 1.8.2 2.5.5s1.3.8 1.7 1.4.6 1.3.6 2l-1.6.1c-.1-.8-.4-1.4-.9-1.8s-1.3-.6-2.2-.6c-1 0-1.8.2-2.3.6s-.7.8-.7 1.4c0 .5.2.8.5 1.1.3.3 1.2.6 2.6.9 1.4.3 2.3.6 2.8.8.7.3 1.3.8 1.7 1.3s.5 1.1.5 1.8-.2 1.3-.6 1.9c-.4.6-1 1.1-1.7 1.4s-1.6.5-2.5.5c-1.2 0-2.1-.2-2.9-.5-.8-.3-1.4-.8-1.9-1.5-.2-.8-.5-1.6-.5-2.4zM234.5 97.2l4.9-12.9h1.8l5.3 12.9h-1.9l-1.5-3.9h-5.4l-1.4 3.9h-1.8zm3.7-5.3h4.4l-1.3-3.6c-.4-1.1-.7-2-.9-2.7-.2.8-.4 1.6-.7 2.5l-1.5 3.8zM249.8 97.2V85.9h-4.2v-1.5h10.2v1.5h-4.3v11.3h-1.7z"/></g><path fill="#1A87C9" d="M375.6 0c0-1.7-1.3-2.3-2.1-2.3H3.6C1.9-2.3 1.3-1 1.3 0V55.2h374.3V0z"/><g fill="#FFF"><path d="M136.7 42.4c-2.3 0-6.2-.6-7.4-2.7-.2-.4-.4-.8-.4-1.4 0-1.7 1.4-2.9 3-2.9.3 0 .5 0 .8.1 1 .3 2.2.9 3.5.9 2.9 0 4.8-2 4.8-5V13.8c0-1.8 1.5-3.3 3.4-3.3 1.8 0 3.3 1.5 3.3 3.3v17.9c0 7.3-4.6 10.7-11 10.7zM168.8 42.4c-9.5 0-14-5.3-14-12.9V13.8c0-1.8 1.5-3.3 3.4-3.3 1.8 0 3.3 1.5 3.3 3.3v15.4c0 4.3 2.5 7.3 7.3 7.3s7.3-3 7.3-7.3V13.8c0-1.8 1.5-3.3 3.4-3.3 1.8 0 3.3 1.5 3.3 3.3v15.6c0 7.8-4.5 13-14 13zM213.6 42.1c-1.3 0-2.5-.6-3.3-1.7l-13.8-18.9v17.3c0 1.8-1.5 3.3-3.4 3.3-1.8 0-3.3-1.5-3.3-3.3v-24c0-2.2 1.9-4.2 4.3-4.2 1.4 0 2.8.7 3.6 1.8l13.2 18V13.8c0-1.8 1.5-3.3 3.4-3.3 1.8 0 3.3 1.5 3.3 3.3v24.4c.1 2-1.6 3.9-4 3.9zM244.2 41.9h-15.7c-2 0-3.7-1.7-3.7-3.7V14.5c0-2 1.7-3.7 3.7-3.7h15.7c1.5 0 2.8 1.3 2.8 2.9 0 1.6-1.3 2.9-2.8 2.9h-12.8v6.6h12.5c1.5 0 2.8 1.3 2.8 2.9 0 1.6-1.3 2.9-2.8 2.9h-12.5v7h12.8c1.5 0 2.8 1.3 2.8 2.8.1 1.8-1.2 3.1-2.8 3.1z"/></g><path fill="#424242" d="M0 116.1h375.9v1H0zM0 196.5h375.9v1.1H0z"/><path fill="#424242" d="M187.6 117.2h.6v169.4h-.6zM284 117.2h.6v169.4h-.6z"/><path fill="#9DAB39" d="M188.3 117.1h95.6v79.3h-95.6z"/><path fill="#424242" d="M91.3 117.2h.6v169.4h-.6z"/><g><g fill="#010101"><path d="M40.2 169.6h-4.9v-18.3c-1.8 1.7-3.9 2.9-6.3 3.7v-4.4c1.3-.4 2.6-1.2 4.1-2.4 1.5-1.2 2.5-2.5 3.1-4.1h3.9v25.5h.1zM55.6 144.2c2.5 0 4.4.9 5.8 2.6 1.7 2.1 2.5 5.5 2.5 10.3s-.8 8.3-2.5 10.4c-1.4 1.7-3.3 2.6-5.7 2.6-2.5 0-4.5-.9-6-2.8s-2.3-5.3-2.3-10.2c0-4.8.8-8.2 2.5-10.3 1.4-1.8 3.3-2.6 5.7-2.6zm0 4c-.6 0-1.1.2-1.6.6-.5.4-.8 1-1.1 2-.3 1.3-.5 3.4-.5 6.4s.1 5 .5 6.1c.3 1.1.7 1.9 1.1 2.2.5.4 1 .6 1.6.6s1.1-.2 1.6-.6c.5-.4.8-1 1.1-2 .3-1.2.5-3.4.5-6.3 0-3-.1-5-.5-6.1-.3-1.1-.7-1.9-1.1-2.2-.4-.5-1-.7-1.6-.7z"/></g><g fill="#010101"><path d="M135.7 169.2h-4.9v-18.3c-1.8 1.7-3.9 2.9-6.3 3.7v-4.4c1.3-.4 2.6-1.2 4.1-2.4 1.5-1.2 2.5-2.5 3.1-4.1h3.9l.1 25.5zM153.5 169.2h-4.9v-18.3c-1.8 1.7-3.9 2.9-6.3 3.7v-4.4c1.3-.4 2.6-1.2 4.1-2.4s2.5-2.5 3.1-4.1h3.9l.1 25.5z"/></g><g fill="#FFF"><path d="M230.1 169.5h-4.9v-18.3c-1.8 1.7-3.9 2.9-6.3 3.7v-4.4c1.3-.4 2.7-1.2 4.1-2.4 1.5-1.2 2.5-2.5 3.1-4.1h3.9l.1 25.5zM253.8 165v4.5h-17c.2-1.7.7-3.3 1.7-4.9.9-1.5 2.7-3.6 5.5-6.1 2.2-2 3.5-3.4 4-4.2.7-1 1-2 1-3 0-1.1-.3-1.9-.9-2.5-.6-.6-1.4-.9-2.4-.9s-1.8.3-2.4.9c-.6.6-.9 1.6-1 3l-4.8-.5c.3-2.7 1.2-4.6 2.7-5.8s3.4-1.7 5.7-1.7c2.5 0 4.5.7 5.9 2 1.4 1.4 2.1 3 2.1 5 0 1.1-.2 2.2-.6 3.3-.4 1-1.1 2.1-1.9 3.2-.6.7-1.7 1.8-3.2 3.2s-2.5 2.3-2.9 2.8-.7.9-1 1.3h9.5v.4z"/></g><g fill="#010101"><path d="M324.3 168.7h-4.9v-18.3c-1.8 1.7-3.9 2.9-6.3 3.7v-4.4c1.3-.4 2.6-1.2 4.1-2.4s2.5-2.5 3.1-4.1h3.9l.1 25.5zM331.4 161.9l4.7-.6c.1 1.2.6 2.1 1.2 2.8.7.6 1.5 1 2.4 1 1 0 1.8-.4 2.5-1.1.7-.8 1-1.8 1-3.1 0-1.2-.3-2.2-1-2.9s-1.5-1.1-2.4-1.1c-.6 0-1.4.1-2.2.4l.5-4c1.3 0 2.3-.3 3-.9.7-.6 1-1.4 1-2.4 0-.9-.3-1.5-.8-2s-1.2-.8-2-.8-1.5.3-2.1.9c-.6.6-.9 1.4-1.1 2.5l-4.5-.8c.3-1.5.8-2.8 1.4-3.7s1.5-1.6 2.6-2.2c1.1-.5 2.4-.8 3.8-.8 2.4 0 4.3.8 5.7 2.3 1.2 1.2 1.8 2.7 1.8 4.2 0 2.2-1.2 4-3.7 5.3 1.5.3 2.6 1 3.5 2.1s1.3 2.4 1.3 3.9c0 2.2-.8 4.1-2.4 5.7-1.6 1.6-3.7 2.4-6.1 2.4-2.3 0-4.2-.7-5.7-2-1.3-1.2-2.1-2.9-2.4-5.1z"/></g></g><g fill="#010101"><path d="M39.9 248.5h-5v-18.7c-1.8 1.7-4 3-6.4 3.8V229c1.3-.4 2.7-1.2 4.2-2.4s2.6-2.6 3.1-4.1h4v26h.1zM47.4 227.5v-4.6h17v3.6c-1.4 1.4-2.8 3.4-4.3 5.9-1.5 2.6-2.6 5.3-3.3 8.2-.8 2.9-1.1 5.5-1.1 7.8h-4.8c.1-3.6.8-7.2 2.2-11 1.4-3.7 3.3-7.1 5.6-10H47.4v.1zM132.5 248h-5v-18.7c-1.8 1.7-4 3-6.4 3.8v-4.5c1.3-.4 2.7-1.2 4.2-2.4s2.6-2.6 3.1-4.1h4V248h.1zM144.2 234c-1.3-.5-2.2-1.3-2.8-2.2s-.9-2-.9-3.1c0-1.9.7-3.5 2-4.8 1.4-1.3 3.3-1.9 5.8-1.9s4.4.6 5.7 1.9c1.4 1.3 2 2.9 2 4.8 0 1.2-.3 2.3-.9 3.2-.6.9-1.5 1.7-2.6 2.2 1.4.6 2.5 1.4 3.3 2.5.7 1.1 1.1 2.4 1.1 3.8 0 2.4-.8 4.3-2.3 5.8s-3.6 2.2-6.1 2.2c-2.4 0-4.3-.6-5.9-1.9-1.9-1.5-2.8-3.5-2.8-6 0-1.4.3-2.7 1-3.9.8-1 1.9-2 3.4-2.6zm.6 6.1c0 1.4.4 2.4 1.1 3.2.7.8 1.6 1.1 2.6 1.1s1.9-.4 2.5-1.1c.7-.7 1-1.8 1-3.2 0-1.2-.3-2.2-1-2.9s-1.6-1.1-2.6-1.1c-1.2 0-2.1.4-2.7 1.3-.6.8-.9 1.7-.9 2.7zm.4-11.1c0 1 .3 1.8.8 2.3.6.6 1.3.8 2.2.8s1.7-.3 2.3-.8c.6-.6.8-1.3.8-2.3 0-.9-.3-1.7-.8-2.2-.6-.6-1.3-.8-2.2-.8-1 0-1.7.3-2.3.8-.5.5-.8 1.3-.8 2.2z"/><g><path d="M229.9 248h-5v-18.7c-1.8 1.7-4 3-6.4 3.8v-4.5c1.3-.4 2.7-1.2 4.2-2.4s2.6-2.6 3.1-4.1h4l.1 25.9zM237.4 242l4.8-.5c.1 1 .4 1.7.9 2.2s1.1.7 2 .7c1 0 1.9-.5 2.6-1.4.7-.9 1.2-2.9 1.4-5.9-1.2 1.5-2.8 2.2-4.7 2.2-2 0-3.8-.8-5.3-2.4-1.5-1.6-2.2-3.6-2.2-6.1 0-2.6.8-4.7 2.3-6.4 1.6-1.6 3.6-2.4 6-2.4 2.6 0 4.8 1 6.5 3.1 1.7 2 2.5 5.4 2.5 10 0 4.7-.9 8.2-2.6 10.3-1.8 2.1-4 3.1-6.9 3.1-2 0-3.7-.5-4.9-1.6-1.2-1.1-2-2.7-2.4-4.9zm11.3-10.9c0-1.6-.4-2.8-1.1-3.7-.7-.9-1.6-1.3-2.6-1.3-.9 0-1.7.4-2.3 1.1-.6.7-.9 1.9-.9 3.6 0 1.7.3 2.9 1 3.7s1.5 1.2 2.5 1.2 1.8-.4 2.4-1.1c.6-.9 1-2 1-3.5z"/></g><g><path d="M329.3 243.4v4.6h-17.4c.2-1.7.8-3.4 1.7-5 .9-1.6 2.8-3.6 5.6-6.2 2.2-2.1 3.6-3.5 4.1-4.2.7-1 1-2 1-3 0-1.1-.3-2-.9-2.6s-1.4-.9-2.5-.9c-1 0-1.9.3-2.5.9-.6.6-1 1.7-1.1 3.1l-5-.5c.3-2.7 1.2-4.7 2.8-5.9 1.6-1.2 3.5-1.8 5.8-1.8 2.6 0 4.6.7 6 2.1 1.5 1.4 2.2 3.1 2.2 5.1 0 1.2-.2 2.3-.6 3.3-.4 1.1-1.1 2.2-2 3.3-.6.8-1.7 1.9-3.3 3.3-1.6 1.4-2.6 2.4-3 2.9s-.8.9-1 1.4l10.1.1zM341.1 222c2.5 0 4.5.9 5.9 2.7 1.7 2.1 2.5 5.6 2.5 10.6 0 4.9-.8 8.4-2.5 10.6-1.4 1.8-3.4 2.7-5.9 2.7s-4.6-1-6.1-2.9-2.3-5.4-2.3-10.4c0-4.9.8-8.4 2.5-10.5 1.4-1.9 3.4-2.8 5.9-2.8zm0 4.1c-.6 0-1.1.2-1.6.6-.5.4-.8 1.1-1.1 2.1-.3 1.3-.5 3.4-.5 6.5 0 3 .2 5.1.5 6.3.3 1.1.7 1.9 1.2 2.3.5.4 1 .6 1.6.6s1.1-.2 1.6-.6c.5-.4.8-1.1 1.1-2.1.3-1.3.5-3.4.5-6.5 0-3-.2-5.1-.5-6.3-.3-1.1-.7-1.9-1.2-2.3s-1-.6-1.6-.6z"/></g></g></svg>