<svg xmlns="http://www.w3.org/2000/svg" width="153.8" height="258.5" viewBox="0 0 153.8 258.5"><path fill="#FFF" d="M-.6-.6L153.8-1l.6 258.2-154.4.4L-.6-.6z"/><path opacity=".6" fill="#E2E2E2" d="M19.7 257.5l134.7-.3L153.8-1h-18.5"/><path fill="#1288CA" d="M141.8 163.8l-130.1.3c-2.2 0-4-1.8-4-4l-.1-38.4c0-2.2 1.8-4 4-4l130.1-.3c2.2 0 4 1.8 4 4l.1 38.4c-.1 2.2-1.8 4-4 4z"/><path fill="#E7B923" d="M131.3 22c-2.5-3.8-9.6-6.5-12.7-3.3-.3.4-.7.7-.9 1.1.9.2 1.7.7 2.2 1.6.5 1 .6 3.7-.3 5.2.3.3.5.7.7 1.1.3.7.7 1.6.7 2.5.7.4 1.4.7 1.9.8 1.2.3 2.4.3 3.6.1 1.5-.2 2.8-.8 3.8-1.7 1.8-1.9 2.7-4.8 1-7.4z"/><path fill="#5FB8DE" d="M114.9 26.6c.6-.4 1.3-.8 2.1-.9-.9-2.2-.5-4.2.7-6-1-.2-2.2-.1-3.1.1-2 .5-2.6 1.4-2.5 3.5 0 1.6.8 3.2 2.1 4 .1-.2.4-.5.7-.7z"/><path fill="#DEBA29" d="M116.9 25.7c.6-.1 1.3 0 1.9.3.3.1.5.3.7.5.9-1.5.8-4.2.3-5.2-.4-.9-1.2-1.4-2.2-1.6-1.2 1.8-1.6 3.8-.7 6z"/><path fill="#638339" d="M116.9 25.7c.6-.1 1.3 0 1.9.3.3.1.5.3.7.5.9-1.5.8-4.2.3-5.2-.4-.9-1.2-1.4-2.2-1.6-1.2 1.8-1.6 3.8-.7 6z"/><path fill="#E90C8B" d="M118.1 27.6c-.7.3-1.1.3-1.7.3-.9.1-1.7-.2-2.3-.6-1 1.1-1.5 2.8-1.2 4.1.7 0 1.3.1 1.6.7.1.3.2.9.1 1.5 1.9 1 3.7.6 5.6-1.7.5-.5.6-1.2.6-1.9-.7-.3-1.3-.8-1.6-1.1-.4-.4-.8-.8-1.1-1.3z"/><path fill="#DEBA29" d="M119.5 26.5c-.2.3-.4.6-.7.7-.3.2-.5.3-.7.4.4.5.8.9 1.2 1.4.3.4.9.8 1.6 1.1 0-.9-.4-1.9-.7-2.5-.2-.4-.4-.8-.7-1.1z"/><path fill="#C02328" d="M119.5 26.5c-.2.3-.4.6-.7.7-.3.2-.5.3-.7.4.4.5.8.9 1.2 1.4.3.4.9.8 1.6 1.1 0-.9-.4-1.9-.7-2.5-.2-.4-.4-.8-.7-1.1z"/><path fill="#60B7DE" d="M116.4 28c.6-.1 1-.1 1.7-.3-.5-.6-.9-1.3-1.1-1.9-.7.1-1.5.5-2.1.9-.3.2-.6.5-.8.8.6.3 1.4.5 2.3.5z"/><path fill="#6D2977" d="M116.4 28c.6-.1 1-.1 1.7-.3-.5-.6-.9-1.3-1.1-1.9-.7.1-1.5.5-2.1.9-.3.2-.6.5-.8.8.6.3 1.4.5 2.3.5z"/><path fill="#DEBA29" d="M118.8 26c-.6-.3-1.2-.4-1.9-.3.3.6.6 1.3 1.1 1.9.2-.1.4-.2.7-.4.3-.2.5-.4.7-.7-.1-.2-.3-.4-.6-.5z"/><path fill="#60B7DE" d="M118.8 26c-.6-.3-1.2-.4-1.9-.3.3.6.6 1.3 1.1 1.9.2-.1.4-.2.7-.4.3-.2.5-.4.7-.7-.1-.2-.3-.4-.6-.5z"/><path fill="#69252D" d="M118.8 26c-.6-.3-1.2-.4-1.9-.3.3.6.6 1.3 1.1 1.9.2-.1.4-.2.7-.4.3-.2.5-.4.7-.7-.1-.2-.3-.4-.6-.5z"/><path fill="#EF8128" d="M112.9 31.5c-.3 0-.5.1-.7.1-.9.2-1.1.6-1.1 1.5 0 1.1.8 2.1 1.9 2 .4 0 .8-.1 1.1-.3.4-.3.5-.6.6-1.1 0 0-.1-.1-.2-.1-.9-.5-1.4-1.3-1.6-2.1z"/><path fill="#E9128B" d="M114.5 32.2c-.3-.6-1-.8-1.6-.7.2.8.7 1.6 1.6 2.1.1 0 .2.1.2.1.1-.5 0-1.2-.2-1.5z"/><path fill="#EF802A" d="M114.5 32.2c-.3-.6-1-.8-1.6-.7.2.8.7 1.6 1.6 2.1.1 0 .2.1.2.1.1-.5 0-1.2-.2-1.5z"/><path fill="#CF1F41" d="M114.5 32.2c-.3-.6-1-.8-1.7-.7.2.8.7 1.6 1.6 2.1.1 0 .1.1.2.1.2-.5.1-1.2-.1-1.5"/><path fill="#231F20" d="M125.6 38.6c-1.1-.3-2.5-.5-3.2-.5-4.3 0-6.5 2.8-6.5 7.4 0 3.8 1.5 6.3 4.7 6.3 2.2 0 3.3-1.2 4-2.4v1.2c0 .6.4 1.1 1 1.1s1-.5 1-1.1V40.3c.1-1 0-1.5-1-1.7zm-1 7c0 1.8-1.2 4.5-3.9 4.5-2 0-2.7-2.3-2.7-4.5 0-3.2 1-5.7 4-5.7 1 0 2 .2 2.5.4l.1 5.3zm-13.5-6.3c0-.6.5-1.1 1.1-1.1.6 0 1.1.5 1.1 1.1v11.3c0 .6-.5 1.1-1.1 1.1-.6 0-1.1-.5-1.1-1.1V39.3zm-3.6 10c.3-.2.7-.4 1.1-.4.4 0 .8.3.8.9 0 .3-.2.6-.5.8-.9.6-2.4 1.2-4 1.2-3.7 0-5.7-2.4-5.7-6.8 0-5.3 3.2-6.8 5.7-6.8 1.4 0 2.7.3 4 1.4.2.2.4.5.4.8 0 .5-.4 1-.9 1-.3 0-.6-.2-.9-.4-.9-.7-1.6-.9-2.6-.9-2 0-3.5 1.5-3.5 4.9 0 3 1.1 5.1 3.7 5.1.7-.1 1.5-.3 2.4-.8M91.8 38.2c-2.6 0-5.9 1.4-5.9 6.8 0 4.7 2.2 6.9 5.5 6.9s5.9-2.1 5.9-7.2c0-6-3.7-6.5-5.5-6.5zm-.2 11.9c-2.9 0-3.5-3-3.5-5.5 0-2.7 1.2-4.7 3.6-4.7 2.4 0 3.4 2.1 3.5 5.1-.1 2.8-1.3 5.1-3.6 5.1zm-15.6-1c.3 0 .5.1.7.2.8.4 1.7.8 3 .8 1.4 0 2.4-.7 2.4-2.1 0-1.4-1.4-1.9-2.8-2.4-1.8-.6-3.7-1.2-3.7-3.7 0-2.6 2.1-3.8 4.4-3.8 1.4 0 2.6.4 3.4.9.2.1.6.4.6.9s-.3.9-.8.9c-.2 0-.5-.1-.7-.3-.7-.4-1.6-.6-2.5-.6-1.1 0-2.2.4-2.2 1.8 0 1.3 1.4 1.8 2.8 2.3 1.7.6 3.8 1.4 3.8 3.9 0 2.6-1.8 3.9-4.5 3.9-1.9 0-3-.5-3.9-1-.3-.2-.6-.4-.6-.9-.3-.4.1-.8.6-.8m-18.4-5.8c0-1.8-.6-3.3-2.7-3.3-1.9 0-3.4 1.9-3.4 4.2v6.5c0 .6-.5 1.1-1.1 1.1-.6 0-1.1-.5-1.1-1.1V39.4c0-.6.4-1.1 1-1.1s1.1.5 1.1 1.1v.9c.9-1.5 2.3-2.1 3.9-2.1 2.8 0 4.5 1.5 4.5 4.5v8c0 .6-.5 1.1-1.1 1.1-.6 0-1.1-.5-1.1-1.1v-7.4zm-18.2-4.2c.2-.4.5-.7 1-.7.8 0 1.3.6 1 1.5L37.3 51c-.2.5-.4.9-1 .9-.5 0-.7-.4-.9-.9l-4.1-11c-.3-.8.1-1.6.9-1.6.5 0 .8.3 1 .7l3.1 8.5 3.1-8.5zm-18.3-4.9c0-.6.5-1.1 1.1-1.1.6 0 1.1.5 1.1 1.1v16.7c0 .6-.5 1.1-1.1 1.1-.6 0-1.1-.5-1.1-1.1V34.2zm109-.2c0-.6.5-1.1 1.1-1.1.6 0 1.1.5 1.1 1.1v16.7c0 .6-.5 1.1-1.1 1.1-.6 0-1.1-.5-1.1-1.1V34zm-58.4 4.6c-1-.2-2-.4-3-.4-3.3 0-6.2 2.3-6.2 6.6 0 4.6 2 6.3 4.4 6.5l-.5.3c-1.4.9-2.8 2-2.8 4 0 2.1 1.4 3.6 4.1 3.6 5.2 0 5.4-4.8 5.4-7.7v-11c-.1-1.5-.5-1.7-1.4-1.9zM71 52.4c0 2.9-.7 5.1-3.2 5.1-1.3 0-2.3-.6-2.3-2 0-1.2 1.2-2.2 2.5-3.4l2.9-2.5.1 2.8zm0-6.7c0 2-1.2 4-3.1 4-3.2 0-3.3-3.2-3.3-4.8 0-3.3 1.5-5 3.8-5 1.2 0 1.8.2 2.6.4v5.4zm-27.1-6.2c0-.6.5-1.1 1.1-1.1.6 0 1.1.5 1.1 1.1v11.3c0 .6-.5 1.1-1.1 1.1-.6 0-1.1-.5-1.1-1.1V39.5zm-17 0c0-.6.5-1.1 1.1-1.1.6 0 1.1.5 1.1 1.1v11.3c0 .6-.5 1.1-1.1 1.1-.6 0-1.1-.5-1.1-1.1V39.5z"/><g fill="#FFF"><path d="M31.5 137l-4.2 10.3c-.2.5-.7.8-1.2.8s-1-.3-1.2-.8L20.7 137c0-.1-.1-.2-.1-.3 0-.4.3-.8.8-.8.3 0 .6.2.7.5l3.9 10 3.9-10c.1-.3.4-.5.7-.5.5 0 .8.4.8.8.1.1.1.2.1.3zM34.2 148.1c-.4 0-.7-.3-.7-.7v-10.8c0-.4.3-.7.8-.7.4 0 .7.3.7.7v10.8c-.1.4-.4.7-.8.7zM45 148h-6.2c-.6 0-1.1-.5-1.1-1.1v-9.8c0-.6.5-1.1 1.1-1.1H45c.4 0 .6.3.6.7 0 .4-.3.6-.6.6h-5.8v3.9h5.7c.4 0 .6.3.6.7 0 .4-.3.6-.6.6h-5.7v4.1H45c.4 0 .6.3.6.6.1.5-.2.8-.6.8zM61.9 136.9l-3 10.5c-.1.4-.5.7-1 .7s-.8-.3-1-.7l-2.5-9.1-2.5 9.1c-.1.4-.5.7-1 .7s-.8-.3-1-.7l-3-10.5v-.2c0-.4.3-.8.8-.8.4 0 .7.2.8.6L51 146l2.6-9.6c.1-.3.4-.6.8-.6.3 0 .6.2.7.6l2.6 9.6 2.5-9.5c.1-.3.4-.6.8-.6.5 0 .8.3.8.7.2.1.1.2.1.3zM74 143.1l2.6 3.9c.1.1.1.3.1.4 0 .4-.3.7-.7.7-.2 0-.5-.1-.6-.3l-2.9-4.6H70v4.1c0 .4-.3.7-.8.7-.4 0-.7-.3-.7-.7V137c0-.6.5-1.1 1.1-1.1h3.7c2.2 0 3.8 1.4 3.8 3.6 0 2.3-1.5 3.5-3.1 3.6zm-4-5.8v4.6h3.2c1.4 0 2.4-1 2.4-2.3s-1-2.3-2.4-2.3H70zM86.8 148h-6.2c-.6 0-1.1-.5-1.1-1.1v-9.8c0-.6.5-1.1 1.1-1.1h6.2c.4 0 .6.3.6.7 0 .4-.3.6-.6.6H81v3.9h5.7c.4 0 .6.3.6.7 0 .4-.3.6-.6.6H81v4.1h5.8c.4 0 .6.3.6.6 0 .5-.3.8-.6.8zM94.5 143.2h-3.3v4.1c0 .4-.3.7-.8.7-.4 0-.7-.3-.7-.7V137c0-.6.5-1.1 1.1-1.1h3.7c2.4 0 3.8 1.7 3.8 3.6s-1.4 3.7-3.8 3.7zm-.2-5.9h-3.2v4.6h3.2c1.4 0 2.4-.9 2.4-2.3s-1-2.3-2.4-2.3zM105.7 148.2c-3.6 0-6-2.7-6-6.2s2.4-6.2 6-6.2c3.5 0 6 2.7 6 6.2s-2.4 6.2-6 6.2zm0-11.1c-2.7 0-4.4 2.1-4.4 4.9 0 2.8 1.7 4.9 4.4 4.9s4.4-2.1 4.4-4.9c0-2.8-1.7-4.9-4.4-4.9zM119.5 143.1l2.6 3.9c.1.1.1.3.1.4 0 .4-.3.7-.7.7-.2 0-.5-.1-.6-.3l-2.9-4.6h-2.4v4.1c0 .4-.3.7-.8.7-.4 0-.7-.3-.7-.7V137c0-.6.5-1.1 1.1-1.1h3.7c2.2 0 3.8 1.4 3.8 3.6-.1 2.3-1.6 3.5-3.2 3.6zm-4-5.8v4.6h3.2c1.4 0 2.4-1 2.4-2.3s-1-2.3-2.4-2.3h-3.2zM132.5 137.3h-3.3v10c0 .4-.3.7-.8.7-.4 0-.7-.3-.7-.7v-10h-3.3c-.4 0-.6-.3-.6-.7 0-.4.3-.6.6-.6h8c.4 0 .6.3.6.7.2.3-.1.6-.5.6z"/></g></svg>