<svg version="1" xmlns="http://www.w3.org/2000/svg" width="202.8" height="312.4" viewBox="65.6 20.7 202.8 312.4"><path fill="#252525" d="M149.5 327.7c13.7 0 26.8-2 39.2-5.9l-2.4-89.9c.1-36.8-8.9-78.7-40.4-91.7-5.3-2.2-9.5.1-16.2-.5-33.9-3.1-61.8 20.3-62 63.3l-2.1 94.6c.2.2.4.3.6.5 22.7 18.5 51.7 29.6 83.3 29.6z"/><path fill="#E2BC98" d="M114.9 127.9l.8 28.4c4.5 3.3 9.2 6.8 11.2 11.7.9 2.3 1.3 5.5-.3 7.7-1.1 1.5-1.7 2.9-2.2 4.4l26.9.2 2.4-55.9-38.8 3.5z"/><path fill="#010101" d="M181.6 270.3c0-3.7-2.5-6.6-5.7-6.6-3.1 0-5.7 3-5.7 6.6 0 3.7 2.6 6.6 5.7 6.6 3.2.1 5.7-2.9 5.7-6.6zM181.6 311.5c0-3.7-2.5-6.6-5.7-6.6-3.1 0-5.7 3-5.7 6.6 0 3.7 2.6 6.6 5.7 6.6 3.2 0 5.7-2.9 5.7-6.6z"/><path fill="#DCDBDB" d="M126.7 162.3l25.9 45.5 19.2 22 10.7 10.8-6.6-36.1s-15.4-44.6-23.9-56.7l-8.3 1.8-19.8-6.5-14.2 7.4 17 11.8z"/><path fill="#FFF" d="M131.1 159.8l-17.2-15.3 1.2-4.5 28.5 9.6M159 158.4l-.8-5.4-5.3-9.2-9.3 5.8"/><path fill="#010101" d="M121.6 181.2l2.6-15.6-20.2-14.1 5.7-10.4 5.4-1.1 71.3 107.3"/><path fill="#010101" d="M167.7 159.8l-14.8-16 28.1 96.7 4.6 5.6 1.1 1.6-11.8-71.1-13.5-13.2"/><path fill="#EB2227" d="M131.5 144c5 1.5 7.8 4.5 12.4 7.3-4.1 3.5-6.3 6.9-11 9.3-.6-6.6-.9-10-1.4-16.6z"/><path fill="#EB2227" d="M150.5 143.7c-3.7 1.5-5.6 4.6-9.6 7.9 4.5 2.6 6.9 5.3 10.8 6.2-.5-5.7-.7-8.5-1.2-14.1z"/><path fill="#AB1F24" d="M145.1 153c.1.6-.3 1.2-.8 1.2l-3.2.4c-.5.1-1-.4-1.1-1.1l-.3-3.7c-.1-.6.3-1.2.9-1.2l3.2-.2c.5 0 1 .5 1 1.1l.3 3.5z"/><path fill="#EB2227" d="M150 163.9c-.6-1.5-2.3-2.2-3.7-1.6-1.5.6-2.2 2.3-1.6 3.7.6 1.5 2.3 2.2 3.7 1.6 1.5-.5 2.2-2.2 1.6-3.7zM155.1 176.4c-.6-1.5-2.3-2.2-3.7-1.6-1.5.6-2.2 2.3-1.6 3.7.6 1.5 2.3 2.2 3.7 1.6 1.5-.6 2.2-2.3 1.6-3.7zM160.2 188.8c-.6-1.5-2.3-2.2-3.7-1.6-1.5.6-2.2 2.3-1.6 3.7.6 1.5 2.3 2.2 3.7 1.6 1.5-.6 2.2-2.2 1.6-3.7z"/><path fill="#EED0B5" d="M254 261.6c.5 3.9 3.6 31.5 3.7 34.4h.1c.4 0 1-.1 1.3-.2 5.9-1.6 9.9-9.6 9.3-18.7-.7-9.6-6.5-16.7-13-15.9-.5.2-.9.3-1.4.4z"/><path fill="#010101" d="M254 261.5c-65 9.3-102.4 6.1-123.9-69.7-.8-2.7-9.4-26.9-33.2-20.1-12.5 3.6-17.7 19-14.3 26.8.4.9 4.5 8.5 5.7 11.3 32 77.8 88.9 103.3 169.8 86.2-1.6-14.7-2.6-19.9-4.1-34.5z"/><path fill="#EED0B5" d="M177 88.7c0-9.6.9-23.4-3.4-30.8-7.4-12.6-23.4-16-37.7-16-22.7 0-47.6 17.8-47.6 43.7s24.9 49.9 47.6 49.9 41.1-21 41.1-46.8z"/><path fill="#784220" d="M99.6 101.9c-3.4-2.1-6.5-5.4-8-9.2-2-5-.7-11.7 5.1-13.4 2.2-.6 4.6-.7 7-.2-2.4-8.1 4.4-18.6 12.7-20.8 17.8-4.8 23.4 5.2 34.9 3.6 9.1-1.3 9.8-7 15.9-6.2 4.6.6 6.6 5.5 8.3 9.5 2.2 5.2 1.5 21.7 1.5 23.5 1-1.8.6-23.1.6-23.6.2-3.8-2.1-20.5-4.8-25.1-3.7-6.2-9.2-11.5-15.5-15-11.8-6.5-23.1-4-39.4-3-2.9.2-34 4.3-38.3 42.7-1.1 9.7 1.8 24.2 7.2 34.3 1 1.8 3.2 6.6 14.8 19.2.1.1-1.8-8.7 1.4-15.1-1.3-.1-2.7-.7-3.4-1.2z"/><path fill="#FFF" d="M244.1 333.1h-53l4.4-70.5h44.2"/></svg>