<svg version="1" xmlns="http://www.w3.org/2000/svg" width="131.2" height="131.8" viewBox="0 0 131.2 131.8"><circle fill="#FFF" cx="65.9" cy="65.9" r="65.3"/><circle fill="none" cx="65.9" cy="65.9" r="65.3"/><g fill="#404141"><path d="M3.3 62.6h9.9v6.6H3.3zM118.6 62.6h9.9v6.6h-9.9z"/><g><path d="M62.6 3.3h6.6v9.9h-6.6zM62.6 118.6h6.6v9.9h-6.6z"/></g><path d="M65.9 0C29.5 0 0 29.5 0 65.9c0 36.4 29.5 65.9 65.9 65.9s65.9-29.5 65.9-65.9C131.8 29.5 102.3 0 65.9 0zm0 123.6c-31.8 0-57.7-25.9-57.7-57.7 0-31.8 25.9-57.7 57.7-57.7s57.7 25.9 57.7 57.7c0 31.8-25.9 57.7-57.7 57.7z"/></g></svg>