<svg xmlns="http://www.w3.org/2000/svg" width="153.8" height="258.5" viewBox="0 0 153.8 258.5"><path fill="#FFF" d="M-.6-.6L153.8-1l.6 258.2-154.4.4L-.6-.6z"/><path opacity=".6" fill="#E2E2E2" d="M19.7 257.5l134.7-.3L153.8-1h-18.5"/><path fill="#E7B923" d="M131.3 22c-2.5-3.8-9.6-6.5-12.7-3.3-.3.4-.7.7-.9 1.1.9.2 1.7.7 2.2 1.6.5 1 .6 3.7-.3 5.2.3.3.5.7.7 1.1.3.7.7 1.6.7 2.5.7.4 1.4.7 1.9.8 1.2.3 2.4.3 3.6.1 1.5-.2 2.8-.8 3.8-1.7 1.8-1.9 2.7-4.8 1-7.4z"/><path fill="#5FB8DE" d="M114.9 26.6c.6-.4 1.3-.8 2.1-.9-.9-2.2-.5-4.2.7-6-1-.2-2.2-.1-3.1.1-2 .5-2.6 1.4-2.5 3.5 0 1.6.8 3.2 2.1 4 .1-.2.4-.5.7-.7z"/><path fill="#DEBA29" d="M116.9 25.7c.6-.1 1.3 0 1.9.3.3.1.5.3.7.5.9-1.5.8-4.2.3-5.2-.4-.9-1.2-1.4-2.2-1.6-1.2 1.8-1.6 3.8-.7 6z"/><path fill="#638339" d="M116.9 25.7c.6-.1 1.3 0 1.9.3.3.1.5.3.7.5.9-1.5.8-4.2.3-5.2-.4-.9-1.2-1.4-2.2-1.6-1.2 1.8-1.6 3.8-.7 6z"/><path fill="#E90C8B" d="M118.1 27.6c-.7.3-1.1.3-1.7.3-.9.1-1.7-.2-2.3-.6-1 1.1-1.5 2.8-1.2 4.1.7 0 1.3.1 1.6.7.1.3.2.9.1 1.5 1.9 1 3.7.6 5.6-1.7.5-.5.6-1.2.6-1.9-.7-.3-1.3-.8-1.6-1.1-.4-.4-.8-.8-1.1-1.3z"/><path fill="#DEBA29" d="M119.5 26.5c-.2.3-.4.6-.7.7-.3.2-.5.3-.7.4.4.5.8.9 1.2 1.4.3.4.9.8 1.6 1.1 0-.9-.4-1.9-.7-2.5-.2-.4-.4-.8-.7-1.1z"/><path fill="#C02328" d="M119.5 26.5c-.2.3-.4.6-.7.7-.3.2-.5.3-.7.4.4.5.8.9 1.2 1.4.3.4.9.8 1.6 1.1 0-.9-.4-1.9-.7-2.5-.2-.4-.4-.8-.7-1.1z"/><path fill="#60B7DE" d="M116.4 28c.6-.1 1-.1 1.7-.3-.5-.6-.9-1.3-1.1-1.9-.7.1-1.5.5-2.1.9-.3.2-.6.5-.8.8.6.3 1.4.5 2.3.5z"/><path fill="#6D2977" d="M116.4 28c.6-.1 1-.1 1.7-.3-.5-.6-.9-1.3-1.1-1.9-.7.1-1.5.5-2.1.9-.3.2-.6.5-.8.8.6.3 1.4.5 2.3.5z"/><path fill="#DEBA29" d="M118.8 26c-.6-.3-1.2-.4-1.9-.3.3.6.6 1.3 1.1 1.9.2-.1.4-.2.7-.4.3-.2.5-.4.7-.7-.1-.2-.3-.4-.6-.5z"/><path fill="#60B7DE" d="M118.8 26c-.6-.3-1.2-.4-1.9-.3.3.6.6 1.3 1.1 1.9.2-.1.4-.2.7-.4.3-.2.5-.4.7-.7-.1-.2-.3-.4-.6-.5z"/><path fill="#69252D" d="M118.8 26c-.6-.3-1.2-.4-1.9-.3.3.6.6 1.3 1.1 1.9.2-.1.4-.2.7-.4.3-.2.5-.4.7-.7-.1-.2-.3-.4-.6-.5z"/><path fill="#EF8128" d="M112.9 31.5c-.3 0-.5.1-.7.1-.9.2-1.1.6-1.1 1.5 0 1.1.8 2.1 1.9 2 .4 0 .8-.1 1.1-.3.4-.3.5-.6.6-1.1 0 0-.1-.1-.2-.1-.9-.5-1.4-1.3-1.6-2.1z"/><path fill="#E9128B" d="M114.5 32.2c-.3-.6-1-.8-1.6-.7.2.8.7 1.6 1.6 2.1.1 0 .2.1.2.1.1-.5 0-1.2-.2-1.5z"/><path fill="#EF802A" d="M114.5 32.2c-.3-.6-1-.8-1.6-.7.2.8.7 1.6 1.6 2.1.1 0 .2.1.2.1.1-.5 0-1.2-.2-1.5z"/><path fill="#CF1F41" d="M114.5 32.2c-.3-.6-1-.8-1.7-.7.2.8.7 1.6 1.6 2.1.1 0 .1.1.2.1.2-.5.1-1.2-.1-1.5"/><path fill="#231F20" d="M125.6 38.6c-1.1-.3-2.5-.5-3.2-.5-4.3 0-6.5 2.8-6.5 7.4 0 3.8 1.5 6.3 4.7 6.3 2.2 0 3.3-1.2 4-2.4v1.2c0 .6.4 1.1 1 1.1s1-.5 1-1.1V40.3c.1-1 0-1.5-1-1.7zm-1 7c0 1.8-1.2 4.5-3.9 4.5-2 0-2.7-2.3-2.7-4.5 0-3.2 1-5.7 4-5.7 1 0 2 .2 2.5.4l.1 5.3zm-13.5-6.3c0-.6.5-1.1 1.1-1.1.6 0 1.1.5 1.1 1.1v11.3c0 .6-.5 1.1-1.1 1.1-.6 0-1.1-.5-1.1-1.1V39.3zm-3.6 10c.3-.2.7-.4 1.1-.4.4 0 .8.3.8.9 0 .3-.2.6-.5.8-.9.6-2.4 1.2-4 1.2-3.7 0-5.7-2.4-5.7-6.8 0-5.3 3.2-6.8 5.7-6.8 1.4 0 2.7.3 4 1.4.2.2.4.5.4.8 0 .5-.4 1-.9 1-.3 0-.6-.2-.9-.4-.9-.7-1.6-.9-2.6-.9-2 0-3.5 1.5-3.5 4.9 0 3 1.1 5.1 3.7 5.1.7-.1 1.5-.3 2.4-.8M91.8 38.2c-2.6 0-5.9 1.4-5.9 6.8 0 4.7 2.2 6.9 5.5 6.9s5.9-2.1 5.9-7.2c0-6-3.7-6.5-5.5-6.5zm-.2 11.9c-2.9 0-3.5-3-3.5-5.5 0-2.7 1.2-4.7 3.6-4.7 2.4 0 3.4 2.1 3.5 5.1-.1 2.8-1.3 5.1-3.6 5.1zm-15.6-1c.3 0 .5.1.7.2.8.4 1.7.8 3 .8 1.4 0 2.4-.7 2.4-2.1 0-1.4-1.4-1.9-2.8-2.4-1.8-.6-3.7-1.2-3.7-3.7 0-2.6 2.1-3.8 4.4-3.8 1.4 0 2.6.4 3.4.9.2.1.6.4.6.9s-.3.9-.8.9c-.2 0-.5-.1-.7-.3-.7-.4-1.6-.6-2.5-.6-1.1 0-2.2.4-2.2 1.8 0 1.3 1.4 1.8 2.8 2.3 1.7.6 3.8 1.4 3.8 3.9 0 2.6-1.8 3.9-4.5 3.9-1.9 0-3-.5-3.9-1-.3-.2-.6-.4-.6-.9-.3-.4.1-.8.6-.8m-18.4-5.8c0-1.8-.6-3.3-2.7-3.3-1.9 0-3.4 1.9-3.4 4.2v6.5c0 .6-.5 1.1-1.1 1.1-.6 0-1.1-.5-1.1-1.1V39.4c0-.6.4-1.1 1-1.1s1.1.5 1.1 1.1v.9c.9-1.5 2.3-2.1 3.9-2.1 2.8 0 4.5 1.5 4.5 4.5v8c0 .6-.5 1.1-1.1 1.1-.6 0-1.1-.5-1.1-1.1v-7.4zm-18.2-4.2c.2-.4.5-.7 1-.7.8 0 1.3.6 1 1.5L37.3 51c-.2.5-.4.9-1 .9-.5 0-.7-.4-.9-.9l-4.1-11c-.3-.8.1-1.6.9-1.6.5 0 .8.3 1 .7l3.1 8.5 3.1-8.5zm-18.3-4.9c0-.6.5-1.1 1.1-1.1.6 0 1.1.5 1.1 1.1v16.7c0 .6-.5 1.1-1.1 1.1-.6 0-1.1-.5-1.1-1.1V34.2zm109-.2c0-.6.5-1.1 1.1-1.1.6 0 1.1.5 1.1 1.1v16.7c0 .6-.5 1.1-1.1 1.1-.6 0-1.1-.5-1.1-1.1V34zm-58.4 4.6c-1-.2-2-.4-3-.4-3.3 0-6.2 2.3-6.2 6.6 0 4.6 2 6.3 4.4 6.5l-.5.3c-1.4.9-2.8 2-2.8 4 0 2.1 1.4 3.6 4.1 3.6 5.2 0 5.4-4.8 5.4-7.7v-11c-.1-1.5-.5-1.7-1.4-1.9zM71 52.4c0 2.9-.7 5.1-3.2 5.1-1.3 0-2.3-.6-2.3-2 0-1.2 1.2-2.2 2.5-3.4l2.9-2.5.1 2.8zm0-6.7c0 2-1.2 4-3.1 4-3.2 0-3.3-3.2-3.3-4.8 0-3.3 1.5-5 3.8-5 1.2 0 1.8.2 2.6.4v5.4zm-27.1-6.2c0-.6.5-1.1 1.1-1.1.6 0 1.1.5 1.1 1.1v11.3c0 .6-.5 1.1-1.1 1.1-.6 0-1.1-.5-1.1-1.1V39.5zm-17 0c0-.6.5-1.1 1.1-1.1.6 0 1.1.5 1.1 1.1v11.3c0 .6-.5 1.1-1.1 1.1-.6 0-1.1-.5-1.1-1.1V39.5z"/></svg>